<svg xmlns="http://www.w3.org/2000/svg" viewBox="0 0 480 320" width="480" height="320" shape-rendering="crispEdges">
<rect x="0" y="0" width="480" height="320" fill="#000000"/>
<rect x="389" y="1" width="91" height="1" fill="#ffffff"/>
<rect x="389" y="1" width="1" height="38" fill="#808080"/>
<rect x="479" y="1" width="1" height="38" fill="#ffffff"/>
<rect x="389" y="38" width="91" height="1" fill="#808080"/>
<rect x="390" y="2" width="89" height="36" fill="#e6e6e6"/>
<g data-font="x7x11b">
<path fill="#000000" d="M396 15h1v1h-1zM397 15h1v1h-1zM398 15h1v1h-1zM399 15h1v1h-1zM400 15h1v1h-1zM401 15h1v1h-1zM396 16h1v1h-1zM398 16h1v1h-1zM399 16h1v1h-1zM401 16h1v1h-1zM398 17h1v1h-1zM399 17h1v1h-1zM398 18h1v1h-1zM399 18h1v1h-1zM398 19h1v1h-1zM399 19h1v1h-1zM398 20h1v1h-1zM399 20h1v1h-1zM398 21h1v1h-1zM399 21h1v1h-1zM398 22h1v1h-1zM399 22h1v1h-1zM398 23h1v1h-1zM399 23h1v1h-1zM403 15h1v1h-1zM404 15h1v1h-1zM405 15h1v1h-1zM406 15h1v1h-1zM407 15h1v1h-1zM403 16h1v1h-1zM404 16h1v1h-1zM407 16h1v1h-1zM408 16h1v1h-1zM403 17h1v1h-1zM404 17h1v1h-1zM407 17h1v1h-1zM408 17h1v1h-1zM403 18h1v1h-1zM404 18h1v1h-1zM407 18h1v1h-1zM408 18h1v1h-1zM403 19h1v1h-1zM404 19h1v1h-1zM405 19h1v1h-1zM406 19h1v1h-1zM407 19h1v1h-1zM403 20h1v1h-1zM404 20h1v1h-1zM406 20h1v1h-1zM407 20h1v1h-1zM403 21h1v1h-1zM404 21h1v1h-1zM407 21h1v1h-1zM408 21h1v1h-1zM403 22h1v1h-1zM404 22h1v1h-1zM407 22h1v1h-1zM408 22h1v1h-1zM403 23h1v1h-1zM404 23h1v1h-1zM407 23h1v1h-1zM408 23h1v1h-1zM411 15h1v1h-1zM412 15h1v1h-1zM413 15h1v1h-1zM414 15h1v1h-1zM410 16h1v1h-1zM411 16h1v1h-1zM414 16h1v1h-1zM415 16h1v1h-1zM410 17h1v1h-1zM411 17h1v1h-1zM414 17h1v1h-1zM415 17h1v1h-1zM410 18h1v1h-1zM411 18h1v1h-1zM414 18h1v1h-1zM415 18h1v1h-1zM410 19h1v1h-1zM411 19h1v1h-1zM412 19h1v1h-1zM413 19h1v1h-1zM414 19h1v1h-1zM415 19h1v1h-1zM410 20h1v1h-1zM411 20h1v1h-1zM414 20h1v1h-1zM415 20h1v1h-1zM410 21h1v1h-1zM411 21h1v1h-1zM414 21h1v1h-1zM415 21h1v1h-1zM410 22h1v1h-1zM411 22h1v1h-1zM414 22h1v1h-1zM415 22h1v1h-1zM410 23h1v1h-1zM411 23h1v1h-1zM414 23h1v1h-1zM415 23h1v1h-1zM418 15h1v1h-1zM419 15h1v1h-1zM420 15h1v1h-1zM421 15h1v1h-1zM417 16h1v1h-1zM418 16h1v1h-1zM421 16h1v1h-1zM422 16h1v1h-1zM417 17h1v1h-1zM418 17h1v1h-1zM421 17h1v1h-1zM422 17h1v1h-1zM417 18h1v1h-1zM418 18h1v1h-1zM417 19h1v1h-1zM418 19h1v1h-1zM417 20h1v1h-1zM418 20h1v1h-1zM417 21h1v1h-1zM418 21h1v1h-1zM421 21h1v1h-1zM422 21h1v1h-1zM417 22h1v1h-1zM418 22h1v1h-1zM421 22h1v1h-1zM422 22h1v1h-1zM418 23h1v1h-1zM419 23h1v1h-1zM420 23h1v1h-1zM421 23h1v1h-1zM424 15h1v1h-1zM425 15h1v1h-1zM426 15h1v1h-1zM427 15h1v1h-1zM428 15h1v1h-1zM429 15h1v1h-1zM424 16h1v1h-1zM425 16h1v1h-1zM424 17h1v1h-1zM425 17h1v1h-1zM424 18h1v1h-1zM425 18h1v1h-1zM424 19h1v1h-1zM425 19h1v1h-1zM426 19h1v1h-1zM427 19h1v1h-1zM428 19h1v1h-1zM424 20h1v1h-1zM425 20h1v1h-1zM424 21h1v1h-1zM425 21h1v1h-1zM424 22h1v1h-1zM425 22h1v1h-1zM424 23h1v1h-1zM425 23h1v1h-1zM426 23h1v1h-1zM427 23h1v1h-1zM428 23h1v1h-1zM429 23h1v1h-1zM435 19h1v1h-1zM436 19h1v1h-1zM437 19h1v1h-1zM438 19h1v1h-1zM439 19h1v1h-1zM440 19h1v1h-1zM435 20h1v1h-1zM436 20h1v1h-1zM437 20h1v1h-1zM438 20h1v1h-1zM439 20h1v1h-1zM440 20h1v1h-1zM442 19h1v1h-1zM443 19h1v1h-1zM444 19h1v1h-1zM445 19h1v1h-1zM446 19h1v1h-1zM447 19h1v1h-1zM442 20h1v1h-1zM443 20h1v1h-1zM444 20h1v1h-1zM445 20h1v1h-1zM446 20h1v1h-1zM447 20h1v1h-1z"/>
</g>
<rect x="389" y="39" width="91" height="1" fill="#ffffff"/>
<rect x="389" y="39" width="1" height="38" fill="#808080"/>
<rect x="479" y="39" width="1" height="38" fill="#ffffff"/>
<rect x="389" y="76" width="91" height="1" fill="#808080"/>
<rect x="390" y="40" width="89" height="36" fill="#e6e6e6"/>
<g data-font="x7x11b">
<path fill="#000000" d="M396 53h1v1h-1zM397 53h1v1h-1zM398 53h1v1h-1zM399 53h1v1h-1zM400 53h1v1h-1zM401 53h1v1h-1zM396 54h1v1h-1zM398 54h1v1h-1zM399 54h1v1h-1zM401 54h1v1h-1zM398 55h1v1h-1zM399 55h1v1h-1zM398 56h1v1h-1zM399 56h1v1h-1zM398 57h1v1h-1zM399 57h1v1h-1zM398 58h1v1h-1zM399 58h1v1h-1zM398 59h1v1h-1zM399 59h1v1h-1zM398 60h1v1h-1zM399 60h1v1h-1zM398 61h1v1h-1zM399 61h1v1h-1zM403 53h1v1h-1zM404 53h1v1h-1zM405 53h1v1h-1zM406 53h1v1h-1zM407 53h1v1h-1zM403 54h1v1h-1zM404 54h1v1h-1zM407 54h1v1h-1zM408 54h1v1h-1zM403 55h1v1h-1zM404 55h1v1h-1zM407 55h1v1h-1zM408 55h1v1h-1zM403 56h1v1h-1zM404 56h1v1h-1zM407 56h1v1h-1zM408 56h1v1h-1zM403 57h1v1h-1zM404 57h1v1h-1zM405 57h1v1h-1zM406 57h1v1h-1zM407 57h1v1h-1zM403 58h1v1h-1zM404 58h1v1h-1zM406 58h1v1h-1zM407 58h1v1h-1zM403 59h1v1h-1zM404 59h1v1h-1zM407 59h1v1h-1zM408 59h1v1h-1zM403 60h1v1h-1zM404 60h1v1h-1zM407 60h1v1h-1zM408 60h1v1h-1zM403 61h1v1h-1zM404 61h1v1h-1zM407 61h1v1h-1zM408 61h1v1h-1zM411 53h1v1h-1zM412 53h1v1h-1zM413 53h1v1h-1zM414 53h1v1h-1zM410 54h1v1h-1zM411 54h1v1h-1zM414 54h1v1h-1zM415 54h1v1h-1zM410 55h1v1h-1zM411 55h1v1h-1zM414 55h1v1h-1zM415 55h1v1h-1zM410 56h1v1h-1zM411 56h1v1h-1zM414 56h1v1h-1zM415 56h1v1h-1zM410 57h1v1h-1zM411 57h1v1h-1zM412 57h1v1h-1zM413 57h1v1h-1zM414 57h1v1h-1zM415 57h1v1h-1zM410 58h1v1h-1zM411 58h1v1h-1zM414 58h1v1h-1zM415 58h1v1h-1zM410 59h1v1h-1zM411 59h1v1h-1zM414 59h1v1h-1zM415 59h1v1h-1zM410 60h1v1h-1zM411 60h1v1h-1zM414 60h1v1h-1zM415 60h1v1h-1zM410 61h1v1h-1zM411 61h1v1h-1zM414 61h1v1h-1zM415 61h1v1h-1zM418 53h1v1h-1zM419 53h1v1h-1zM420 53h1v1h-1zM421 53h1v1h-1zM417 54h1v1h-1zM418 54h1v1h-1zM421 54h1v1h-1zM422 54h1v1h-1zM417 55h1v1h-1zM418 55h1v1h-1zM421 55h1v1h-1zM422 55h1v1h-1zM417 56h1v1h-1zM418 56h1v1h-1zM417 57h1v1h-1zM418 57h1v1h-1zM417 58h1v1h-1zM418 58h1v1h-1zM417 59h1v1h-1zM418 59h1v1h-1zM421 59h1v1h-1zM422 59h1v1h-1zM417 60h1v1h-1zM418 60h1v1h-1zM421 60h1v1h-1zM422 60h1v1h-1zM418 61h1v1h-1zM419 61h1v1h-1zM420 61h1v1h-1zM421 61h1v1h-1zM424 53h1v1h-1zM425 53h1v1h-1zM426 53h1v1h-1zM427 53h1v1h-1zM428 53h1v1h-1zM429 53h1v1h-1zM424 54h1v1h-1zM425 54h1v1h-1zM424 55h1v1h-1zM425 55h1v1h-1zM424 56h1v1h-1zM425 56h1v1h-1zM424 57h1v1h-1zM425 57h1v1h-1zM426 57h1v1h-1zM427 57h1v1h-1zM428 57h1v1h-1zM424 58h1v1h-1zM425 58h1v1h-1zM424 59h1v1h-1zM425 59h1v1h-1zM424 60h1v1h-1zM425 60h1v1h-1zM424 61h1v1h-1zM425 61h1v1h-1zM426 61h1v1h-1zM427 61h1v1h-1zM428 61h1v1h-1zM429 61h1v1h-1zM435 57h1v1h-1zM436 57h1v1h-1zM437 57h1v1h-1zM438 57h1v1h-1zM439 57h1v1h-1zM440 57h1v1h-1zM435 58h1v1h-1zM436 58h1v1h-1zM437 58h1v1h-1zM438 58h1v1h-1zM439 58h1v1h-1zM440 58h1v1h-1zM442 57h1v1h-1zM443 57h1v1h-1zM444 57h1v1h-1zM445 57h1v1h-1zM446 57h1v1h-1zM447 57h1v1h-1zM442 58h1v1h-1zM443 58h1v1h-1zM444 58h1v1h-1zM445 58h1v1h-1zM446 58h1v1h-1zM447 58h1v1h-1z"/>
</g>
<rect x="389" y="77" width="91" height="1" fill="#ffffff"/>
<rect x="389" y="77" width="1" height="38" fill="#808080"/>
<rect x="479" y="77" width="1" height="38" fill="#ffffff"/>
<rect x="389" y="114" width="91" height="1" fill="#808080"/>
<rect x="390" y="78" width="89" height="36" fill="#e6e6e6"/>
<g data-font="x7x11b">
<path fill="#000000" d="M396 91h1v1h-1zM397 91h1v1h-1zM398 91h1v1h-1zM399 91h1v1h-1zM400 91h1v1h-1zM401 91h1v1h-1zM396 92h1v1h-1zM398 92h1v1h-1zM399 92h1v1h-1zM401 92h1v1h-1zM398 93h1v1h-1zM399 93h1v1h-1zM398 94h1v1h-1zM399 94h1v1h-1zM398 95h1v1h-1zM399 95h1v1h-1zM398 96h1v1h-1zM399 96h1v1h-1zM398 97h1v1h-1zM399 97h1v1h-1zM398 98h1v1h-1zM399 98h1v1h-1zM398 99h1v1h-1zM399 99h1v1h-1zM403 91h1v1h-1zM404 91h1v1h-1zM405 91h1v1h-1zM406 91h1v1h-1zM407 91h1v1h-1zM403 92h1v1h-1zM404 92h1v1h-1zM407 92h1v1h-1zM408 92h1v1h-1zM403 93h1v1h-1zM404 93h1v1h-1zM407 93h1v1h-1zM408 93h1v1h-1zM403 94h1v1h-1zM404 94h1v1h-1zM407 94h1v1h-1zM408 94h1v1h-1zM403 95h1v1h-1zM404 95h1v1h-1zM405 95h1v1h-1zM406 95h1v1h-1zM407 95h1v1h-1zM403 96h1v1h-1zM404 96h1v1h-1zM406 96h1v1h-1zM407 96h1v1h-1zM403 97h1v1h-1zM404 97h1v1h-1zM407 97h1v1h-1zM408 97h1v1h-1zM403 98h1v1h-1zM404 98h1v1h-1zM407 98h1v1h-1zM408 98h1v1h-1zM403 99h1v1h-1zM404 99h1v1h-1zM407 99h1v1h-1zM408 99h1v1h-1zM411 91h1v1h-1zM412 91h1v1h-1zM413 91h1v1h-1zM414 91h1v1h-1zM410 92h1v1h-1zM411 92h1v1h-1zM414 92h1v1h-1zM415 92h1v1h-1zM410 93h1v1h-1zM411 93h1v1h-1zM414 93h1v1h-1zM415 93h1v1h-1zM410 94h1v1h-1zM411 94h1v1h-1zM414 94h1v1h-1zM415 94h1v1h-1zM410 95h1v1h-1zM411 95h1v1h-1zM412 95h1v1h-1zM413 95h1v1h-1zM414 95h1v1h-1zM415 95h1v1h-1zM410 96h1v1h-1zM411 96h1v1h-1zM414 96h1v1h-1zM415 96h1v1h-1zM410 97h1v1h-1zM411 97h1v1h-1zM414 97h1v1h-1zM415 97h1v1h-1zM410 98h1v1h-1zM411 98h1v1h-1zM414 98h1v1h-1zM415 98h1v1h-1zM410 99h1v1h-1zM411 99h1v1h-1zM414 99h1v1h-1zM415 99h1v1h-1zM418 91h1v1h-1zM419 91h1v1h-1zM420 91h1v1h-1zM421 91h1v1h-1zM417 92h1v1h-1zM418 92h1v1h-1zM421 92h1v1h-1zM422 92h1v1h-1zM417 93h1v1h-1zM418 93h1v1h-1zM421 93h1v1h-1zM422 93h1v1h-1zM417 94h1v1h-1zM418 94h1v1h-1zM417 95h1v1h-1zM418 95h1v1h-1zM417 96h1v1h-1zM418 96h1v1h-1zM417 97h1v1h-1zM418 97h1v1h-1zM421 97h1v1h-1zM422 97h1v1h-1zM417 98h1v1h-1zM418 98h1v1h-1zM421 98h1v1h-1zM422 98h1v1h-1zM418 99h1v1h-1zM419 99h1v1h-1zM420 99h1v1h-1zM421 99h1v1h-1zM424 91h1v1h-1zM425 91h1v1h-1zM426 91h1v1h-1zM427 91h1v1h-1zM428 91h1v1h-1zM429 91h1v1h-1zM424 92h1v1h-1zM425 92h1v1h-1zM424 93h1v1h-1zM425 93h1v1h-1zM424 94h1v1h-1zM425 94h1v1h-1zM424 95h1v1h-1zM425 95h1v1h-1zM426 95h1v1h-1zM427 95h1v1h-1zM428 95h1v1h-1zM424 96h1v1h-1zM425 96h1v1h-1zM424 97h1v1h-1zM425 97h1v1h-1zM424 98h1v1h-1zM425 98h1v1h-1zM424 99h1v1h-1zM425 99h1v1h-1zM426 99h1v1h-1zM427 99h1v1h-1zM428 99h1v1h-1zM429 99h1v1h-1zM435 95h1v1h-1zM436 95h1v1h-1zM437 95h1v1h-1zM438 95h1v1h-1zM439 95h1v1h-1zM440 95h1v1h-1zM435 96h1v1h-1zM436 96h1v1h-1zM437 96h1v1h-1zM438 96h1v1h-1zM439 96h1v1h-1zM440 96h1v1h-1zM442 95h1v1h-1zM443 95h1v1h-1zM444 95h1v1h-1zM445 95h1v1h-1zM446 95h1v1h-1zM447 95h1v1h-1zM442 96h1v1h-1zM443 96h1v1h-1zM444 96h1v1h-1zM445 96h1v1h-1zM446 96h1v1h-1zM447 96h1v1h-1z"/>
</g>
<rect x="389" y="115" width="91" height="1" fill="#ffffff"/>
<rect x="389" y="115" width="1" height="38" fill="#808080"/>
<rect x="479" y="115" width="1" height="38" fill="#ffffff"/>
<rect x="389" y="152" width="91" height="1" fill="#808080"/>
<rect x="390" y="116" width="89" height="36" fill="#e6e6e6"/>
<g data-font="x7x11b">
<path fill="#000000" d="M396 129h1v1h-1zM397 129h1v1h-1zM398 129h1v1h-1zM399 129h1v1h-1zM400 129h1v1h-1zM401 129h1v1h-1zM396 130h1v1h-1zM398 130h1v1h-1zM399 130h1v1h-1zM401 130h1v1h-1zM398 131h1v1h-1zM399 131h1v1h-1zM398 132h1v1h-1zM399 132h1v1h-1zM398 133h1v1h-1zM399 133h1v1h-1zM398 134h1v1h-1zM399 134h1v1h-1zM398 135h1v1h-1zM399 135h1v1h-1zM398 136h1v1h-1zM399 136h1v1h-1zM398 137h1v1h-1zM399 137h1v1h-1zM403 129h1v1h-1zM404 129h1v1h-1zM405 129h1v1h-1zM406 129h1v1h-1zM407 129h1v1h-1zM403 130h1v1h-1zM404 130h1v1h-1zM407 130h1v1h-1zM408 130h1v1h-1zM403 131h1v1h-1zM404 131h1v1h-1zM407 131h1v1h-1zM408 131h1v1h-1zM403 132h1v1h-1zM404 132h1v1h-1zM407 132h1v1h-1zM408 132h1v1h-1zM403 133h1v1h-1zM404 133h1v1h-1zM405 133h1v1h-1zM406 133h1v1h-1zM407 133h1v1h-1zM403 134h1v1h-1zM404 134h1v1h-1zM406 134h1v1h-1zM407 134h1v1h-1zM403 135h1v1h-1zM404 135h1v1h-1zM407 135h1v1h-1zM408 135h1v1h-1zM403 136h1v1h-1zM404 136h1v1h-1zM407 136h1v1h-1zM408 136h1v1h-1zM403 137h1v1h-1zM404 137h1v1h-1zM407 137h1v1h-1zM408 137h1v1h-1zM411 129h1v1h-1zM412 129h1v1h-1zM413 129h1v1h-1zM414 129h1v1h-1zM410 130h1v1h-1zM411 130h1v1h-1zM414 130h1v1h-1zM415 130h1v1h-1zM410 131h1v1h-1zM411 131h1v1h-1zM414 131h1v1h-1zM415 131h1v1h-1zM410 132h1v1h-1zM411 132h1v1h-1zM414 132h1v1h-1zM415 132h1v1h-1zM410 133h1v1h-1zM411 133h1v1h-1zM412 133h1v1h-1zM413 133h1v1h-1zM414 133h1v1h-1zM415 133h1v1h-1zM410 134h1v1h-1zM411 134h1v1h-1zM414 134h1v1h-1zM415 134h1v1h-1zM410 135h1v1h-1zM411 135h1v1h-1zM414 135h1v1h-1zM415 135h1v1h-1zM410 136h1v1h-1zM411 136h1v1h-1zM414 136h1v1h-1zM415 136h1v1h-1zM410 137h1v1h-1zM411 137h1v1h-1zM414 137h1v1h-1zM415 137h1v1h-1zM418 129h1v1h-1zM419 129h1v1h-1zM420 129h1v1h-1zM421 129h1v1h-1zM417 130h1v1h-1zM418 130h1v1h-1zM421 130h1v1h-1zM422 130h1v1h-1zM417 131h1v1h-1zM418 131h1v1h-1zM421 131h1v1h-1zM422 131h1v1h-1zM417 132h1v1h-1zM418 132h1v1h-1zM417 133h1v1h-1zM418 133h1v1h-1zM417 134h1v1h-1zM418 134h1v1h-1zM417 135h1v1h-1zM418 135h1v1h-1zM421 135h1v1h-1zM422 135h1v1h-1zM417 136h1v1h-1zM418 136h1v1h-1zM421 136h1v1h-1zM422 136h1v1h-1zM418 137h1v1h-1zM419 137h1v1h-1zM420 137h1v1h-1zM421 137h1v1h-1zM424 129h1v1h-1zM425 129h1v1h-1zM426 129h1v1h-1zM427 129h1v1h-1zM428 129h1v1h-1zM429 129h1v1h-1zM424 130h1v1h-1zM425 130h1v1h-1zM424 131h1v1h-1zM425 131h1v1h-1zM424 132h1v1h-1zM425 132h1v1h-1zM424 133h1v1h-1zM425 133h1v1h-1zM426 133h1v1h-1zM427 133h1v1h-1zM428 133h1v1h-1zM424 134h1v1h-1zM425 134h1v1h-1zM424 135h1v1h-1zM425 135h1v1h-1zM424 136h1v1h-1zM425 136h1v1h-1zM424 137h1v1h-1zM425 137h1v1h-1zM426 137h1v1h-1zM427 137h1v1h-1zM428 137h1v1h-1zM429 137h1v1h-1zM435 133h1v1h-1zM436 133h1v1h-1zM437 133h1v1h-1zM438 133h1v1h-1zM439 133h1v1h-1zM440 133h1v1h-1zM435 134h1v1h-1zM436 134h1v1h-1zM437 134h1v1h-1zM438 134h1v1h-1zM439 134h1v1h-1zM440 134h1v1h-1zM442 133h1v1h-1zM443 133h1v1h-1zM444 133h1v1h-1zM445 133h1v1h-1zM446 133h1v1h-1zM447 133h1v1h-1zM442 134h1v1h-1zM443 134h1v1h-1zM444 134h1v1h-1zM445 134h1v1h-1zM446 134h1v1h-1zM447 134h1v1h-1z"/>
</g>
<rect x="389" y="153" width="91" height="1" fill="#ffffff"/>
<rect x="389" y="153" width="1" height="38" fill="#808080"/>
<rect x="479" y="153" width="1" height="38" fill="#ffffff"/>
<rect x="389" y="190" width="91" height="1" fill="#808080"/>
<rect x="390" y="154" width="89" height="36" fill="#e6e6e6"/>
<g data-font="x7x11b">
<path fill="#000000" d="M396 171h1v1h-1zM397 171h1v1h-1zM398 171h1v1h-1zM399 171h1v1h-1zM400 171h1v1h-1zM401 171h1v1h-1zM396 172h1v1h-1zM397 172h1v1h-1zM398 172h1v1h-1zM399 172h1v1h-1zM400 172h1v1h-1zM401 172h1v1h-1zM403 171h1v1h-1zM404 171h1v1h-1zM405 171h1v1h-1zM406 171h1v1h-1zM407 171h1v1h-1zM408 171h1v1h-1zM403 172h1v1h-1zM404 172h1v1h-1zM405 172h1v1h-1zM406 172h1v1h-1zM407 172h1v1h-1zM408 172h1v1h-1zM414 167h1v1h-1zM415 167h1v1h-1zM416 167h1v1h-1zM417 167h1v1h-1zM418 167h1v1h-1zM419 167h1v1h-1zM414 168h1v1h-1zM416 168h1v1h-1zM417 168h1v1h-1zM419 168h1v1h-1zM416 169h1v1h-1zM417 169h1v1h-1zM416 170h1v1h-1zM417 170h1v1h-1zM416 171h1v1h-1zM417 171h1v1h-1zM416 172h1v1h-1zM417 172h1v1h-1zM416 173h1v1h-1zM417 173h1v1h-1zM416 174h1v1h-1zM417 174h1v1h-1zM416 175h1v1h-1zM417 175h1v1h-1zM421 167h1v1h-1zM422 167h1v1h-1zM423 167h1v1h-1zM424 167h1v1h-1zM425 167h1v1h-1zM421 168h1v1h-1zM422 168h1v1h-1zM425 168h1v1h-1zM426 168h1v1h-1zM421 169h1v1h-1zM422 169h1v1h-1zM425 169h1v1h-1zM426 169h1v1h-1zM421 170h1v1h-1zM422 170h1v1h-1zM425 170h1v1h-1zM426 170h1v1h-1zM421 171h1v1h-1zM422 171h1v1h-1zM423 171h1v1h-1zM424 171h1v1h-1zM425 171h1v1h-1zM421 172h1v1h-1zM422 172h1v1h-1zM424 172h1v1h-1zM425 172h1v1h-1zM421 173h1v1h-1zM422 173h1v1h-1zM425 173h1v1h-1zM426 173h1v1h-1zM421 174h1v1h-1zM422 174h1v1h-1zM425 174h1v1h-1zM426 174h1v1h-1zM421 175h1v1h-1zM422 175h1v1h-1zM425 175h1v1h-1zM426 175h1v1h-1zM429 167h1v1h-1zM430 167h1v1h-1zM431 167h1v1h-1zM432 167h1v1h-1zM428 168h1v1h-1zM429 168h1v1h-1zM432 168h1v1h-1zM433 168h1v1h-1zM428 169h1v1h-1zM429 169h1v1h-1zM432 169h1v1h-1zM433 169h1v1h-1zM428 170h1v1h-1zM429 170h1v1h-1zM432 170h1v1h-1zM433 170h1v1h-1zM428 171h1v1h-1zM429 171h1v1h-1zM430 171h1v1h-1zM431 171h1v1h-1zM432 171h1v1h-1zM433 171h1v1h-1zM428 172h1v1h-1zM429 172h1v1h-1zM432 172h1v1h-1zM433 172h1v1h-1zM428 173h1v1h-1zM429 173h1v1h-1zM432 173h1v1h-1zM433 173h1v1h-1zM428 174h1v1h-1zM429 174h1v1h-1zM432 174h1v1h-1zM433 174h1v1h-1zM428 175h1v1h-1zM429 175h1v1h-1zM432 175h1v1h-1zM433 175h1v1h-1zM436 167h1v1h-1zM437 167h1v1h-1zM438 167h1v1h-1zM439 167h1v1h-1zM435 168h1v1h-1zM436 168h1v1h-1zM439 168h1v1h-1zM440 168h1v1h-1zM435 169h1v1h-1zM436 169h1v1h-1zM439 169h1v1h-1zM440 169h1v1h-1zM435 170h1v1h-1zM436 170h1v1h-1zM435 171h1v1h-1zM436 171h1v1h-1zM435 172h1v1h-1zM436 172h1v1h-1zM435 173h1v1h-1zM436 173h1v1h-1zM439 173h1v1h-1zM440 173h1v1h-1zM435 174h1v1h-1zM436 174h1v1h-1zM439 174h1v1h-1zM440 174h1v1h-1zM436 175h1v1h-1zM437 175h1v1h-1zM438 175h1v1h-1zM439 175h1v1h-1zM442 167h1v1h-1zM443 167h1v1h-1zM444 167h1v1h-1zM445 167h1v1h-1zM446 167h1v1h-1zM447 167h1v1h-1zM442 168h1v1h-1zM443 168h1v1h-1zM442 169h1v1h-1zM443 169h1v1h-1zM442 170h1v1h-1zM443 170h1v1h-1zM442 171h1v1h-1zM443 171h1v1h-1zM444 171h1v1h-1zM445 171h1v1h-1zM446 171h1v1h-1zM442 172h1v1h-1zM443 172h1v1h-1zM442 173h1v1h-1zM443 173h1v1h-1zM442 174h1v1h-1zM443 174h1v1h-1zM442 175h1v1h-1zM443 175h1v1h-1zM444 175h1v1h-1zM445 175h1v1h-1zM446 175h1v1h-1zM447 175h1v1h-1z"/>
</g>
<rect x="389" y="191" width="91" height="1" fill="#ffffff"/>
<rect x="389" y="191" width="1" height="38" fill="#808080"/>
<rect x="479" y="191" width="1" height="38" fill="#ffffff"/>
<rect x="389" y="228" width="91" height="1" fill="#808080"/>
<rect x="390" y="192" width="89" height="36" fill="#e6e6e6"/>
<g data-font="x7x11b">
<path fill="#000000" d="M399 206h1v1h-1zM398 207h1v1h-1zM399 207h1v1h-1zM397 208h1v1h-1zM398 208h1v1h-1zM396 209h1v1h-1zM397 209h1v1h-1zM398 209h1v1h-1zM399 209h1v1h-1zM400 209h1v1h-1zM401 209h1v1h-1zM402 209h1v1h-1zM396 210h1v1h-1zM397 210h1v1h-1zM398 210h1v1h-1zM399 210h1v1h-1zM400 210h1v1h-1zM401 210h1v1h-1zM402 210h1v1h-1zM397 211h1v1h-1zM398 211h1v1h-1zM398 212h1v1h-1zM399 212h1v1h-1zM399 213h1v1h-1zM408 205h1v1h-1zM409 205h1v1h-1zM410 205h1v1h-1zM411 205h1v1h-1zM412 205h1v1h-1zM408 206h1v1h-1zM409 206h1v1h-1zM412 206h1v1h-1zM413 206h1v1h-1zM408 207h1v1h-1zM409 207h1v1h-1zM412 207h1v1h-1zM413 207h1v1h-1zM408 208h1v1h-1zM409 208h1v1h-1zM412 208h1v1h-1zM413 208h1v1h-1zM408 209h1v1h-1zM409 209h1v1h-1zM410 209h1v1h-1zM411 209h1v1h-1zM412 209h1v1h-1zM408 210h1v1h-1zM409 210h1v1h-1zM412 210h1v1h-1zM413 210h1v1h-1zM408 211h1v1h-1zM409 211h1v1h-1zM412 211h1v1h-1zM413 211h1v1h-1zM408 212h1v1h-1zM409 212h1v1h-1zM412 212h1v1h-1zM413 212h1v1h-1zM408 213h1v1h-1zM409 213h1v1h-1zM410 213h1v1h-1zM411 213h1v1h-1zM412 213h1v1h-1zM416 205h1v1h-1zM417 205h1v1h-1zM418 205h1v1h-1zM419 205h1v1h-1zM415 206h1v1h-1zM416 206h1v1h-1zM419 206h1v1h-1zM420 206h1v1h-1zM415 207h1v1h-1zM416 207h1v1h-1zM419 207h1v1h-1zM420 207h1v1h-1zM415 208h1v1h-1zM416 208h1v1h-1zM419 208h1v1h-1zM420 208h1v1h-1zM415 209h1v1h-1zM416 209h1v1h-1zM417 209h1v1h-1zM418 209h1v1h-1zM419 209h1v1h-1zM420 209h1v1h-1zM415 210h1v1h-1zM416 210h1v1h-1zM419 210h1v1h-1zM420 210h1v1h-1zM415 211h1v1h-1zM416 211h1v1h-1zM419 211h1v1h-1zM420 211h1v1h-1zM415 212h1v1h-1zM416 212h1v1h-1zM419 212h1v1h-1zM420 212h1v1h-1zM415 213h1v1h-1zM416 213h1v1h-1zM419 213h1v1h-1zM420 213h1v1h-1zM423 205h1v1h-1zM424 205h1v1h-1zM425 205h1v1h-1zM426 205h1v1h-1zM422 206h1v1h-1zM423 206h1v1h-1zM426 206h1v1h-1zM427 206h1v1h-1zM422 207h1v1h-1zM423 207h1v1h-1zM426 207h1v1h-1zM427 207h1v1h-1zM422 208h1v1h-1zM423 208h1v1h-1zM422 209h1v1h-1zM423 209h1v1h-1zM422 210h1v1h-1zM423 210h1v1h-1zM422 211h1v1h-1zM423 211h1v1h-1zM426 211h1v1h-1zM427 211h1v1h-1zM422 212h1v1h-1zM423 212h1v1h-1zM426 212h1v1h-1zM427 212h1v1h-1zM423 213h1v1h-1zM424 213h1v1h-1zM425 213h1v1h-1zM426 213h1v1h-1zM429 205h1v1h-1zM430 205h1v1h-1zM433 205h1v1h-1zM434 205h1v1h-1zM429 206h1v1h-1zM430 206h1v1h-1zM433 206h1v1h-1zM434 206h1v1h-1zM429 207h1v1h-1zM430 207h1v1h-1zM433 207h1v1h-1zM434 207h1v1h-1zM429 208h1v1h-1zM430 208h1v1h-1zM432 208h1v1h-1zM433 208h1v1h-1zM429 209h1v1h-1zM430 209h1v1h-1zM431 209h1v1h-1zM432 209h1v1h-1zM429 210h1v1h-1zM430 210h1v1h-1zM432 210h1v1h-1zM433 210h1v1h-1zM429 211h1v1h-1zM430 211h1v1h-1zM433 211h1v1h-1zM434 211h1v1h-1zM429 212h1v1h-1zM430 212h1v1h-1zM433 212h1v1h-1zM434 212h1v1h-1zM429 213h1v1h-1zM430 213h1v1h-1zM433 213h1v1h-1zM434 213h1v1h-1z"/>
</g>
</svg>