<svg xmlns="http://www.w3.org/2000/svg" viewBox="0 0 480 320" width="480" height="320" shape-rendering="crispEdges">
<rect x="0" y="0" width="480" height="320" fill="#000000"/>
<rect x="389" y="1" width="91" height="1" fill="#ffffff"/>
<rect x="389" y="1" width="1" height="38" fill="#808080"/>
<rect x="479" y="1" width="1" height="38" fill="#ffffff"/>
<rect x="389" y="38" width="91" height="1" fill="#808080"/>
<rect x="390" y="2" width="89" height="36" fill="#e6e6e6"/>
<g data-font="x7x11b">
<path fill="#000000" d="M397 15h1v1h-1zM398 15h1v1h-1zM399 15h1v1h-1zM400 15h1v1h-1zM396 16h1v1h-1zM397 16h1v1h-1zM400 16h1v1h-1zM401 16h1v1h-1zM396 17h1v1h-1zM397 17h1v1h-1zM400 17h1v1h-1zM401 17h1v1h-1zM396 18h1v1h-1zM397 18h1v1h-1zM400 18h1v1h-1zM401 18h1v1h-1zM396 19h1v1h-1zM397 19h1v1h-1zM400 19h1v1h-1zM401 19h1v1h-1zM396 20h1v1h-1zM397 20h1v1h-1zM400 20h1v1h-1zM401 20h1v1h-1zM396 21h1v1h-1zM397 21h1v1h-1zM400 21h1v1h-1zM401 21h1v1h-1zM396 22h1v1h-1zM397 22h1v1h-1zM400 22h1v1h-1zM401 22h1v1h-1zM397 23h1v1h-1zM398 23h1v1h-1zM399 23h1v1h-1zM400 23h1v1h-1zM403 15h1v1h-1zM404 15h1v1h-1zM405 15h1v1h-1zM406 15h1v1h-1zM407 15h1v1h-1zM408 15h1v1h-1zM403 16h1v1h-1zM404 16h1v1h-1zM403 17h1v1h-1zM404 17h1v1h-1zM403 18h1v1h-1zM404 18h1v1h-1zM403 19h1v1h-1zM404 19h1v1h-1zM405 19h1v1h-1zM406 19h1v1h-1zM407 19h1v1h-1zM403 20h1v1h-1zM404 20h1v1h-1zM403 21h1v1h-1zM404 21h1v1h-1zM403 22h1v1h-1zM404 22h1v1h-1zM403 23h1v1h-1zM404 23h1v1h-1zM410 15h1v1h-1zM411 15h1v1h-1zM412 15h1v1h-1zM413 15h1v1h-1zM414 15h1v1h-1zM415 15h1v1h-1zM410 16h1v1h-1zM411 16h1v1h-1zM410 17h1v1h-1zM411 17h1v1h-1zM410 18h1v1h-1zM411 18h1v1h-1zM410 19h1v1h-1zM411 19h1v1h-1zM412 19h1v1h-1zM413 19h1v1h-1zM414 19h1v1h-1zM410 20h1v1h-1zM411 20h1v1h-1zM410 21h1v1h-1zM411 21h1v1h-1zM410 22h1v1h-1zM411 22h1v1h-1zM410 23h1v1h-1zM411 23h1v1h-1z"/>
</g>
<rect x="389" y="39" width="91" height="1" fill="#ffffff"/>
<rect x="389" y="39" width="1" height="38" fill="#808080"/>
<rect x="479" y="39" width="1" height="38" fill="#ffffff"/>
<rect x="389" y="76" width="91" height="1" fill="#808080"/>
<rect x="390" y="40" width="89" height="36" fill="#e6e6e6"/>
<g data-font="x7x11b">
<path fill="#000000" d="M396 48h1v1h-1zM397 48h1v1h-1zM398 48h1v1h-1zM399 48h1v1h-1zM400 48h1v1h-1zM396 49h1v1h-1zM397 49h1v1h-1zM400 49h1v1h-1zM401 49h1v1h-1zM396 50h1v1h-1zM397 50h1v1h-1zM400 50h1v1h-1zM401 50h1v1h-1zM396 51h1v1h-1zM397 51h1v1h-1zM400 51h1v1h-1zM401 51h1v1h-1zM396 52h1v1h-1zM397 52h1v1h-1zM398 52h1v1h-1zM399 52h1v1h-1zM400 52h1v1h-1zM396 53h1v1h-1zM397 53h1v1h-1zM399 53h1v1h-1zM400 53h1v1h-1zM396 54h1v1h-1zM397 54h1v1h-1zM400 54h1v1h-1zM401 54h1v1h-1zM396 55h1v1h-1zM397 55h1v1h-1zM400 55h1v1h-1zM401 55h1v1h-1zM396 56h1v1h-1zM397 56h1v1h-1zM400 56h1v1h-1zM401 56h1v1h-1zM403 48h1v1h-1zM404 48h1v1h-1zM405 48h1v1h-1zM406 48h1v1h-1zM407 48h1v1h-1zM408 48h1v1h-1zM403 49h1v1h-1zM404 49h1v1h-1zM403 50h1v1h-1zM404 50h1v1h-1zM403 51h1v1h-1zM404 51h1v1h-1zM403 52h1v1h-1zM404 52h1v1h-1zM405 52h1v1h-1zM406 52h1v1h-1zM407 52h1v1h-1zM403 53h1v1h-1zM404 53h1v1h-1zM403 54h1v1h-1zM404 54h1v1h-1zM403 55h1v1h-1zM404 55h1v1h-1zM403 56h1v1h-1zM404 56h1v1h-1zM405 56h1v1h-1zM406 56h1v1h-1zM407 56h1v1h-1zM408 56h1v1h-1zM411 48h1v1h-1zM412 48h1v1h-1zM413 48h1v1h-1zM414 48h1v1h-1zM410 49h1v1h-1zM411 49h1v1h-1zM414 49h1v1h-1zM415 49h1v1h-1zM410 50h1v1h-1zM411 50h1v1h-1zM414 50h1v1h-1zM415 50h1v1h-1zM411 51h1v1h-1zM412 51h1v1h-1zM412 52h1v1h-1zM413 52h1v1h-1zM413 53h1v1h-1zM414 53h1v1h-1zM410 54h1v1h-1zM411 54h1v1h-1zM414 54h1v1h-1zM415 54h1v1h-1zM410 55h1v1h-1zM411 55h1v1h-1zM414 55h1v1h-1zM415 55h1v1h-1zM411 56h1v1h-1zM412 56h1v1h-1zM413 56h1v1h-1zM414 56h1v1h-1zM418 48h1v1h-1zM419 48h1v1h-1zM420 48h1v1h-1zM421 48h1v1h-1zM417 49h1v1h-1zM418 49h1v1h-1zM421 49h1v1h-1zM422 49h1v1h-1zM417 50h1v1h-1zM418 50h1v1h-1zM421 50h1v1h-1zM422 50h1v1h-1zM417 51h1v1h-1zM418 51h1v1h-1zM421 51h1v1h-1zM422 51h1v1h-1zM417 52h1v1h-1zM418 52h1v1h-1zM421 52h1v1h-1zM422 52h1v1h-1zM417 53h1v1h-1zM418 53h1v1h-1zM421 53h1v1h-1zM422 53h1v1h-1zM417 54h1v1h-1zM418 54h1v1h-1zM421 54h1v1h-1zM422 54h1v1h-1zM417 55h1v1h-1zM418 55h1v1h-1zM421 55h1v1h-1zM422 55h1v1h-1zM418 56h1v1h-1zM419 56h1v1h-1zM420 56h1v1h-1zM421 56h1v1h-1zM424 48h1v1h-1zM425 48h1v1h-1zM428 48h1v1h-1zM429 48h1v1h-1zM424 49h1v1h-1zM425 49h1v1h-1zM428 49h1v1h-1zM429 49h1v1h-1zM424 50h1v1h-1zM425 50h1v1h-1zM426 50h1v1h-1zM428 50h1v1h-1zM429 50h1v1h-1zM424 51h1v1h-1zM425 51h1v1h-1zM426 51h1v1h-1zM428 51h1v1h-1zM429 51h1v1h-1zM424 52h1v1h-1zM425 52h1v1h-1zM426 52h1v1h-1zM427 52h1v1h-1zM428 52h1v1h-1zM429 52h1v1h-1zM424 53h1v1h-1zM425 53h1v1h-1zM427 53h1v1h-1zM428 53h1v1h-1zM429 53h1v1h-1zM424 54h1v1h-1zM425 54h1v1h-1zM427 54h1v1h-1zM428 54h1v1h-1zM429 54h1v1h-1zM424 55h1v1h-1zM425 55h1v1h-1zM428 55h1v1h-1zM429 55h1v1h-1zM424 56h1v1h-1zM425 56h1v1h-1zM428 56h1v1h-1zM429 56h1v1h-1zM432 48h1v1h-1zM433 48h1v1h-1zM434 48h1v1h-1zM435 48h1v1h-1zM431 49h1v1h-1zM432 49h1v1h-1zM435 49h1v1h-1zM436 49h1v1h-1zM431 50h1v1h-1zM432 50h1v1h-1zM435 50h1v1h-1zM436 50h1v1h-1zM431 51h1v1h-1zM432 51h1v1h-1zM435 51h1v1h-1zM436 51h1v1h-1zM431 52h1v1h-1zM432 52h1v1h-1zM433 52h1v1h-1zM434 52h1v1h-1zM435 52h1v1h-1zM436 52h1v1h-1zM431 53h1v1h-1zM432 53h1v1h-1zM435 53h1v1h-1zM436 53h1v1h-1zM431 54h1v1h-1zM432 54h1v1h-1zM435 54h1v1h-1zM436 54h1v1h-1zM431 55h1v1h-1zM432 55h1v1h-1zM435 55h1v1h-1zM436 55h1v1h-1zM431 56h1v1h-1zM432 56h1v1h-1zM435 56h1v1h-1zM436 56h1v1h-1zM438 48h1v1h-1zM439 48h1v1h-1zM442 48h1v1h-1zM443 48h1v1h-1zM438 49h1v1h-1zM439 49h1v1h-1zM442 49h1v1h-1zM443 49h1v1h-1zM438 50h1v1h-1zM439 50h1v1h-1zM440 50h1v1h-1zM442 50h1v1h-1zM443 50h1v1h-1zM438 51h1v1h-1zM439 51h1v1h-1zM440 51h1v1h-1zM442 51h1v1h-1zM443 51h1v1h-1zM438 52h1v1h-1zM439 52h1v1h-1zM440 52h1v1h-1zM441 52h1v1h-1zM442 52h1v1h-1zM443 52h1v1h-1zM438 53h1v1h-1zM439 53h1v1h-1zM441 53h1v1h-1zM442 53h1v1h-1zM443 53h1v1h-1zM438 54h1v1h-1zM439 54h1v1h-1zM441 54h1v1h-1zM442 54h1v1h-1zM443 54h1v1h-1zM438 55h1v1h-1zM439 55h1v1h-1zM442 55h1v1h-1zM443 55h1v1h-1zM438 56h1v1h-1zM439 56h1v1h-1zM442 56h1v1h-1zM443 56h1v1h-1zM446 48h1v1h-1zM447 48h1v1h-1zM448 48h1v1h-1zM449 48h1v1h-1zM445 49h1v1h-1zM446 49h1v1h-1zM449 49h1v1h-1zM450 49h1v1h-1zM445 50h1v1h-1zM446 50h1v1h-1zM449 50h1v1h-1zM450 50h1v1h-1zM445 51h1v1h-1zM446 51h1v1h-1zM445 52h1v1h-1zM446 52h1v1h-1zM445 53h1v1h-1zM446 53h1v1h-1zM445 54h1v1h-1zM446 54h1v1h-1zM449 54h1v1h-1zM450 54h1v1h-1zM445 55h1v1h-1zM446 55h1v1h-1zM449 55h1v1h-1zM450 55h1v1h-1zM446 56h1v1h-1zM447 56h1v1h-1zM448 56h1v1h-1zM449 56h1v1h-1zM452 48h1v1h-1zM453 48h1v1h-1zM454 48h1v1h-1zM455 48h1v1h-1zM456 48h1v1h-1zM457 48h1v1h-1zM452 49h1v1h-1zM453 49h1v1h-1zM452 50h1v1h-1zM453 50h1v1h-1zM452 51h1v1h-1zM453 51h1v1h-1zM452 52h1v1h-1zM453 52h1v1h-1zM454 52h1v1h-1zM455 52h1v1h-1zM456 52h1v1h-1zM452 53h1v1h-1zM453 53h1v1h-1zM452 54h1v1h-1zM453 54h1v1h-1zM452 55h1v1h-1zM453 55h1v1h-1zM452 56h1v1h-1zM453 56h1v1h-1zM454 56h1v1h-1zM455 56h1v1h-1zM456 56h1v1h-1zM457 56h1v1h-1z"/>
<path fill="#000000" d="M402 59h1v1h-1zM403 59h1v1h-1zM401 60h1v1h-1zM402 60h1v1h-1zM401 61h1v1h-1zM402 61h1v1h-1zM400 62h1v1h-1zM401 62h1v1h-1zM400 63h1v1h-1zM401 63h1v1h-1zM400 64h1v1h-1zM401 64h1v1h-1zM401 65h1v1h-1zM402 65h1v1h-1zM401 66h1v1h-1zM402 66h1v1h-1zM402 67h1v1h-1zM403 67h1v1h-1zM406 59h1v1h-1zM407 59h1v1h-1zM408 59h1v1h-1zM409 59h1v1h-1zM405 60h1v1h-1zM406 60h1v1h-1zM409 60h1v1h-1zM410 60h1v1h-1zM405 61h1v1h-1zM406 61h1v1h-1zM409 61h1v1h-1zM410 61h1v1h-1zM406 62h1v1h-1zM407 62h1v1h-1zM407 63h1v1h-1zM408 63h1v1h-1zM408 64h1v1h-1zM409 64h1v1h-1zM405 65h1v1h-1zM406 65h1v1h-1zM409 65h1v1h-1zM410 65h1v1h-1zM405 66h1v1h-1zM406 66h1v1h-1zM409 66h1v1h-1zM410 66h1v1h-1zM406 67h1v1h-1zM407 67h1v1h-1zM408 67h1v1h-1zM409 67h1v1h-1zM414 59h1v1h-1zM415 59h1v1h-1zM413 60h1v1h-1zM414 60h1v1h-1zM415 60h1v1h-1zM412 61h1v1h-1zM414 61h1v1h-1zM415 61h1v1h-1zM414 62h1v1h-1zM415 62h1v1h-1zM414 63h1v1h-1zM415 63h1v1h-1zM414 64h1v1h-1zM415 64h1v1h-1zM414 65h1v1h-1zM415 65h1v1h-1zM414 66h1v1h-1zM415 66h1v1h-1zM412 67h1v1h-1zM413 67h1v1h-1zM414 67h1v1h-1zM415 67h1v1h-1zM416 67h1v1h-1zM417 67h1v1h-1zM421 59h1v1h-1zM422 59h1v1h-1zM420 60h1v1h-1zM421 60h1v1h-1zM422 60h1v1h-1zM419 61h1v1h-1zM421 61h1v1h-1zM422 61h1v1h-1zM421 62h1v1h-1zM422 62h1v1h-1zM421 63h1v1h-1zM422 63h1v1h-1zM421 64h1v1h-1zM422 64h1v1h-1zM421 65h1v1h-1zM422 65h1v1h-1zM421 66h1v1h-1zM422 66h1v1h-1zM419 67h1v1h-1zM420 67h1v1h-1zM421 67h1v1h-1zM422 67h1v1h-1zM423 67h1v1h-1zM424 67h1v1h-1zM426 59h1v1h-1zM427 59h1v1h-1zM427 60h1v1h-1zM428 60h1v1h-1zM427 61h1v1h-1zM428 61h1v1h-1zM428 62h1v1h-1zM429 62h1v1h-1zM428 63h1v1h-1zM429 63h1v1h-1zM428 64h1v1h-1zM429 64h1v1h-1zM427 65h1v1h-1zM428 65h1v1h-1zM427 66h1v1h-1zM428 66h1v1h-1zM426 67h1v1h-1zM427 67h1v1h-1z"/>
</g>
<rect x="389" y="77" width="91" height="1" fill="#ffffff"/>
<rect x="389" y="77" width="1" height="38" fill="#808080"/>
<rect x="479" y="77" width="1" height="38" fill="#ffffff"/>
<rect x="389" y="114" width="91" height="1" fill="#808080"/>
<rect x="390" y="78" width="89" height="36" fill="#e6e6e6"/>
<g data-font="x7x11b">
<path fill="#000000" d="M399 92h1v1h-1zM398 93h1v1h-1zM399 93h1v1h-1zM397 94h1v1h-1zM398 94h1v1h-1zM396 95h1v1h-1zM397 95h1v1h-1zM398 95h1v1h-1zM399 95h1v1h-1zM400 95h1v1h-1zM401 95h1v1h-1zM402 95h1v1h-1zM396 96h1v1h-1zM397 96h1v1h-1zM398 96h1v1h-1zM399 96h1v1h-1zM400 96h1v1h-1zM401 96h1v1h-1zM402 96h1v1h-1zM397 97h1v1h-1zM398 97h1v1h-1zM398 98h1v1h-1zM399 98h1v1h-1zM399 99h1v1h-1zM408 91h1v1h-1zM409 91h1v1h-1zM410 91h1v1h-1zM411 91h1v1h-1zM412 91h1v1h-1zM408 92h1v1h-1zM409 92h1v1h-1zM412 92h1v1h-1zM413 92h1v1h-1zM408 93h1v1h-1zM409 93h1v1h-1zM412 93h1v1h-1zM413 93h1v1h-1zM408 94h1v1h-1zM409 94h1v1h-1zM412 94h1v1h-1zM413 94h1v1h-1zM408 95h1v1h-1zM409 95h1v1h-1zM410 95h1v1h-1zM411 95h1v1h-1zM412 95h1v1h-1zM408 96h1v1h-1zM409 96h1v1h-1zM412 96h1v1h-1zM413 96h1v1h-1zM408 97h1v1h-1zM409 97h1v1h-1zM412 97h1v1h-1zM413 97h1v1h-1zM408 98h1v1h-1zM409 98h1v1h-1zM412 98h1v1h-1zM413 98h1v1h-1zM408 99h1v1h-1zM409 99h1v1h-1zM410 99h1v1h-1zM411 99h1v1h-1zM412 99h1v1h-1zM416 91h1v1h-1zM417 91h1v1h-1zM418 91h1v1h-1zM419 91h1v1h-1zM415 92h1v1h-1zM416 92h1v1h-1zM419 92h1v1h-1zM420 92h1v1h-1zM415 93h1v1h-1zM416 93h1v1h-1zM419 93h1v1h-1zM420 93h1v1h-1zM415 94h1v1h-1zM416 94h1v1h-1zM419 94h1v1h-1zM420 94h1v1h-1zM415 95h1v1h-1zM416 95h1v1h-1zM417 95h1v1h-1zM418 95h1v1h-1zM419 95h1v1h-1zM420 95h1v1h-1zM415 96h1v1h-1zM416 96h1v1h-1zM419 96h1v1h-1zM420 96h1v1h-1zM415 97h1v1h-1zM416 97h1v1h-1zM419 97h1v1h-1zM420 97h1v1h-1zM415 98h1v1h-1zM416 98h1v1h-1zM419 98h1v1h-1zM420 98h1v1h-1zM415 99h1v1h-1zM416 99h1v1h-1zM419 99h1v1h-1zM420 99h1v1h-1zM423 91h1v1h-1zM424 91h1v1h-1zM425 91h1v1h-1zM426 91h1v1h-1zM422 92h1v1h-1zM423 92h1v1h-1zM426 92h1v1h-1zM427 92h1v1h-1zM422 93h1v1h-1zM423 93h1v1h-1zM426 93h1v1h-1zM427 93h1v1h-1zM422 94h1v1h-1zM423 94h1v1h-1zM422 95h1v1h-1zM423 95h1v1h-1zM422 96h1v1h-1zM423 96h1v1h-1zM422 97h1v1h-1zM423 97h1v1h-1zM426 97h1v1h-1zM427 97h1v1h-1zM422 98h1v1h-1zM423 98h1v1h-1zM426 98h1v1h-1zM427 98h1v1h-1zM423 99h1v1h-1zM424 99h1v1h-1zM425 99h1v1h-1zM426 99h1v1h-1zM429 91h1v1h-1zM430 91h1v1h-1zM433 91h1v1h-1zM434 91h1v1h-1zM429 92h1v1h-1zM430 92h1v1h-1zM433 92h1v1h-1zM434 92h1v1h-1zM429 93h1v1h-1zM430 93h1v1h-1zM433 93h1v1h-1zM434 93h1v1h-1zM429 94h1v1h-1zM430 94h1v1h-1zM432 94h1v1h-1zM433 94h1v1h-1zM429 95h1v1h-1zM430 95h1v1h-1zM431 95h1v1h-1zM432 95h1v1h-1zM429 96h1v1h-1zM430 96h1v1h-1zM432 96h1v1h-1zM433 96h1v1h-1zM429 97h1v1h-1zM430 97h1v1h-1zM433 97h1v1h-1zM434 97h1v1h-1zM429 98h1v1h-1zM430 98h1v1h-1zM433 98h1v1h-1zM434 98h1v1h-1zM429 99h1v1h-1zM430 99h1v1h-1zM433 99h1v1h-1zM434 99h1v1h-1z"/>
</g>
</svg>