<svg xmlns="http://www.w3.org/2000/svg" viewBox="0 0 480 320" width="480" height="320" shape-rendering="crispEdges">
<rect x="0" y="0" width="480" height="320" fill="#000000"/>
<rect x="389" y="1" width="91" height="1" fill="#ffffff"/>
<rect x="389" y="1" width="1" height="38" fill="#808080"/>
<rect x="479" y="1" width="1" height="38" fill="#ffffff"/>
<rect x="389" y="38" width="91" height="1" fill="#808080"/>
<rect x="390" y="2" width="89" height="36" fill="#e6e6e6"/>
<g data-font="x7x11b">
<path fill="#000000" d="M397 15h1v1h-1zM398 15h1v1h-1zM399 15h1v1h-1zM400 15h1v1h-1zM396 16h1v1h-1zM397 16h1v1h-1zM400 16h1v1h-1zM401 16h1v1h-1zM396 17h1v1h-1zM397 17h1v1h-1zM400 17h1v1h-1zM401 17h1v1h-1zM397 18h1v1h-1zM398 18h1v1h-1zM398 19h1v1h-1zM399 19h1v1h-1zM399 20h1v1h-1zM400 20h1v1h-1zM396 21h1v1h-1zM397 21h1v1h-1zM400 21h1v1h-1zM401 21h1v1h-1zM396 22h1v1h-1zM397 22h1v1h-1zM400 22h1v1h-1zM401 22h1v1h-1zM397 23h1v1h-1zM398 23h1v1h-1zM399 23h1v1h-1zM400 23h1v1h-1zM403 15h1v1h-1zM404 15h1v1h-1zM405 15h1v1h-1zM406 15h1v1h-1zM407 15h1v1h-1zM408 15h1v1h-1zM403 16h1v1h-1zM404 16h1v1h-1zM403 17h1v1h-1zM404 17h1v1h-1zM403 18h1v1h-1zM404 18h1v1h-1zM403 19h1v1h-1zM404 19h1v1h-1zM405 19h1v1h-1zM406 19h1v1h-1zM407 19h1v1h-1zM403 20h1v1h-1zM404 20h1v1h-1zM403 21h1v1h-1zM404 21h1v1h-1zM403 22h1v1h-1zM404 22h1v1h-1zM403 23h1v1h-1zM404 23h1v1h-1zM405 23h1v1h-1zM406 23h1v1h-1zM407 23h1v1h-1zM408 23h1v1h-1zM410 15h1v1h-1zM411 15h1v1h-1zM412 15h1v1h-1zM413 15h1v1h-1zM414 15h1v1h-1zM415 15h1v1h-1zM410 16h1v1h-1zM412 16h1v1h-1zM413 16h1v1h-1zM415 16h1v1h-1zM412 17h1v1h-1zM413 17h1v1h-1zM412 18h1v1h-1zM413 18h1v1h-1zM412 19h1v1h-1zM413 19h1v1h-1zM412 20h1v1h-1zM413 20h1v1h-1zM412 21h1v1h-1zM413 21h1v1h-1zM412 22h1v1h-1zM413 22h1v1h-1zM412 23h1v1h-1zM413 23h1v1h-1zM421 15h1v1h-1zM422 15h1v1h-1zM423 15h1v1h-1zM424 15h1v1h-1zM425 15h1v1h-1zM421 16h1v1h-1zM422 16h1v1h-1zM425 16h1v1h-1zM426 16h1v1h-1zM421 17h1v1h-1zM422 17h1v1h-1zM425 17h1v1h-1zM426 17h1v1h-1zM421 18h1v1h-1zM422 18h1v1h-1zM425 18h1v1h-1zM426 18h1v1h-1zM421 19h1v1h-1zM422 19h1v1h-1zM425 19h1v1h-1zM426 19h1v1h-1zM421 20h1v1h-1zM422 20h1v1h-1zM425 20h1v1h-1zM426 20h1v1h-1zM421 21h1v1h-1zM422 21h1v1h-1zM425 21h1v1h-1zM426 21h1v1h-1zM421 22h1v1h-1zM422 22h1v1h-1zM425 22h1v1h-1zM426 22h1v1h-1zM421 23h1v1h-1zM422 23h1v1h-1zM423 23h1v1h-1zM424 23h1v1h-1zM425 23h1v1h-1zM429 15h1v1h-1zM430 15h1v1h-1zM431 15h1v1h-1zM432 15h1v1h-1zM428 16h1v1h-1zM429 16h1v1h-1zM432 16h1v1h-1zM433 16h1v1h-1zM428 17h1v1h-1zM429 17h1v1h-1zM432 17h1v1h-1zM433 17h1v1h-1zM428 18h1v1h-1zM429 18h1v1h-1zM432 18h1v1h-1zM433 18h1v1h-1zM428 19h1v1h-1zM429 19h1v1h-1zM430 19h1v1h-1zM431 19h1v1h-1zM432 19h1v1h-1zM433 19h1v1h-1zM428 20h1v1h-1zM429 20h1v1h-1zM432 20h1v1h-1zM433 20h1v1h-1zM428 21h1v1h-1zM429 21h1v1h-1zM432 21h1v1h-1zM433 21h1v1h-1zM428 22h1v1h-1zM429 22h1v1h-1zM432 22h1v1h-1zM433 22h1v1h-1zM428 23h1v1h-1zM429 23h1v1h-1zM432 23h1v1h-1zM433 23h1v1h-1zM435 15h1v1h-1zM436 15h1v1h-1zM437 15h1v1h-1zM438 15h1v1h-1zM439 15h1v1h-1zM440 15h1v1h-1zM435 16h1v1h-1zM437 16h1v1h-1zM438 16h1v1h-1zM440 16h1v1h-1zM437 17h1v1h-1zM438 17h1v1h-1zM437 18h1v1h-1zM438 18h1v1h-1zM437 19h1v1h-1zM438 19h1v1h-1zM437 20h1v1h-1zM438 20h1v1h-1zM437 21h1v1h-1zM438 21h1v1h-1zM437 22h1v1h-1zM438 22h1v1h-1zM437 23h1v1h-1zM438 23h1v1h-1zM442 15h1v1h-1zM443 15h1v1h-1zM444 15h1v1h-1zM445 15h1v1h-1zM446 15h1v1h-1zM447 15h1v1h-1zM442 16h1v1h-1zM443 16h1v1h-1zM442 17h1v1h-1zM443 17h1v1h-1zM442 18h1v1h-1zM443 18h1v1h-1zM442 19h1v1h-1zM443 19h1v1h-1zM444 19h1v1h-1zM445 19h1v1h-1zM446 19h1v1h-1zM442 20h1v1h-1zM443 20h1v1h-1zM442 21h1v1h-1zM443 21h1v1h-1zM442 22h1v1h-1zM443 22h1v1h-1zM442 23h1v1h-1zM443 23h1v1h-1zM444 23h1v1h-1zM445 23h1v1h-1zM446 23h1v1h-1zM447 23h1v1h-1z"/>
</g>
<rect x="389" y="39" width="91" height="1" fill="#ffffff"/>
<rect x="389" y="39" width="1" height="38" fill="#808080"/>
<rect x="479" y="39" width="1" height="38" fill="#ffffff"/>
<rect x="389" y="76" width="91" height="1" fill="#808080"/>
<rect x="390" y="40" width="89" height="36" fill="#e6e6e6"/>
<g data-font="x7x11b">
<path fill="#000000" d="M397 53h1v1h-1zM398 53h1v1h-1zM399 53h1v1h-1zM400 53h1v1h-1zM396 54h1v1h-1zM397 54h1v1h-1zM400 54h1v1h-1zM401 54h1v1h-1zM396 55h1v1h-1zM397 55h1v1h-1zM400 55h1v1h-1zM401 55h1v1h-1zM397 56h1v1h-1zM398 56h1v1h-1zM398 57h1v1h-1zM399 57h1v1h-1zM399 58h1v1h-1zM400 58h1v1h-1zM396 59h1v1h-1zM397 59h1v1h-1zM400 59h1v1h-1zM401 59h1v1h-1zM396 60h1v1h-1zM397 60h1v1h-1zM400 60h1v1h-1zM401 60h1v1h-1zM397 61h1v1h-1zM398 61h1v1h-1zM399 61h1v1h-1zM400 61h1v1h-1zM403 53h1v1h-1zM404 53h1v1h-1zM405 53h1v1h-1zM406 53h1v1h-1zM407 53h1v1h-1zM408 53h1v1h-1zM403 54h1v1h-1zM404 54h1v1h-1zM403 55h1v1h-1zM404 55h1v1h-1zM403 56h1v1h-1zM404 56h1v1h-1zM403 57h1v1h-1zM404 57h1v1h-1zM405 57h1v1h-1zM406 57h1v1h-1zM407 57h1v1h-1zM403 58h1v1h-1zM404 58h1v1h-1zM403 59h1v1h-1zM404 59h1v1h-1zM403 60h1v1h-1zM404 60h1v1h-1zM403 61h1v1h-1zM404 61h1v1h-1zM405 61h1v1h-1zM406 61h1v1h-1zM407 61h1v1h-1zM408 61h1v1h-1zM410 53h1v1h-1zM411 53h1v1h-1zM412 53h1v1h-1zM413 53h1v1h-1zM414 53h1v1h-1zM415 53h1v1h-1zM410 54h1v1h-1zM412 54h1v1h-1zM413 54h1v1h-1zM415 54h1v1h-1zM412 55h1v1h-1zM413 55h1v1h-1zM412 56h1v1h-1zM413 56h1v1h-1zM412 57h1v1h-1zM413 57h1v1h-1zM412 58h1v1h-1zM413 58h1v1h-1zM412 59h1v1h-1zM413 59h1v1h-1zM412 60h1v1h-1zM413 60h1v1h-1zM412 61h1v1h-1zM413 61h1v1h-1zM421 53h1v1h-1zM422 53h1v1h-1zM423 53h1v1h-1zM424 53h1v1h-1zM425 53h1v1h-1zM426 53h1v1h-1zM421 54h1v1h-1zM423 54h1v1h-1zM424 54h1v1h-1zM426 54h1v1h-1zM423 55h1v1h-1zM424 55h1v1h-1zM423 56h1v1h-1zM424 56h1v1h-1zM423 57h1v1h-1zM424 57h1v1h-1zM423 58h1v1h-1zM424 58h1v1h-1zM423 59h1v1h-1zM424 59h1v1h-1zM423 60h1v1h-1zM424 60h1v1h-1zM423 61h1v1h-1zM424 61h1v1h-1zM428 53h1v1h-1zM429 53h1v1h-1zM430 53h1v1h-1zM431 53h1v1h-1zM429 54h1v1h-1zM430 54h1v1h-1zM429 55h1v1h-1zM430 55h1v1h-1zM429 56h1v1h-1zM430 56h1v1h-1zM429 57h1v1h-1zM430 57h1v1h-1zM429 58h1v1h-1zM430 58h1v1h-1zM429 59h1v1h-1zM430 59h1v1h-1zM429 60h1v1h-1zM430 60h1v1h-1zM428 61h1v1h-1zM429 61h1v1h-1zM430 61h1v1h-1zM431 61h1v1h-1zM433 53h1v1h-1zM434 53h1v1h-1zM438 53h1v1h-1zM439 53h1v1h-1zM433 54h1v1h-1zM434 54h1v1h-1zM438 54h1v1h-1zM439 54h1v1h-1zM433 55h1v1h-1zM434 55h1v1h-1zM435 55h1v1h-1zM437 55h1v1h-1zM438 55h1v1h-1zM439 55h1v1h-1zM433 56h1v1h-1zM434 56h1v1h-1zM435 56h1v1h-1zM437 56h1v1h-1zM438 56h1v1h-1zM439 56h1v1h-1zM433 57h1v1h-1zM434 57h1v1h-1zM436 57h1v1h-1zM438 57h1v1h-1zM439 57h1v1h-1zM433 58h1v1h-1zM434 58h1v1h-1zM436 58h1v1h-1zM438 58h1v1h-1zM439 58h1v1h-1zM433 59h1v1h-1zM434 59h1v1h-1zM436 59h1v1h-1zM438 59h1v1h-1zM439 59h1v1h-1zM433 60h1v1h-1zM434 60h1v1h-1zM438 60h1v1h-1zM439 60h1v1h-1zM433 61h1v1h-1zM434 61h1v1h-1zM438 61h1v1h-1zM439 61h1v1h-1zM441 53h1v1h-1zM442 53h1v1h-1zM443 53h1v1h-1zM444 53h1v1h-1zM445 53h1v1h-1zM446 53h1v1h-1zM441 54h1v1h-1zM442 54h1v1h-1zM441 55h1v1h-1zM442 55h1v1h-1zM441 56h1v1h-1zM442 56h1v1h-1zM441 57h1v1h-1zM442 57h1v1h-1zM443 57h1v1h-1zM444 57h1v1h-1zM445 57h1v1h-1zM441 58h1v1h-1zM442 58h1v1h-1zM441 59h1v1h-1zM442 59h1v1h-1zM441 60h1v1h-1zM442 60h1v1h-1zM441 61h1v1h-1zM442 61h1v1h-1zM443 61h1v1h-1zM444 61h1v1h-1zM445 61h1v1h-1zM446 61h1v1h-1z"/>
</g>
<rect x="389" y="77" width="91" height="1" fill="#ffffff"/>
<rect x="389" y="77" width="1" height="38" fill="#808080"/>
<rect x="479" y="77" width="1" height="38" fill="#ffffff"/>
<rect x="389" y="114" width="91" height="1" fill="#808080"/>
<rect x="390" y="78" width="89" height="36" fill="#e6e6e6"/>
<g data-font="x7x11b">
<path fill="#000000" d="M396 86h1v1h-1zM397 86h1v1h-1zM398 86h1v1h-1zM399 86h1v1h-1zM400 86h1v1h-1zM396 87h1v1h-1zM397 87h1v1h-1zM400 87h1v1h-1zM401 87h1v1h-1zM396 88h1v1h-1zM397 88h1v1h-1zM400 88h1v1h-1zM401 88h1v1h-1zM396 89h1v1h-1zM397 89h1v1h-1zM400 89h1v1h-1zM401 89h1v1h-1zM396 90h1v1h-1zM397 90h1v1h-1zM398 90h1v1h-1zM399 90h1v1h-1zM400 90h1v1h-1zM396 91h1v1h-1zM397 91h1v1h-1zM399 91h1v1h-1zM400 91h1v1h-1zM396 92h1v1h-1zM397 92h1v1h-1zM400 92h1v1h-1zM401 92h1v1h-1zM396 93h1v1h-1zM397 93h1v1h-1zM400 93h1v1h-1zM401 93h1v1h-1zM396 94h1v1h-1zM397 94h1v1h-1zM400 94h1v1h-1zM401 94h1v1h-1zM403 86h1v1h-1zM404 86h1v1h-1zM405 86h1v1h-1zM406 86h1v1h-1zM407 86h1v1h-1zM408 86h1v1h-1zM403 87h1v1h-1zM405 87h1v1h-1zM406 87h1v1h-1zM408 87h1v1h-1zM405 88h1v1h-1zM406 88h1v1h-1zM405 89h1v1h-1zM406 89h1v1h-1zM405 90h1v1h-1zM406 90h1v1h-1zM405 91h1v1h-1zM406 91h1v1h-1zM405 92h1v1h-1zM406 92h1v1h-1zM405 93h1v1h-1zM406 93h1v1h-1zM405 94h1v1h-1zM406 94h1v1h-1zM411 86h1v1h-1zM412 86h1v1h-1zM413 86h1v1h-1zM414 86h1v1h-1zM410 87h1v1h-1zM411 87h1v1h-1zM414 87h1v1h-1zM415 87h1v1h-1zM410 88h1v1h-1zM411 88h1v1h-1zM414 88h1v1h-1zM415 88h1v1h-1zM410 89h1v1h-1zM411 89h1v1h-1zM410 90h1v1h-1zM411 90h1v1h-1zM410 91h1v1h-1zM411 91h1v1h-1zM410 92h1v1h-1zM411 92h1v1h-1zM414 92h1v1h-1zM415 92h1v1h-1zM410 93h1v1h-1zM411 93h1v1h-1zM414 93h1v1h-1zM415 93h1v1h-1zM411 94h1v1h-1zM412 94h1v1h-1zM413 94h1v1h-1zM414 94h1v1h-1zM422 86h1v1h-1zM423 86h1v1h-1zM424 86h1v1h-1zM425 86h1v1h-1zM421 87h1v1h-1zM422 87h1v1h-1zM425 87h1v1h-1zM426 87h1v1h-1zM421 88h1v1h-1zM422 88h1v1h-1zM425 88h1v1h-1zM426 88h1v1h-1zM421 89h1v1h-1zM422 89h1v1h-1zM421 90h1v1h-1zM422 90h1v1h-1zM421 91h1v1h-1zM422 91h1v1h-1zM421 92h1v1h-1zM422 92h1v1h-1zM425 92h1v1h-1zM426 92h1v1h-1zM421 93h1v1h-1zM422 93h1v1h-1zM425 93h1v1h-1zM426 93h1v1h-1zM422 94h1v1h-1zM423 94h1v1h-1zM424 94h1v1h-1zM425 94h1v1h-1zM429 86h1v1h-1zM430 86h1v1h-1zM431 86h1v1h-1zM432 86h1v1h-1zM428 87h1v1h-1zM429 87h1v1h-1zM432 87h1v1h-1zM433 87h1v1h-1zM428 88h1v1h-1zM429 88h1v1h-1zM432 88h1v1h-1zM433 88h1v1h-1zM428 89h1v1h-1zM429 89h1v1h-1zM432 89h1v1h-1zM433 89h1v1h-1zM428 90h1v1h-1zM429 90h1v1h-1zM430 90h1v1h-1zM431 90h1v1h-1zM432 90h1v1h-1zM433 90h1v1h-1zM428 91h1v1h-1zM429 91h1v1h-1zM432 91h1v1h-1zM433 91h1v1h-1zM428 92h1v1h-1zM429 92h1v1h-1zM432 92h1v1h-1zM433 92h1v1h-1zM428 93h1v1h-1zM429 93h1v1h-1zM432 93h1v1h-1zM433 93h1v1h-1zM428 94h1v1h-1zM429 94h1v1h-1zM432 94h1v1h-1zM433 94h1v1h-1zM435 86h1v1h-1zM436 86h1v1h-1zM435 87h1v1h-1zM436 87h1v1h-1zM435 88h1v1h-1zM436 88h1v1h-1zM435 89h1v1h-1zM436 89h1v1h-1zM435 90h1v1h-1zM436 90h1v1h-1zM435 91h1v1h-1zM436 91h1v1h-1zM435 92h1v1h-1zM436 92h1v1h-1zM435 93h1v1h-1zM436 93h1v1h-1zM435 94h1v1h-1zM436 94h1v1h-1zM437 94h1v1h-1zM438 94h1v1h-1zM439 94h1v1h-1zM440 94h1v1h-1z"/>

<path fill="#0000c0" d="M402 99h1v1h-1zM403 99h1v1h-1zM402 100h1v1h-1zM403 100h1v1h-1zM400 101h1v1h-1zM401 101h1v1h-1zM402 101h1v1h-1zM403 101h1v1h-1zM404 101h1v1h-1zM405 101h1v1h-1zM400 102h1v1h-1zM401 102h1v1h-1zM402 102h1v1h-1zM403 102h1v1h-1zM404 102h1v1h-1zM405 102h1v1h-1zM402 103h1v1h-1zM403 103h1v1h-1zM402 104h1v1h-1zM403 104h1v1h-1zM408 97h1v1h-1zM409 97h1v1h-1zM410 97h1v1h-1zM411 97h1v1h-1zM407 98h1v1h-1zM408 98h1v1h-1zM411 98h1v1h-1zM412 98h1v1h-1zM407 99h1v1h-1zM408 99h1v1h-1zM411 99h1v1h-1zM412 99h1v1h-1zM407 100h1v1h-1zM408 100h1v1h-1zM410 100h1v1h-1zM411 100h1v1h-1zM412 100h1v1h-1zM407 101h1v1h-1zM408 101h1v1h-1zM409 101h1v1h-1zM411 101h1v1h-1zM412 101h1v1h-1zM407 102h1v1h-1zM408 102h1v1h-1zM411 102h1v1h-1zM412 102h1v1h-1zM407 103h1v1h-1zM408 103h1v1h-1zM411 103h1v1h-1zM412 103h1v1h-1zM407 104h1v1h-1zM408 104h1v1h-1zM411 104h1v1h-1zM412 104h1v1h-1zM408 105h1v1h-1zM409 105h1v1h-1zM410 105h1v1h-1zM411 105h1v1h-1zM415 103h1v1h-1zM414 104h1v1h-1zM415 104h1v1h-1zM416 104h1v1h-1zM415 105h1v1h-1zM419 97h1v1h-1zM420 97h1v1h-1zM421 97h1v1h-1zM422 97h1v1h-1zM418 98h1v1h-1zM419 98h1v1h-1zM422 98h1v1h-1zM423 98h1v1h-1zM418 99h1v1h-1zM419 99h1v1h-1zM422 99h1v1h-1zM423 99h1v1h-1zM418 100h1v1h-1zM419 100h1v1h-1zM421 100h1v1h-1zM422 100h1v1h-1zM423 100h1v1h-1zM418 101h1v1h-1zM419 101h1v1h-1zM420 101h1v1h-1zM422 101h1v1h-1zM423 101h1v1h-1zM418 102h1v1h-1zM419 102h1v1h-1zM422 102h1v1h-1zM423 102h1v1h-1zM418 103h1v1h-1zM419 103h1v1h-1zM422 103h1v1h-1zM423 103h1v1h-1zM418 104h1v1h-1zM419 104h1v1h-1zM422 104h1v1h-1zM423 104h1v1h-1zM419 105h1v1h-1zM420 105h1v1h-1zM421 105h1v1h-1zM422 105h1v1h-1zM426 97h1v1h-1zM427 97h1v1h-1zM428 97h1v1h-1zM429 97h1v1h-1zM425 98h1v1h-1zM426 98h1v1h-1zM429 98h1v1h-1zM430 98h1v1h-1zM425 99h1v1h-1zM426 99h1v1h-1zM429 99h1v1h-1zM430 99h1v1h-1zM425 100h1v1h-1zM426 100h1v1h-1zM428 100h1v1h-1zM429 100h1v1h-1zM430 100h1v1h-1zM425 101h1v1h-1zM426 101h1v1h-1zM427 101h1v1h-1zM429 101h1v1h-1zM430 101h1v1h-1zM425 102h1v1h-1zM426 102h1v1h-1zM429 102h1v1h-1zM430 102h1v1h-1zM425 103h1v1h-1zM426 103h1v1h-1zM429 103h1v1h-1zM430 103h1v1h-1zM425 104h1v1h-1zM426 104h1v1h-1zM429 104h1v1h-1zM430 104h1v1h-1zM426 105h1v1h-1zM427 105h1v1h-1zM428 105h1v1h-1zM429 105h1v1h-1zM433 97h1v1h-1zM434 97h1v1h-1zM435 97h1v1h-1zM436 97h1v1h-1zM432 98h1v1h-1zM433 98h1v1h-1zM436 98h1v1h-1zM437 98h1v1h-1zM432 99h1v1h-1zM433 99h1v1h-1zM436 99h1v1h-1zM437 99h1v1h-1zM432 100h1v1h-1zM433 100h1v1h-1zM435 100h1v1h-1zM436 100h1v1h-1zM437 100h1v1h-1zM432 101h1v1h-1zM433 101h1v1h-1zM434 101h1v1h-1zM436 101h1v1h-1zM437 101h1v1h-1zM432 102h1v1h-1zM433 102h1v1h-1zM436 102h1v1h-1zM437 102h1v1h-1zM432 103h1v1h-1zM433 103h1v1h-1zM436 103h1v1h-1zM437 103h1v1h-1zM432 104h1v1h-1zM433 104h1v1h-1zM436 104h1v1h-1zM437 104h1v1h-1zM433 105h1v1h-1zM434 105h1v1h-1zM435 105h1v1h-1zM436 105h1v1h-1zM439 100h1v1h-1zM440 100h1v1h-1zM442 100h1v1h-1zM443 100h1v1h-1zM439 101h1v1h-1zM440 101h1v1h-1zM441 101h1v1h-1zM443 101h1v1h-1zM444 101h1v1h-1zM439 102h1v1h-1zM440 102h1v1h-1zM443 102h1v1h-1zM444 102h1v1h-1zM439 103h1v1h-1zM440 103h1v1h-1zM443 103h1v1h-1zM444 103h1v1h-1zM439 104h1v1h-1zM440 104h1v1h-1zM441 104h1v1h-1zM442 104h1v1h-1zM443 104h1v1h-1zM439 105h1v1h-1zM440 105h1v1h-1zM439 106h1v1h-1zM440 106h1v1h-1zM446 100h1v1h-1zM447 100h1v1h-1zM449 100h1v1h-1zM450 100h1v1h-1zM446 101h1v1h-1zM447 101h1v1h-1zM448 101h1v1h-1zM450 101h1v1h-1zM451 101h1v1h-1zM446 102h1v1h-1zM447 102h1v1h-1zM450 102h1v1h-1zM451 102h1v1h-1zM446 103h1v1h-1zM447 103h1v1h-1zM450 103h1v1h-1zM451 103h1v1h-1zM446 104h1v1h-1zM447 104h1v1h-1zM448 104h1v1h-1zM449 104h1v1h-1zM450 104h1v1h-1zM446 105h1v1h-1zM447 105h1v1h-1zM446 106h1v1h-1zM447 106h1v1h-1zM453 100h1v1h-1zM454 100h1v1h-1zM455 100h1v1h-1zM457 100h1v1h-1zM458 100h1v1h-1zM453 101h1v1h-1zM454 101h1v1h-1zM455 101h1v1h-1zM456 101h1v1h-1zM457 101h1v1h-1zM458 101h1v1h-1zM459 101h1v1h-1zM453 102h1v1h-1zM454 102h1v1h-1zM456 102h1v1h-1zM458 102h1v1h-1zM459 102h1v1h-1zM453 103h1v1h-1zM454 103h1v1h-1zM456 103h1v1h-1zM458 103h1v1h-1zM459 103h1v1h-1zM453 104h1v1h-1zM454 104h1v1h-1zM456 104h1v1h-1zM458 104h1v1h-1zM459 104h1v1h-1zM453 105h1v1h-1zM454 105h1v1h-1zM456 105h1v1h-1zM458 105h1v1h-1zM459 105h1v1h-1z"/>
</g>
<rect x="389" y="115" width="91" height="1" fill="#ffffff"/>
<rect x="389" y="115" width="1" height="38" fill="#808080"/>
<rect x="479" y="115" width="1" height="38" fill="#ffffff"/>
<rect x="389" y="152" width="91" height="1" fill="#808080"/>
<rect x="390" y="116" width="89" height="36" fill="#e6e6e6"/>
<g data-font="x7x11b">
<path fill="#000000" d="M396 124h1v1h-1zM397 124h1v1h-1zM398 124h1v1h-1zM399 124h1v1h-1zM400 124h1v1h-1zM396 125h1v1h-1zM397 125h1v1h-1zM400 125h1v1h-1zM401 125h1v1h-1zM396 126h1v1h-1zM397 126h1v1h-1zM400 126h1v1h-1zM401 126h1v1h-1zM396 127h1v1h-1zM397 127h1v1h-1zM400 127h1v1h-1zM401 127h1v1h-1zM396 128h1v1h-1zM397 128h1v1h-1zM398 128h1v1h-1zM399 128h1v1h-1zM400 128h1v1h-1zM396 129h1v1h-1zM397 129h1v1h-1zM399 129h1v1h-1zM400 129h1v1h-1zM396 130h1v1h-1zM397 130h1v1h-1zM400 130h1v1h-1zM401 130h1v1h-1zM396 131h1v1h-1zM397 131h1v1h-1zM400 131h1v1h-1zM401 131h1v1h-1zM396 132h1v1h-1zM397 132h1v1h-1zM400 132h1v1h-1zM401 132h1v1h-1zM403 124h1v1h-1zM404 124h1v1h-1zM405 124h1v1h-1zM406 124h1v1h-1zM407 124h1v1h-1zM408 124h1v1h-1zM403 125h1v1h-1zM405 125h1v1h-1zM406 125h1v1h-1zM408 125h1v1h-1zM405 126h1v1h-1zM406 126h1v1h-1zM405 127h1v1h-1zM406 127h1v1h-1zM405 128h1v1h-1zM406 128h1v1h-1zM405 129h1v1h-1zM406 129h1v1h-1zM405 130h1v1h-1zM406 130h1v1h-1zM405 131h1v1h-1zM406 131h1v1h-1zM405 132h1v1h-1zM406 132h1v1h-1zM411 124h1v1h-1zM412 124h1v1h-1zM413 124h1v1h-1zM414 124h1v1h-1zM410 125h1v1h-1zM411 125h1v1h-1zM414 125h1v1h-1zM415 125h1v1h-1zM410 126h1v1h-1zM411 126h1v1h-1zM414 126h1v1h-1zM415 126h1v1h-1zM410 127h1v1h-1zM411 127h1v1h-1zM410 128h1v1h-1zM411 128h1v1h-1zM410 129h1v1h-1zM411 129h1v1h-1zM410 130h1v1h-1zM411 130h1v1h-1zM414 130h1v1h-1zM415 130h1v1h-1zM410 131h1v1h-1zM411 131h1v1h-1zM414 131h1v1h-1zM415 131h1v1h-1zM411 132h1v1h-1zM412 132h1v1h-1zM413 132h1v1h-1zM414 132h1v1h-1zM421 124h1v1h-1zM422 124h1v1h-1zM423 124h1v1h-1zM424 124h1v1h-1zM425 124h1v1h-1zM426 124h1v1h-1zM421 125h1v1h-1zM422 125h1v1h-1zM421 126h1v1h-1zM422 126h1v1h-1zM421 127h1v1h-1zM422 127h1v1h-1zM423 127h1v1h-1zM424 127h1v1h-1zM425 127h1v1h-1zM421 128h1v1h-1zM422 128h1v1h-1zM425 128h1v1h-1zM426 128h1v1h-1zM425 129h1v1h-1zM426 129h1v1h-1zM425 130h1v1h-1zM426 130h1v1h-1zM421 131h1v1h-1zM422 131h1v1h-1zM425 131h1v1h-1zM426 131h1v1h-1zM422 132h1v1h-1zM423 132h1v1h-1zM424 132h1v1h-1zM425 132h1v1h-1zM430 124h1v1h-1zM431 124h1v1h-1zM429 125h1v1h-1zM430 125h1v1h-1zM431 125h1v1h-1zM428 126h1v1h-1zM430 126h1v1h-1zM431 126h1v1h-1zM430 127h1v1h-1zM431 127h1v1h-1zM430 128h1v1h-1zM431 128h1v1h-1zM430 129h1v1h-1zM431 129h1v1h-1zM430 130h1v1h-1zM431 130h1v1h-1zM430 131h1v1h-1zM431 131h1v1h-1zM428 132h1v1h-1zM429 132h1v1h-1zM430 132h1v1h-1zM431 132h1v1h-1zM432 132h1v1h-1zM433 132h1v1h-1zM436 124h1v1h-1zM437 124h1v1h-1zM438 124h1v1h-1zM439 124h1v1h-1zM435 125h1v1h-1zM436 125h1v1h-1zM439 125h1v1h-1zM440 125h1v1h-1zM435 126h1v1h-1zM436 126h1v1h-1zM439 126h1v1h-1zM440 126h1v1h-1zM439 127h1v1h-1zM440 127h1v1h-1zM437 128h1v1h-1zM438 128h1v1h-1zM439 128h1v1h-1zM436 129h1v1h-1zM437 129h1v1h-1zM435 130h1v1h-1zM436 130h1v1h-1zM435 131h1v1h-1zM436 131h1v1h-1zM435 132h1v1h-1zM436 132h1v1h-1zM437 132h1v1h-1zM438 132h1v1h-1zM439 132h1v1h-1zM440 132h1v1h-1zM442 124h1v1h-1zM443 124h1v1h-1zM446 124h1v1h-1zM447 124h1v1h-1zM442 125h1v1h-1zM443 125h1v1h-1zM446 125h1v1h-1zM447 125h1v1h-1zM442 126h1v1h-1zM443 126h1v1h-1zM446 126h1v1h-1zM447 126h1v1h-1zM442 127h1v1h-1zM443 127h1v1h-1zM446 127h1v1h-1zM447 127h1v1h-1zM442 128h1v1h-1zM443 128h1v1h-1zM444 128h1v1h-1zM445 128h1v1h-1zM446 128h1v1h-1zM447 128h1v1h-1zM442 129h1v1h-1zM443 129h1v1h-1zM446 129h1v1h-1zM447 129h1v1h-1zM442 130h1v1h-1zM443 130h1v1h-1zM446 130h1v1h-1zM447 130h1v1h-1zM442 131h1v1h-1zM443 131h1v1h-1zM446 131h1v1h-1zM447 131h1v1h-1zM442 132h1v1h-1zM443 132h1v1h-1zM446 132h1v1h-1zM447 132h1v1h-1zM449 127h1v1h-1zM450 127h1v1h-1zM451 127h1v1h-1zM452 127h1v1h-1zM453 127h1v1h-1zM454 127h1v1h-1zM453 128h1v1h-1zM454 128h1v1h-1zM452 129h1v1h-1zM453 129h1v1h-1zM450 130h1v1h-1zM451 130h1v1h-1zM449 131h1v1h-1zM450 131h1v1h-1zM449 132h1v1h-1zM450 132h1v1h-1zM451 132h1v1h-1zM452 132h1v1h-1zM453 132h1v1h-1zM454 132h1v1h-1z"/>
<path fill="#000000" d="M400 135h1v1h-1zM401 135h1v1h-1zM400 136h1v1h-1zM401 136h1v1h-1zM400 137h1v1h-1zM401 137h1v1h-1zM400 138h1v1h-1zM401 138h1v1h-1zM400 139h1v1h-1zM401 139h1v1h-1zM400 140h1v1h-1zM401 140h1v1h-1zM400 141h1v1h-1zM401 141h1v1h-1zM400 142h1v1h-1zM401 142h1v1h-1zM400 143h1v1h-1zM401 143h1v1h-1zM402 143h1v1h-1zM403 143h1v1h-1zM404 143h1v1h-1zM405 143h1v1h-1zM408 138h1v1h-1zM409 138h1v1h-1zM410 138h1v1h-1zM411 138h1v1h-1zM407 139h1v1h-1zM408 139h1v1h-1zM411 139h1v1h-1zM412 139h1v1h-1zM407 140h1v1h-1zM408 140h1v1h-1zM409 140h1v1h-1zM410 140h1v1h-1zM411 140h1v1h-1zM412 140h1v1h-1zM407 141h1v1h-1zM408 141h1v1h-1zM407 142h1v1h-1zM408 142h1v1h-1zM411 142h1v1h-1zM412 142h1v1h-1zM408 143h1v1h-1zM409 143h1v1h-1zM410 143h1v1h-1zM411 143h1v1h-1zM418 135h1v1h-1zM419 135h1v1h-1zM418 136h1v1h-1zM419 136h1v1h-1zM418 137h1v1h-1zM419 137h1v1h-1zM415 138h1v1h-1zM416 138h1v1h-1zM418 138h1v1h-1zM419 138h1v1h-1zM414 139h1v1h-1zM415 139h1v1h-1zM417 139h1v1h-1zM418 139h1v1h-1zM419 139h1v1h-1zM414 140h1v1h-1zM415 140h1v1h-1zM418 140h1v1h-1zM419 140h1v1h-1zM414 141h1v1h-1zM415 141h1v1h-1zM418 141h1v1h-1zM419 141h1v1h-1zM414 142h1v1h-1zM415 142h1v1h-1zM417 142h1v1h-1zM418 142h1v1h-1zM419 142h1v1h-1zM415 143h1v1h-1zM416 143h1v1h-1zM418 143h1v1h-1zM419 143h1v1h-1zM422 135h1v1h-1zM423 135h1v1h-1zM424 135h1v1h-1zM425 135h1v1h-1zM421 136h1v1h-1zM422 136h1v1h-1zM425 136h1v1h-1zM426 136h1v1h-1zM421 137h1v1h-1zM422 137h1v1h-1zM425 137h1v1h-1zM426 137h1v1h-1zM425 138h1v1h-1zM426 138h1v1h-1zM423 139h1v1h-1zM424 139h1v1h-1zM425 139h1v1h-1zM422 140h1v1h-1zM423 140h1v1h-1zM421 141h1v1h-1zM422 141h1v1h-1zM421 142h1v1h-1zM422 142h1v1h-1zM421 143h1v1h-1zM422 143h1v1h-1zM423 143h1v1h-1zM424 143h1v1h-1zM425 143h1v1h-1zM426 143h1v1h-1zM433 135h1v1h-1zM434 135h1v1h-1zM435 135h1v1h-1zM436 135h1v1h-1zM432 136h1v1h-1zM433 136h1v1h-1zM436 136h1v1h-1zM437 136h1v1h-1zM432 137h1v1h-1zM433 137h1v1h-1zM436 137h1v1h-1zM437 137h1v1h-1zM432 138h1v1h-1zM433 138h1v1h-1zM436 138h1v1h-1zM437 138h1v1h-1zM432 139h1v1h-1zM433 139h1v1h-1zM436 139h1v1h-1zM437 139h1v1h-1zM432 140h1v1h-1zM433 140h1v1h-1zM436 140h1v1h-1zM437 140h1v1h-1zM432 141h1v1h-1zM433 141h1v1h-1zM436 141h1v1h-1zM437 141h1v1h-1zM432 142h1v1h-1zM433 142h1v1h-1zM436 142h1v1h-1zM437 142h1v1h-1zM433 143h1v1h-1zM434 143h1v1h-1zM435 143h1v1h-1zM436 143h1v1h-1zM439 135h1v1h-1zM440 135h1v1h-1zM441 135h1v1h-1zM442 135h1v1h-1zM443 135h1v1h-1zM444 135h1v1h-1zM439 136h1v1h-1zM440 136h1v1h-1zM439 137h1v1h-1zM440 137h1v1h-1zM439 138h1v1h-1zM440 138h1v1h-1zM439 139h1v1h-1zM440 139h1v1h-1zM441 139h1v1h-1zM442 139h1v1h-1zM443 139h1v1h-1zM439 140h1v1h-1zM440 140h1v1h-1zM439 141h1v1h-1zM440 141h1v1h-1zM439 142h1v1h-1zM440 142h1v1h-1zM439 143h1v1h-1zM440 143h1v1h-1zM446 135h1v1h-1zM447 135h1v1h-1zM448 135h1v1h-1zM449 135h1v1h-1zM450 135h1v1h-1zM451 135h1v1h-1zM446 136h1v1h-1zM447 136h1v1h-1zM446 137h1v1h-1zM447 137h1v1h-1zM446 138h1v1h-1zM447 138h1v1h-1zM446 139h1v1h-1zM447 139h1v1h-1zM448 139h1v1h-1zM449 139h1v1h-1zM450 139h1v1h-1zM446 140h1v1h-1zM447 140h1v1h-1zM446 141h1v1h-1zM447 141h1v1h-1zM446 142h1v1h-1zM447 142h1v1h-1zM446 143h1v1h-1zM447 143h1v1h-1z"/>
</g>
<rect x="389" y="153" width="91" height="1" fill="#ffffff"/>
<rect x="389" y="153" width="1" height="38" fill="#808080"/>
<rect x="479" y="153" width="1" height="38" fill="#ffffff"/>
<rect x="389" y="190" width="91" height="1" fill="#808080"/>
<rect x="390" y="154" width="89" height="36" fill="#e6e6e6"/>
<g data-font="x7x11b">
<path fill="#000000" d="M399 168h1v1h-1zM398 169h1v1h-1zM399 169h1v1h-1zM397 170h1v1h-1zM398 170h1v1h-1zM396 171h1v1h-1zM397 171h1v1h-1zM398 171h1v1h-1zM399 171h1v1h-1zM400 171h1v1h-1zM401 171h1v1h-1zM402 171h1v1h-1zM396 172h1v1h-1zM397 172h1v1h-1zM398 172h1v1h-1zM399 172h1v1h-1zM400 172h1v1h-1zM401 172h1v1h-1zM402 172h1v1h-1zM397 173h1v1h-1zM398 173h1v1h-1zM398 174h1v1h-1zM399 174h1v1h-1zM399 175h1v1h-1zM408 167h1v1h-1zM409 167h1v1h-1zM410 167h1v1h-1zM411 167h1v1h-1zM412 167h1v1h-1zM408 168h1v1h-1zM409 168h1v1h-1zM412 168h1v1h-1zM413 168h1v1h-1zM408 169h1v1h-1zM409 169h1v1h-1zM412 169h1v1h-1zM413 169h1v1h-1zM408 170h1v1h-1zM409 170h1v1h-1zM412 170h1v1h-1zM413 170h1v1h-1zM408 171h1v1h-1zM409 171h1v1h-1zM410 171h1v1h-1zM411 171h1v1h-1zM412 171h1v1h-1zM408 172h1v1h-1zM409 172h1v1h-1zM412 172h1v1h-1zM413 172h1v1h-1zM408 173h1v1h-1zM409 173h1v1h-1zM412 173h1v1h-1zM413 173h1v1h-1zM408 174h1v1h-1zM409 174h1v1h-1zM412 174h1v1h-1zM413 174h1v1h-1zM408 175h1v1h-1zM409 175h1v1h-1zM410 175h1v1h-1zM411 175h1v1h-1zM412 175h1v1h-1zM416 167h1v1h-1zM417 167h1v1h-1zM418 167h1v1h-1zM419 167h1v1h-1zM415 168h1v1h-1zM416 168h1v1h-1zM419 168h1v1h-1zM420 168h1v1h-1zM415 169h1v1h-1zM416 169h1v1h-1zM419 169h1v1h-1zM420 169h1v1h-1zM415 170h1v1h-1zM416 170h1v1h-1zM419 170h1v1h-1zM420 170h1v1h-1zM415 171h1v1h-1zM416 171h1v1h-1zM417 171h1v1h-1zM418 171h1v1h-1zM419 171h1v1h-1zM420 171h1v1h-1zM415 172h1v1h-1zM416 172h1v1h-1zM419 172h1v1h-1zM420 172h1v1h-1zM415 173h1v1h-1zM416 173h1v1h-1zM419 173h1v1h-1zM420 173h1v1h-1zM415 174h1v1h-1zM416 174h1v1h-1zM419 174h1v1h-1zM420 174h1v1h-1zM415 175h1v1h-1zM416 175h1v1h-1zM419 175h1v1h-1zM420 175h1v1h-1zM423 167h1v1h-1zM424 167h1v1h-1zM425 167h1v1h-1zM426 167h1v1h-1zM422 168h1v1h-1zM423 168h1v1h-1zM426 168h1v1h-1zM427 168h1v1h-1zM422 169h1v1h-1zM423 169h1v1h-1zM426 169h1v1h-1zM427 169h1v1h-1zM422 170h1v1h-1zM423 170h1v1h-1zM422 171h1v1h-1zM423 171h1v1h-1zM422 172h1v1h-1zM423 172h1v1h-1zM422 173h1v1h-1zM423 173h1v1h-1zM426 173h1v1h-1zM427 173h1v1h-1zM422 174h1v1h-1zM423 174h1v1h-1zM426 174h1v1h-1zM427 174h1v1h-1zM423 175h1v1h-1zM424 175h1v1h-1zM425 175h1v1h-1zM426 175h1v1h-1zM429 167h1v1h-1zM430 167h1v1h-1zM433 167h1v1h-1zM434 167h1v1h-1zM429 168h1v1h-1zM430 168h1v1h-1zM433 168h1v1h-1zM434 168h1v1h-1zM429 169h1v1h-1zM430 169h1v1h-1zM433 169h1v1h-1zM434 169h1v1h-1zM429 170h1v1h-1zM430 170h1v1h-1zM432 170h1v1h-1zM433 170h1v1h-1zM429 171h1v1h-1zM430 171h1v1h-1zM431 171h1v1h-1zM432 171h1v1h-1zM429 172h1v1h-1zM430 172h1v1h-1zM432 172h1v1h-1zM433 172h1v1h-1zM429 173h1v1h-1zM430 173h1v1h-1zM433 173h1v1h-1zM434 173h1v1h-1zM429 174h1v1h-1zM430 174h1v1h-1zM433 174h1v1h-1zM434 174h1v1h-1zM429 175h1v1h-1zM430 175h1v1h-1zM433 175h1v1h-1zM434 175h1v1h-1z"/>
</g>
</svg>