<svg xmlns="http://www.w3.org/2000/svg" viewBox="0 0 320 240" width="320" height="240" shape-rendering="crispEdges">
<rect x="0" y="0" width="320" height="240" fill="#000000"/>
<rect x="241" y="1" width="79" height="1" fill="#ffffff"/>
<rect x="241" y="1" width="1" height="29" fill="#808080"/>
<rect x="319" y="1" width="1" height="29" fill="#ffffff"/>
<rect x="241" y="29" width="79" height="1" fill="#808080"/>
<rect x="242" y="2" width="77" height="27" fill="#e6e6e6"/>
<g data-font="x6x10">
<path fill="#000000" d="M248 5h1v1h-1zM248 6h1v1h-1zM248 7h1v1h-1zM248 8h1v1h-1zM248 9h1v1h-1zM248 10h1v1h-1zM248 11h1v1h-1zM248 12h1v1h-1zM248 13h1v1h-1zM249 13h1v1h-1zM250 13h1v1h-1zM251 13h1v1h-1zM252 13h1v1h-1zM255 5h1v1h-1zM256 5h1v1h-1zM257 5h1v1h-1zM254 6h1v1h-1zM258 6h1v1h-1zM254 7h1v1h-1zM258 7h1v1h-1zM254 8h1v1h-1zM258 8h1v1h-1zM254 9h1v1h-1zM258 9h1v1h-1zM254 10h1v1h-1zM258 10h1v1h-1zM254 11h1v1h-1zM258 11h1v1h-1zM254 12h1v1h-1zM258 12h1v1h-1zM255 13h1v1h-1zM256 13h1v1h-1zM257 13h1v1h-1zM261 5h1v1h-1zM262 5h1v1h-1zM263 5h1v1h-1zM264 5h1v1h-1zM260 6h1v1h-1zM264 6h1v1h-1zM260 7h1v1h-1zM264 7h1v1h-1zM260 8h1v1h-1zM264 8h1v1h-1zM260 9h1v1h-1zM261 9h1v1h-1zM262 9h1v1h-1zM263 9h1v1h-1zM264 9h1v1h-1zM260 10h1v1h-1zM264 10h1v1h-1zM260 11h1v1h-1zM264 11h1v1h-1zM260 12h1v1h-1zM264 12h1v1h-1zM260 13h1v1h-1zM264 13h1v1h-1zM266 5h1v1h-1zM267 5h1v1h-1zM268 5h1v1h-1zM269 5h1v1h-1zM266 6h1v1h-1zM270 6h1v1h-1zM266 7h1v1h-1zM270 7h1v1h-1zM266 8h1v1h-1zM270 8h1v1h-1zM266 9h1v1h-1zM270 9h1v1h-1zM266 10h1v1h-1zM270 10h1v1h-1zM266 11h1v1h-1zM270 11h1v1h-1zM266 12h1v1h-1zM270 12h1v1h-1zM266 13h1v1h-1zM267 13h1v1h-1zM268 13h1v1h-1zM269 13h1v1h-1z"/>
<path fill="#000000" d="M249 16h1v1h-1zM250 16h1v1h-1zM251 16h1v1h-1zM248 17h1v1h-1zM252 17h1v1h-1zM248 18h1v1h-1zM252 18h1v1h-1zM249 19h1v1h-1zM250 20h1v1h-1zM251 21h1v1h-1zM248 22h1v1h-1zM252 22h1v1h-1zM248 23h1v1h-1zM252 23h1v1h-1zM249 24h1v1h-1zM250 24h1v1h-1zM251 24h1v1h-1zM255 16h1v1h-1zM256 16h1v1h-1zM257 16h1v1h-1zM254 17h1v1h-1zM258 17h1v1h-1zM254 18h1v1h-1zM258 18h1v1h-1zM254 19h1v1h-1zM254 20h1v1h-1zM254 21h1v1h-1zM254 22h1v1h-1zM258 22h1v1h-1zM254 23h1v1h-1zM258 23h1v1h-1zM255 24h1v1h-1zM256 24h1v1h-1zM257 24h1v1h-1zM260 16h1v1h-1zM261 16h1v1h-1zM262 16h1v1h-1zM263 16h1v1h-1zM260 17h1v1h-1zM264 17h1v1h-1zM260 18h1v1h-1zM264 18h1v1h-1zM260 19h1v1h-1zM264 19h1v1h-1zM260 20h1v1h-1zM261 20h1v1h-1zM262 20h1v1h-1zM263 20h1v1h-1zM260 21h1v1h-1zM264 21h1v1h-1zM260 22h1v1h-1zM264 22h1v1h-1zM260 23h1v1h-1zM264 23h1v1h-1zM260 24h1v1h-1zM264 24h1v1h-1zM266 16h1v1h-1zM267 16h1v1h-1zM268 16h1v1h-1zM269 16h1v1h-1zM270 16h1v1h-1zM266 17h1v1h-1zM266 18h1v1h-1zM266 19h1v1h-1zM266 20h1v1h-1zM267 20h1v1h-1zM268 20h1v1h-1zM269 20h1v1h-1zM266 21h1v1h-1zM266 22h1v1h-1zM266 23h1v1h-1zM266 24h1v1h-1zM267 24h1v1h-1zM268 24h1v1h-1zM269 24h1v1h-1zM270 24h1v1h-1zM272 16h1v1h-1zM273 16h1v1h-1zM274 16h1v1h-1zM275 16h1v1h-1zM276 16h1v1h-1zM272 17h1v1h-1zM272 18h1v1h-1zM272 19h1v1h-1zM272 20h1v1h-1zM273 20h1v1h-1zM274 20h1v1h-1zM275 20h1v1h-1zM272 21h1v1h-1zM272 22h1v1h-1zM272 23h1v1h-1zM272 24h1v1h-1zM273 24h1v1h-1zM274 24h1v1h-1zM275 24h1v1h-1zM276 24h1v1h-1zM278 16h1v1h-1zM282 16h1v1h-1zM278 17h1v1h-1zM279 17h1v1h-1zM282 17h1v1h-1zM278 18h1v1h-1zM279 18h1v1h-1zM282 18h1v1h-1zM278 19h1v1h-1zM280 19h1v1h-1zM282 19h1v1h-1zM278 20h1v1h-1zM280 20h1v1h-1zM282 20h1v1h-1zM278 21h1v1h-1zM281 21h1v1h-1zM282 21h1v1h-1zM278 22h1v1h-1zM281 22h1v1h-1zM282 22h1v1h-1zM278 23h1v1h-1zM282 23h1v1h-1zM278 24h1v1h-1zM282 24h1v1h-1zM285 16h1v1h-1zM286 16h1v1h-1zM287 16h1v1h-1zM284 17h1v1h-1zM288 17h1v1h-1zM284 18h1v1h-1zM288 18h1v1h-1zM285 19h1v1h-1zM286 20h1v1h-1zM287 21h1v1h-1zM284 22h1v1h-1zM288 22h1v1h-1zM284 23h1v1h-1zM288 23h1v1h-1zM285 24h1v1h-1zM286 24h1v1h-1zM287 24h1v1h-1zM290 16h1v1h-1zM294 16h1v1h-1zM290 17h1v1h-1zM294 17h1v1h-1zM290 18h1v1h-1zM294 18h1v1h-1zM290 19h1v1h-1zM294 19h1v1h-1zM290 20h1v1h-1zM291 20h1v1h-1zM292 20h1v1h-1zM293 20h1v1h-1zM294 20h1v1h-1zM290 21h1v1h-1zM294 21h1v1h-1zM290 22h1v1h-1zM294 22h1v1h-1zM290 23h1v1h-1zM294 23h1v1h-1zM290 24h1v1h-1zM294 24h1v1h-1zM297 16h1v1h-1zM298 16h1v1h-1zM299 16h1v1h-1zM296 17h1v1h-1zM300 17h1v1h-1zM296 18h1v1h-1zM300 18h1v1h-1zM296 19h1v1h-1zM300 19h1v1h-1zM296 20h1v1h-1zM300 20h1v1h-1zM296 21h1v1h-1zM300 21h1v1h-1zM296 22h1v1h-1zM300 22h1v1h-1zM296 23h1v1h-1zM300 23h1v1h-1zM297 24h1v1h-1zM298 24h1v1h-1zM299 24h1v1h-1zM302 16h1v1h-1zM303 16h1v1h-1zM304 16h1v1h-1zM305 16h1v1h-1zM306 16h1v1h-1zM302 17h1v1h-1zM304 17h1v1h-1zM306 17h1v1h-1zM304 18h1v1h-1zM304 19h1v1h-1zM304 20h1v1h-1zM304 21h1v1h-1zM304 22h1v1h-1zM304 23h1v1h-1zM304 24h1v1h-1z"/>
</g>
<rect x="241" y="30" width="79" height="1" fill="#ffffff"/>
<rect x="241" y="30" width="1" height="29" fill="#808080"/>
<rect x="319" y="30" width="1" height="29" fill="#ffffff"/>
<rect x="241" y="58" width="79" height="1" fill="#808080"/>
<rect x="242" y="31" width="77" height="27" fill="#e6e6e6"/>
<g data-font="x6x10">
<path fill="#000000" d="M248 39h1v1h-1zM248 40h1v1h-1zM248 41h1v1h-1zM248 42h1v1h-1zM248 43h1v1h-1zM248 44h1v1h-1zM248 45h1v1h-1zM248 46h1v1h-1zM248 47h1v1h-1zM249 47h1v1h-1zM250 47h1v1h-1zM251 47h1v1h-1zM252 47h1v1h-1zM255 39h1v1h-1zM256 39h1v1h-1zM257 39h1v1h-1zM254 40h1v1h-1zM258 40h1v1h-1zM254 41h1v1h-1zM258 41h1v1h-1zM254 42h1v1h-1zM258 42h1v1h-1zM254 43h1v1h-1zM258 43h1v1h-1zM254 44h1v1h-1zM258 44h1v1h-1zM254 45h1v1h-1zM258 45h1v1h-1zM254 46h1v1h-1zM258 46h1v1h-1zM255 47h1v1h-1zM256 47h1v1h-1zM257 47h1v1h-1zM261 39h1v1h-1zM262 39h1v1h-1zM263 39h1v1h-1zM264 39h1v1h-1zM260 40h1v1h-1zM264 40h1v1h-1zM260 41h1v1h-1zM264 41h1v1h-1zM260 42h1v1h-1zM264 42h1v1h-1zM260 43h1v1h-1zM261 43h1v1h-1zM262 43h1v1h-1zM263 43h1v1h-1zM264 43h1v1h-1zM260 44h1v1h-1zM264 44h1v1h-1zM260 45h1v1h-1zM264 45h1v1h-1zM260 46h1v1h-1zM264 46h1v1h-1zM260 47h1v1h-1zM264 47h1v1h-1zM266 39h1v1h-1zM267 39h1v1h-1zM268 39h1v1h-1zM269 39h1v1h-1zM266 40h1v1h-1zM270 40h1v1h-1zM266 41h1v1h-1zM270 41h1v1h-1zM266 42h1v1h-1zM270 42h1v1h-1zM266 43h1v1h-1zM270 43h1v1h-1zM266 44h1v1h-1zM270 44h1v1h-1zM266 45h1v1h-1zM270 45h1v1h-1zM266 46h1v1h-1zM270 46h1v1h-1zM266 47h1v1h-1zM267 47h1v1h-1zM268 47h1v1h-1zM269 47h1v1h-1zM277 39h1v1h-1zM278 39h1v1h-1zM279 39h1v1h-1zM276 40h1v1h-1zM280 40h1v1h-1zM276 41h1v1h-1zM280 41h1v1h-1zM277 42h1v1h-1zM278 43h1v1h-1zM279 44h1v1h-1zM276 45h1v1h-1zM280 45h1v1h-1zM276 46h1v1h-1zM280 46h1v1h-1zM277 47h1v1h-1zM278 47h1v1h-1zM279 47h1v1h-1zM285 39h1v1h-1zM284 40h1v1h-1zM285 40h1v1h-1zM283 41h1v1h-1zM285 41h1v1h-1zM285 42h1v1h-1zM285 43h1v1h-1zM285 44h1v1h-1zM285 45h1v1h-1zM285 46h1v1h-1zM284 47h1v1h-1zM285 47h1v1h-1zM286 47h1v1h-1zM288 39h1v1h-1zM289 39h1v1h-1zM290 39h1v1h-1zM291 39h1v1h-1zM288 40h1v1h-1zM292 40h1v1h-1zM288 41h1v1h-1zM292 41h1v1h-1zM288 42h1v1h-1zM292 42h1v1h-1zM288 43h1v1h-1zM289 43h1v1h-1zM290 43h1v1h-1zM291 43h1v1h-1zM288 44h1v1h-1zM288 45h1v1h-1zM288 46h1v1h-1zM288 47h1v1h-1z"/>
</g>
<rect x="241" y="59" width="79" height="1" fill="#ffffff"/>
<rect x="241" y="59" width="1" height="29" fill="#808080"/>
<rect x="319" y="59" width="1" height="29" fill="#ffffff"/>
<rect x="241" y="87" width="79" height="1" fill="#808080"/>
<rect x="242" y="60" width="77" height="27" fill="#e6e6e6"/>
<g data-font="x6x10">
<path fill="#000000" d="M248 68h1v1h-1zM248 69h1v1h-1zM248 70h1v1h-1zM248 71h1v1h-1zM248 72h1v1h-1zM248 73h1v1h-1zM248 74h1v1h-1zM248 75h1v1h-1zM248 76h1v1h-1zM249 76h1v1h-1zM250 76h1v1h-1zM251 76h1v1h-1zM252 76h1v1h-1zM255 68h1v1h-1zM256 68h1v1h-1zM257 68h1v1h-1zM254 69h1v1h-1zM258 69h1v1h-1zM254 70h1v1h-1zM258 70h1v1h-1zM254 71h1v1h-1zM258 71h1v1h-1zM254 72h1v1h-1zM258 72h1v1h-1zM254 73h1v1h-1zM258 73h1v1h-1zM254 74h1v1h-1zM258 74h1v1h-1zM254 75h1v1h-1zM258 75h1v1h-1zM255 76h1v1h-1zM256 76h1v1h-1zM257 76h1v1h-1zM261 68h1v1h-1zM262 68h1v1h-1zM263 68h1v1h-1zM264 68h1v1h-1zM260 69h1v1h-1zM264 69h1v1h-1zM260 70h1v1h-1zM264 70h1v1h-1zM260 71h1v1h-1zM264 71h1v1h-1zM260 72h1v1h-1zM261 72h1v1h-1zM262 72h1v1h-1zM263 72h1v1h-1zM264 72h1v1h-1zM260 73h1v1h-1zM264 73h1v1h-1zM260 74h1v1h-1zM264 74h1v1h-1zM260 75h1v1h-1zM264 75h1v1h-1zM260 76h1v1h-1zM264 76h1v1h-1zM266 68h1v1h-1zM267 68h1v1h-1zM268 68h1v1h-1zM269 68h1v1h-1zM266 69h1v1h-1zM270 69h1v1h-1zM266 70h1v1h-1zM270 70h1v1h-1zM266 71h1v1h-1zM270 71h1v1h-1zM266 72h1v1h-1zM270 72h1v1h-1zM266 73h1v1h-1zM270 73h1v1h-1zM266 74h1v1h-1zM270 74h1v1h-1zM266 75h1v1h-1zM270 75h1v1h-1zM266 76h1v1h-1zM267 76h1v1h-1zM268 76h1v1h-1zM269 76h1v1h-1zM277 68h1v1h-1zM278 68h1v1h-1zM279 68h1v1h-1zM276 69h1v1h-1zM280 69h1v1h-1zM276 70h1v1h-1zM280 70h1v1h-1zM277 71h1v1h-1zM278 72h1v1h-1zM279 73h1v1h-1zM276 74h1v1h-1zM280 74h1v1h-1zM276 75h1v1h-1zM280 75h1v1h-1zM277 76h1v1h-1zM278 76h1v1h-1zM279 76h1v1h-1zM283 68h1v1h-1zM284 68h1v1h-1zM285 68h1v1h-1zM282 69h1v1h-1zM286 69h1v1h-1zM282 70h1v1h-1zM286 70h1v1h-1zM286 71h1v1h-1zM285 72h1v1h-1zM284 73h1v1h-1zM283 74h1v1h-1zM282 75h1v1h-1zM282 76h1v1h-1zM283 76h1v1h-1zM284 76h1v1h-1zM285 76h1v1h-1zM286 76h1v1h-1zM288 68h1v1h-1zM289 68h1v1h-1zM290 68h1v1h-1zM291 68h1v1h-1zM288 69h1v1h-1zM292 69h1v1h-1zM288 70h1v1h-1zM292 70h1v1h-1zM288 71h1v1h-1zM292 71h1v1h-1zM288 72h1v1h-1zM289 72h1v1h-1zM290 72h1v1h-1zM291 72h1v1h-1zM288 73h1v1h-1zM288 74h1v1h-1zM288 75h1v1h-1zM288 76h1v1h-1z"/>
</g>
<rect x="241" y="88" width="79" height="1" fill="#ffffff"/>
<rect x="241" y="88" width="1" height="29" fill="#808080"/>
<rect x="319" y="88" width="1" height="29" fill="#ffffff"/>
<rect x="241" y="116" width="79" height="1" fill="#808080"/>
<rect x="242" y="89" width="77" height="27" fill="#e6e6e6"/>
<g data-font="x6x10">
<path fill="#000000" d="M248 97h1v1h-1zM248 98h1v1h-1zM248 99h1v1h-1zM248 100h1v1h-1zM248 101h1v1h-1zM248 102h1v1h-1zM248 103h1v1h-1zM248 104h1v1h-1zM248 105h1v1h-1zM249 105h1v1h-1zM250 105h1v1h-1zM251 105h1v1h-1zM252 105h1v1h-1zM255 97h1v1h-1zM256 97h1v1h-1zM257 97h1v1h-1zM254 98h1v1h-1zM258 98h1v1h-1zM254 99h1v1h-1zM258 99h1v1h-1zM254 100h1v1h-1zM258 100h1v1h-1zM254 101h1v1h-1zM258 101h1v1h-1zM254 102h1v1h-1zM258 102h1v1h-1zM254 103h1v1h-1zM258 103h1v1h-1zM254 104h1v1h-1zM258 104h1v1h-1zM255 105h1v1h-1zM256 105h1v1h-1zM257 105h1v1h-1zM261 97h1v1h-1zM262 97h1v1h-1zM263 97h1v1h-1zM264 97h1v1h-1zM260 98h1v1h-1zM264 98h1v1h-1zM260 99h1v1h-1zM264 99h1v1h-1zM260 100h1v1h-1zM264 100h1v1h-1zM260 101h1v1h-1zM261 101h1v1h-1zM262 101h1v1h-1zM263 101h1v1h-1zM264 101h1v1h-1zM260 102h1v1h-1zM264 102h1v1h-1zM260 103h1v1h-1zM264 103h1v1h-1zM260 104h1v1h-1zM264 104h1v1h-1zM260 105h1v1h-1zM264 105h1v1h-1zM266 97h1v1h-1zM267 97h1v1h-1zM268 97h1v1h-1zM269 97h1v1h-1zM266 98h1v1h-1zM270 98h1v1h-1zM266 99h1v1h-1zM270 99h1v1h-1zM266 100h1v1h-1zM270 100h1v1h-1zM266 101h1v1h-1zM270 101h1v1h-1zM266 102h1v1h-1zM270 102h1v1h-1zM266 103h1v1h-1zM270 103h1v1h-1zM266 104h1v1h-1zM270 104h1v1h-1zM266 105h1v1h-1zM267 105h1v1h-1zM268 105h1v1h-1zM269 105h1v1h-1zM277 97h1v1h-1zM278 97h1v1h-1zM279 97h1v1h-1zM276 98h1v1h-1zM280 98h1v1h-1zM276 99h1v1h-1zM280 99h1v1h-1zM276 100h1v1h-1zM276 101h1v1h-1zM276 102h1v1h-1zM276 103h1v1h-1zM280 103h1v1h-1zM276 104h1v1h-1zM280 104h1v1h-1zM277 105h1v1h-1zM278 105h1v1h-1zM279 105h1v1h-1zM283 97h1v1h-1zM284 97h1v1h-1zM285 97h1v1h-1zM286 97h1v1h-1zM282 98h1v1h-1zM286 98h1v1h-1zM282 99h1v1h-1zM286 99h1v1h-1zM282 100h1v1h-1zM286 100h1v1h-1zM282 101h1v1h-1zM283 101h1v1h-1zM284 101h1v1h-1zM285 101h1v1h-1zM286 101h1v1h-1zM282 102h1v1h-1zM286 102h1v1h-1zM282 103h1v1h-1zM286 103h1v1h-1zM282 104h1v1h-1zM286 104h1v1h-1zM282 105h1v1h-1zM286 105h1v1h-1zM288 97h1v1h-1zM288 98h1v1h-1zM288 99h1v1h-1zM288 100h1v1h-1zM288 101h1v1h-1zM288 102h1v1h-1zM288 103h1v1h-1zM288 104h1v1h-1zM288 105h1v1h-1zM289 105h1v1h-1zM290 105h1v1h-1zM291 105h1v1h-1zM292 105h1v1h-1z"/>
</g>
<rect x="241" y="117" width="79" height="1" fill="#ffffff"/>
<rect x="241" y="117" width="1" height="29" fill="#808080"/>
<rect x="319" y="117" width="1" height="29" fill="#ffffff"/>
<rect x="241" y="145" width="79" height="1" fill="#808080"/>
<rect x="242" y="118" width="77" height="27" fill="#e6e6e6"/>
<g data-font="x6x10">
<path fill="#000000" d="M251 127h1v1h-1zM250 128h1v1h-1zM251 128h1v1h-1zM249 129h1v1h-1zM250 129h1v1h-1zM248 130h1v1h-1zM249 130h1v1h-1zM250 130h1v1h-1zM251 130h1v1h-1zM252 130h1v1h-1zM253 130h1v1h-1zM254 130h1v1h-1zM248 131h1v1h-1zM249 131h1v1h-1zM250 131h1v1h-1zM251 131h1v1h-1zM252 131h1v1h-1zM253 131h1v1h-1zM254 131h1v1h-1zM249 132h1v1h-1zM250 132h1v1h-1zM250 133h1v1h-1zM251 133h1v1h-1zM251 134h1v1h-1zM260 126h1v1h-1zM261 126h1v1h-1zM262 126h1v1h-1zM263 126h1v1h-1zM260 127h1v1h-1zM264 127h1v1h-1zM260 128h1v1h-1zM264 128h1v1h-1zM260 129h1v1h-1zM264 129h1v1h-1zM260 130h1v1h-1zM261 130h1v1h-1zM262 130h1v1h-1zM263 130h1v1h-1zM260 131h1v1h-1zM264 131h1v1h-1zM260 132h1v1h-1zM264 132h1v1h-1zM260 133h1v1h-1zM264 133h1v1h-1zM260 134h1v1h-1zM261 134h1v1h-1zM262 134h1v1h-1zM263 134h1v1h-1zM267 126h1v1h-1zM268 126h1v1h-1zM269 126h1v1h-1zM270 126h1v1h-1zM266 127h1v1h-1zM270 127h1v1h-1zM266 128h1v1h-1zM270 128h1v1h-1zM266 129h1v1h-1zM270 129h1v1h-1zM266 130h1v1h-1zM267 130h1v1h-1zM268 130h1v1h-1zM269 130h1v1h-1zM270 130h1v1h-1zM266 131h1v1h-1zM270 131h1v1h-1zM266 132h1v1h-1zM270 132h1v1h-1zM266 133h1v1h-1zM270 133h1v1h-1zM266 134h1v1h-1zM270 134h1v1h-1zM273 126h1v1h-1zM274 126h1v1h-1zM275 126h1v1h-1zM272 127h1v1h-1zM276 127h1v1h-1zM272 128h1v1h-1zM276 128h1v1h-1zM272 129h1v1h-1zM272 130h1v1h-1zM272 131h1v1h-1zM272 132h1v1h-1zM276 132h1v1h-1zM272 133h1v1h-1zM276 133h1v1h-1zM273 134h1v1h-1zM274 134h1v1h-1zM275 134h1v1h-1zM278 126h1v1h-1zM282 126h1v1h-1zM278 127h1v1h-1zM282 127h1v1h-1zM278 128h1v1h-1zM282 128h1v1h-1zM278 129h1v1h-1zM281 129h1v1h-1zM278 130h1v1h-1zM279 130h1v1h-1zM280 130h1v1h-1zM278 131h1v1h-1zM281 131h1v1h-1zM278 132h1v1h-1zM282 132h1v1h-1zM278 133h1v1h-1zM282 133h1v1h-1zM278 134h1v1h-1zM282 134h1v1h-1z"/>
</g>
</svg>