<svg xmlns="http://www.w3.org/2000/svg" viewBox="0 0 480 320" width="480" height="320" shape-rendering="crispEdges">
<rect x="0" y="0" width="480" height="320" fill="#000000"/>
<rect x="389" y="1" width="91" height="1" fill="#ffffff"/>
<rect x="389" y="1" width="1" height="25" fill="#808080"/>
<rect x="479" y="1" width="1" height="25" fill="#ffffff"/>
<rect x="389" y="25" width="91" height="1" fill="#808080"/>
<rect x="390" y="2" width="89" height="23" fill="#e6e6e6"/>
<g data-font="x7x11b">
<path fill="#000000" d="M396 9h1v1h-1zM397 9h1v1h-1zM398 9h1v1h-1zM399 9h1v1h-1zM400 9h1v1h-1zM401 9h1v1h-1zM396 10h1v1h-1zM398 10h1v1h-1zM399 10h1v1h-1zM401 10h1v1h-1zM398 11h1v1h-1zM399 11h1v1h-1zM398 12h1v1h-1zM399 12h1v1h-1zM398 13h1v1h-1zM399 13h1v1h-1zM398 14h1v1h-1zM399 14h1v1h-1zM398 15h1v1h-1zM399 15h1v1h-1zM398 16h1v1h-1zM399 16h1v1h-1zM398 17h1v1h-1zM399 17h1v1h-1zM403 9h1v1h-1zM404 9h1v1h-1zM405 9h1v1h-1zM406 9h1v1h-1zM407 9h1v1h-1zM403 10h1v1h-1zM404 10h1v1h-1zM407 10h1v1h-1zM408 10h1v1h-1zM403 11h1v1h-1zM404 11h1v1h-1zM407 11h1v1h-1zM408 11h1v1h-1zM403 12h1v1h-1zM404 12h1v1h-1zM407 12h1v1h-1zM408 12h1v1h-1zM403 13h1v1h-1zM404 13h1v1h-1zM405 13h1v1h-1zM406 13h1v1h-1zM407 13h1v1h-1zM403 14h1v1h-1zM404 14h1v1h-1zM406 14h1v1h-1zM407 14h1v1h-1zM403 15h1v1h-1zM404 15h1v1h-1zM407 15h1v1h-1zM408 15h1v1h-1zM403 16h1v1h-1zM404 16h1v1h-1zM407 16h1v1h-1zM408 16h1v1h-1zM403 17h1v1h-1zM404 17h1v1h-1zM407 17h1v1h-1zM408 17h1v1h-1zM411 9h1v1h-1zM412 9h1v1h-1zM413 9h1v1h-1zM414 9h1v1h-1zM410 10h1v1h-1zM411 10h1v1h-1zM414 10h1v1h-1zM415 10h1v1h-1zM410 11h1v1h-1zM411 11h1v1h-1zM414 11h1v1h-1zM415 11h1v1h-1zM410 12h1v1h-1zM411 12h1v1h-1zM414 12h1v1h-1zM415 12h1v1h-1zM410 13h1v1h-1zM411 13h1v1h-1zM412 13h1v1h-1zM413 13h1v1h-1zM414 13h1v1h-1zM415 13h1v1h-1zM410 14h1v1h-1zM411 14h1v1h-1zM414 14h1v1h-1zM415 14h1v1h-1zM410 15h1v1h-1zM411 15h1v1h-1zM414 15h1v1h-1zM415 15h1v1h-1zM410 16h1v1h-1zM411 16h1v1h-1zM414 16h1v1h-1zM415 16h1v1h-1zM410 17h1v1h-1zM411 17h1v1h-1zM414 17h1v1h-1zM415 17h1v1h-1zM418 9h1v1h-1zM419 9h1v1h-1zM420 9h1v1h-1zM421 9h1v1h-1zM417 10h1v1h-1zM418 10h1v1h-1zM421 10h1v1h-1zM422 10h1v1h-1zM417 11h1v1h-1zM418 11h1v1h-1zM421 11h1v1h-1zM422 11h1v1h-1zM417 12h1v1h-1zM418 12h1v1h-1zM417 13h1v1h-1zM418 13h1v1h-1zM417 14h1v1h-1zM418 14h1v1h-1zM417 15h1v1h-1zM418 15h1v1h-1zM421 15h1v1h-1zM422 15h1v1h-1zM417 16h1v1h-1zM418 16h1v1h-1zM421 16h1v1h-1zM422 16h1v1h-1zM418 17h1v1h-1zM419 17h1v1h-1zM420 17h1v1h-1zM421 17h1v1h-1zM424 9h1v1h-1zM425 9h1v1h-1zM426 9h1v1h-1zM427 9h1v1h-1zM428 9h1v1h-1zM429 9h1v1h-1zM424 10h1v1h-1zM425 10h1v1h-1zM424 11h1v1h-1zM425 11h1v1h-1zM424 12h1v1h-1zM425 12h1v1h-1zM424 13h1v1h-1zM425 13h1v1h-1zM426 13h1v1h-1zM427 13h1v1h-1zM428 13h1v1h-1zM424 14h1v1h-1zM425 14h1v1h-1zM424 15h1v1h-1zM425 15h1v1h-1zM424 16h1v1h-1zM425 16h1v1h-1zM424 17h1v1h-1zM425 17h1v1h-1zM426 17h1v1h-1zM427 17h1v1h-1zM428 17h1v1h-1zM429 17h1v1h-1z"/>
</g>
<rect x="389" y="26" width="91" height="1" fill="#ffffff"/>
<rect x="389" y="26" width="1" height="25" fill="#808080"/>
<rect x="479" y="26" width="1" height="25" fill="#ffffff"/>
<rect x="389" y="50" width="91" height="1" fill="#808080"/>
<rect x="390" y="27" width="89" height="23" fill="#e6e6e6"/>
<g data-font="x7x11b">
<path fill="#000000" d="M397 34h1v1h-1zM398 34h1v1h-1zM399 34h1v1h-1zM400 34h1v1h-1zM396 35h1v1h-1zM397 35h1v1h-1zM400 35h1v1h-1zM401 35h1v1h-1zM396 36h1v1h-1zM397 36h1v1h-1zM400 36h1v1h-1zM401 36h1v1h-1zM396 37h1v1h-1zM397 37h1v1h-1zM400 37h1v1h-1zM401 37h1v1h-1zM396 38h1v1h-1zM397 38h1v1h-1zM398 38h1v1h-1zM399 38h1v1h-1zM400 38h1v1h-1zM401 38h1v1h-1zM396 39h1v1h-1zM397 39h1v1h-1zM400 39h1v1h-1zM401 39h1v1h-1zM396 40h1v1h-1zM397 40h1v1h-1zM400 40h1v1h-1zM401 40h1v1h-1zM396 41h1v1h-1zM397 41h1v1h-1zM400 41h1v1h-1zM401 41h1v1h-1zM396 42h1v1h-1zM397 42h1v1h-1zM400 42h1v1h-1zM401 42h1v1h-1zM403 34h1v1h-1zM404 34h1v1h-1zM407 34h1v1h-1zM408 34h1v1h-1zM403 35h1v1h-1zM404 35h1v1h-1zM407 35h1v1h-1zM408 35h1v1h-1zM403 36h1v1h-1zM404 36h1v1h-1zM407 36h1v1h-1zM408 36h1v1h-1zM403 37h1v1h-1zM404 37h1v1h-1zM407 37h1v1h-1zM408 37h1v1h-1zM403 38h1v1h-1zM404 38h1v1h-1zM407 38h1v1h-1zM408 38h1v1h-1zM403 39h1v1h-1zM404 39h1v1h-1zM407 39h1v1h-1zM408 39h1v1h-1zM403 40h1v1h-1zM404 40h1v1h-1zM407 40h1v1h-1zM408 40h1v1h-1zM403 41h1v1h-1zM404 41h1v1h-1zM407 41h1v1h-1zM408 41h1v1h-1zM404 42h1v1h-1zM405 42h1v1h-1zM406 42h1v1h-1zM407 42h1v1h-1zM410 34h1v1h-1zM411 34h1v1h-1zM412 34h1v1h-1zM413 34h1v1h-1zM414 34h1v1h-1zM415 34h1v1h-1zM410 35h1v1h-1zM412 35h1v1h-1zM413 35h1v1h-1zM415 35h1v1h-1zM412 36h1v1h-1zM413 36h1v1h-1zM412 37h1v1h-1zM413 37h1v1h-1zM412 38h1v1h-1zM413 38h1v1h-1zM412 39h1v1h-1zM413 39h1v1h-1zM412 40h1v1h-1zM413 40h1v1h-1zM412 41h1v1h-1zM413 41h1v1h-1zM412 42h1v1h-1zM413 42h1v1h-1zM418 34h1v1h-1zM419 34h1v1h-1zM420 34h1v1h-1zM421 34h1v1h-1zM417 35h1v1h-1zM418 35h1v1h-1zM421 35h1v1h-1zM422 35h1v1h-1zM417 36h1v1h-1zM418 36h1v1h-1zM421 36h1v1h-1zM422 36h1v1h-1zM417 37h1v1h-1zM418 37h1v1h-1zM421 37h1v1h-1zM422 37h1v1h-1zM417 38h1v1h-1zM418 38h1v1h-1zM421 38h1v1h-1zM422 38h1v1h-1zM417 39h1v1h-1zM418 39h1v1h-1zM421 39h1v1h-1zM422 39h1v1h-1zM417 40h1v1h-1zM418 40h1v1h-1zM421 40h1v1h-1zM422 40h1v1h-1zM417 41h1v1h-1zM418 41h1v1h-1zM421 41h1v1h-1zM422 41h1v1h-1zM418 42h1v1h-1zM419 42h1v1h-1zM420 42h1v1h-1zM421 42h1v1h-1zM429 34h1v1h-1zM430 34h1v1h-1zM431 34h1v1h-1zM432 34h1v1h-1zM428 35h1v1h-1zM429 35h1v1h-1zM432 35h1v1h-1zM433 35h1v1h-1zM428 36h1v1h-1zM429 36h1v1h-1zM432 36h1v1h-1zM433 36h1v1h-1zM429 37h1v1h-1zM430 37h1v1h-1zM430 38h1v1h-1zM431 38h1v1h-1zM431 39h1v1h-1zM432 39h1v1h-1zM428 40h1v1h-1zM429 40h1v1h-1zM432 40h1v1h-1zM433 40h1v1h-1zM428 41h1v1h-1zM429 41h1v1h-1zM432 41h1v1h-1zM433 41h1v1h-1zM429 42h1v1h-1zM430 42h1v1h-1zM431 42h1v1h-1zM432 42h1v1h-1zM436 34h1v1h-1zM437 34h1v1h-1zM438 34h1v1h-1zM439 34h1v1h-1zM435 35h1v1h-1zM436 35h1v1h-1zM439 35h1v1h-1zM440 35h1v1h-1zM435 36h1v1h-1zM436 36h1v1h-1zM439 36h1v1h-1zM440 36h1v1h-1zM435 37h1v1h-1zM436 37h1v1h-1zM435 38h1v1h-1zM436 38h1v1h-1zM435 39h1v1h-1zM436 39h1v1h-1zM435 40h1v1h-1zM436 40h1v1h-1zM439 40h1v1h-1zM440 40h1v1h-1zM435 41h1v1h-1zM436 41h1v1h-1zM439 41h1v1h-1zM440 41h1v1h-1zM436 42h1v1h-1zM437 42h1v1h-1zM438 42h1v1h-1zM439 42h1v1h-1zM443 34h1v1h-1zM444 34h1v1h-1zM445 34h1v1h-1zM446 34h1v1h-1zM442 35h1v1h-1zM443 35h1v1h-1zM446 35h1v1h-1zM447 35h1v1h-1zM442 36h1v1h-1zM443 36h1v1h-1zM446 36h1v1h-1zM447 36h1v1h-1zM442 37h1v1h-1zM443 37h1v1h-1zM446 37h1v1h-1zM447 37h1v1h-1zM442 38h1v1h-1zM443 38h1v1h-1zM444 38h1v1h-1zM445 38h1v1h-1zM446 38h1v1h-1zM447 38h1v1h-1zM442 39h1v1h-1zM443 39h1v1h-1zM446 39h1v1h-1zM447 39h1v1h-1zM442 40h1v1h-1zM443 40h1v1h-1zM446 40h1v1h-1zM447 40h1v1h-1zM442 41h1v1h-1zM443 41h1v1h-1zM446 41h1v1h-1zM447 41h1v1h-1zM442 42h1v1h-1zM443 42h1v1h-1zM446 42h1v1h-1zM447 42h1v1h-1zM449 34h1v1h-1zM450 34h1v1h-1zM449 35h1v1h-1zM450 35h1v1h-1zM449 36h1v1h-1zM450 36h1v1h-1zM449 37h1v1h-1zM450 37h1v1h-1zM449 38h1v1h-1zM450 38h1v1h-1zM449 39h1v1h-1zM450 39h1v1h-1zM449 40h1v1h-1zM450 40h1v1h-1zM449 41h1v1h-1zM450 41h1v1h-1zM449 42h1v1h-1zM450 42h1v1h-1zM451 42h1v1h-1zM452 42h1v1h-1zM453 42h1v1h-1zM454 42h1v1h-1zM456 34h1v1h-1zM457 34h1v1h-1zM458 34h1v1h-1zM459 34h1v1h-1zM460 34h1v1h-1zM461 34h1v1h-1zM456 35h1v1h-1zM457 35h1v1h-1zM456 36h1v1h-1zM457 36h1v1h-1zM456 37h1v1h-1zM457 37h1v1h-1zM456 38h1v1h-1zM457 38h1v1h-1zM458 38h1v1h-1zM459 38h1v1h-1zM460 38h1v1h-1zM456 39h1v1h-1zM457 39h1v1h-1zM456 40h1v1h-1zM457 40h1v1h-1zM456 41h1v1h-1zM457 41h1v1h-1zM456 42h1v1h-1zM457 42h1v1h-1zM458 42h1v1h-1zM459 42h1v1h-1zM460 42h1v1h-1zM461 42h1v1h-1z"/>
</g>
<rect x="389" y="51" width="91" height="1" fill="#ffffff"/>
<rect x="389" y="51" width="1" height="25" fill="#808080"/>
<rect x="479" y="51" width="1" height="25" fill="#ffffff"/>
<rect x="389" y="75" width="91" height="1" fill="#808080"/>
<rect x="390" y="52" width="89" height="23" fill="#e6e6e6"/>
<g data-font="x7x11b">
<path fill="#000000" d="M396 59h1v1h-1zM397 59h1v1h-1zM398 59h1v1h-1zM399 59h1v1h-1zM400 59h1v1h-1zM401 59h1v1h-1zM396 60h1v1h-1zM398 60h1v1h-1zM399 60h1v1h-1zM401 60h1v1h-1zM398 61h1v1h-1zM399 61h1v1h-1zM398 62h1v1h-1zM399 62h1v1h-1zM398 63h1v1h-1zM399 63h1v1h-1zM398 64h1v1h-1zM399 64h1v1h-1zM398 65h1v1h-1zM399 65h1v1h-1zM398 66h1v1h-1zM399 66h1v1h-1zM398 67h1v1h-1zM399 67h1v1h-1zM404 59h1v1h-1zM405 59h1v1h-1zM406 59h1v1h-1zM407 59h1v1h-1zM403 60h1v1h-1zM404 60h1v1h-1zM407 60h1v1h-1zM408 60h1v1h-1zM403 61h1v1h-1zM404 61h1v1h-1zM407 61h1v1h-1zM408 61h1v1h-1zM403 62h1v1h-1zM404 62h1v1h-1zM407 62h1v1h-1zM408 62h1v1h-1zM403 63h1v1h-1zM404 63h1v1h-1zM407 63h1v1h-1zM408 63h1v1h-1zM403 64h1v1h-1zM404 64h1v1h-1zM407 64h1v1h-1zM408 64h1v1h-1zM403 65h1v1h-1zM404 65h1v1h-1zM407 65h1v1h-1zM408 65h1v1h-1zM403 66h1v1h-1zM404 66h1v1h-1zM407 66h1v1h-1zM408 66h1v1h-1zM404 67h1v1h-1zM405 67h1v1h-1zM406 67h1v1h-1zM407 67h1v1h-1zM410 59h1v1h-1zM411 59h1v1h-1zM412 59h1v1h-1zM413 59h1v1h-1zM414 59h1v1h-1zM410 60h1v1h-1zM411 60h1v1h-1zM414 60h1v1h-1zM415 60h1v1h-1zM410 61h1v1h-1zM411 61h1v1h-1zM414 61h1v1h-1zM415 61h1v1h-1zM410 62h1v1h-1zM411 62h1v1h-1zM414 62h1v1h-1zM415 62h1v1h-1zM410 63h1v1h-1zM411 63h1v1h-1zM412 63h1v1h-1zM413 63h1v1h-1zM414 63h1v1h-1zM410 64h1v1h-1zM411 64h1v1h-1zM410 65h1v1h-1zM411 65h1v1h-1zM410 66h1v1h-1zM411 66h1v1h-1zM410 67h1v1h-1zM411 67h1v1h-1z"/>
</g>
<rect x="389" y="76" width="91" height="1" fill="#ffffff"/>
<rect x="389" y="76" width="1" height="25" fill="#808080"/>
<rect x="479" y="76" width="1" height="25" fill="#ffffff"/>
<rect x="389" y="100" width="91" height="1" fill="#808080"/>
<rect x="390" y="77" width="89" height="23" fill="#e6e6e6"/>
<g data-font="x7x11b">
<path fill="#000000" d="M396 84h1v1h-1zM397 84h1v1h-1zM398 84h1v1h-1zM399 84h1v1h-1zM400 84h1v1h-1zM396 85h1v1h-1zM397 85h1v1h-1zM400 85h1v1h-1zM401 85h1v1h-1zM396 86h1v1h-1zM397 86h1v1h-1zM400 86h1v1h-1zM401 86h1v1h-1zM396 87h1v1h-1zM397 87h1v1h-1zM400 87h1v1h-1zM401 87h1v1h-1zM396 88h1v1h-1zM397 88h1v1h-1zM398 88h1v1h-1zM399 88h1v1h-1zM400 88h1v1h-1zM396 89h1v1h-1zM397 89h1v1h-1zM400 89h1v1h-1zM401 89h1v1h-1zM396 90h1v1h-1zM397 90h1v1h-1zM400 90h1v1h-1zM401 90h1v1h-1zM396 91h1v1h-1zM397 91h1v1h-1zM400 91h1v1h-1zM401 91h1v1h-1zM396 92h1v1h-1zM397 92h1v1h-1zM398 92h1v1h-1zM399 92h1v1h-1zM400 92h1v1h-1zM404 84h1v1h-1zM405 84h1v1h-1zM406 84h1v1h-1zM407 84h1v1h-1zM403 85h1v1h-1zM404 85h1v1h-1zM407 85h1v1h-1zM408 85h1v1h-1zM403 86h1v1h-1zM404 86h1v1h-1zM407 86h1v1h-1zM408 86h1v1h-1zM403 87h1v1h-1zM404 87h1v1h-1zM407 87h1v1h-1zM408 87h1v1h-1zM403 88h1v1h-1zM404 88h1v1h-1zM407 88h1v1h-1zM408 88h1v1h-1zM403 89h1v1h-1zM404 89h1v1h-1zM407 89h1v1h-1zM408 89h1v1h-1zM403 90h1v1h-1zM404 90h1v1h-1zM407 90h1v1h-1zM408 90h1v1h-1zM403 91h1v1h-1zM404 91h1v1h-1zM407 91h1v1h-1zM408 91h1v1h-1zM404 92h1v1h-1zM405 92h1v1h-1zM406 92h1v1h-1zM407 92h1v1h-1zM410 84h1v1h-1zM411 84h1v1h-1zM412 84h1v1h-1zM413 84h1v1h-1zM414 84h1v1h-1zM415 84h1v1h-1zM410 85h1v1h-1zM412 85h1v1h-1zM413 85h1v1h-1zM415 85h1v1h-1zM412 86h1v1h-1zM413 86h1v1h-1zM412 87h1v1h-1zM413 87h1v1h-1zM412 88h1v1h-1zM413 88h1v1h-1zM412 89h1v1h-1zM413 89h1v1h-1zM412 90h1v1h-1zM413 90h1v1h-1zM412 91h1v1h-1zM413 91h1v1h-1zM412 92h1v1h-1zM413 92h1v1h-1zM417 84h1v1h-1zM418 84h1v1h-1zM419 84h1v1h-1zM420 84h1v1h-1zM421 84h1v1h-1zM422 84h1v1h-1zM417 85h1v1h-1zM419 85h1v1h-1zM420 85h1v1h-1zM422 85h1v1h-1zM419 86h1v1h-1zM420 86h1v1h-1zM419 87h1v1h-1zM420 87h1v1h-1zM419 88h1v1h-1zM420 88h1v1h-1zM419 89h1v1h-1zM420 89h1v1h-1zM419 90h1v1h-1zM420 90h1v1h-1zM419 91h1v1h-1zM420 91h1v1h-1zM419 92h1v1h-1zM420 92h1v1h-1zM425 84h1v1h-1zM426 84h1v1h-1zM427 84h1v1h-1zM428 84h1v1h-1zM424 85h1v1h-1zM425 85h1v1h-1zM428 85h1v1h-1zM429 85h1v1h-1zM424 86h1v1h-1zM425 86h1v1h-1zM428 86h1v1h-1zM429 86h1v1h-1zM424 87h1v1h-1zM425 87h1v1h-1zM428 87h1v1h-1zM429 87h1v1h-1zM424 88h1v1h-1zM425 88h1v1h-1zM428 88h1v1h-1zM429 88h1v1h-1zM424 89h1v1h-1zM425 89h1v1h-1zM428 89h1v1h-1zM429 89h1v1h-1zM424 90h1v1h-1zM425 90h1v1h-1zM428 90h1v1h-1zM429 90h1v1h-1zM424 91h1v1h-1zM425 91h1v1h-1zM428 91h1v1h-1zM429 91h1v1h-1zM425 92h1v1h-1zM426 92h1v1h-1zM427 92h1v1h-1zM428 92h1v1h-1zM431 84h1v1h-1zM432 84h1v1h-1zM436 84h1v1h-1zM437 84h1v1h-1zM431 85h1v1h-1zM432 85h1v1h-1zM436 85h1v1h-1zM437 85h1v1h-1zM431 86h1v1h-1zM432 86h1v1h-1zM433 86h1v1h-1zM435 86h1v1h-1zM436 86h1v1h-1zM437 86h1v1h-1zM431 87h1v1h-1zM432 87h1v1h-1zM433 87h1v1h-1zM435 87h1v1h-1zM436 87h1v1h-1zM437 87h1v1h-1zM431 88h1v1h-1zM432 88h1v1h-1zM434 88h1v1h-1zM436 88h1v1h-1zM437 88h1v1h-1zM431 89h1v1h-1zM432 89h1v1h-1zM434 89h1v1h-1zM436 89h1v1h-1zM437 89h1v1h-1zM431 90h1v1h-1zM432 90h1v1h-1zM434 90h1v1h-1zM436 90h1v1h-1zM437 90h1v1h-1zM431 91h1v1h-1zM432 91h1v1h-1zM436 91h1v1h-1zM437 91h1v1h-1zM431 92h1v1h-1zM432 92h1v1h-1zM436 92h1v1h-1zM437 92h1v1h-1z"/>
</g>
<rect x="389" y="101" width="91" height="1" fill="#ffffff"/>
<rect x="389" y="101" width="1" height="25" fill="#808080"/>
<rect x="479" y="101" width="1" height="25" fill="#ffffff"/>
<rect x="389" y="125" width="91" height="1" fill="#808080"/>
<rect x="390" y="102" width="89" height="23" fill="#e6e6e6"/>
<g data-font="x7x11b">
<path fill="#000000" d="M397 109h1v1h-1zM398 109h1v1h-1zM399 109h1v1h-1zM400 109h1v1h-1zM396 110h1v1h-1zM397 110h1v1h-1zM400 110h1v1h-1zM401 110h1v1h-1zM396 111h1v1h-1zM397 111h1v1h-1zM400 111h1v1h-1zM401 111h1v1h-1zM397 112h1v1h-1zM398 112h1v1h-1zM398 113h1v1h-1zM399 113h1v1h-1zM399 114h1v1h-1zM400 114h1v1h-1zM396 115h1v1h-1zM397 115h1v1h-1zM400 115h1v1h-1zM401 115h1v1h-1zM396 116h1v1h-1zM397 116h1v1h-1zM400 116h1v1h-1zM401 116h1v1h-1zM397 117h1v1h-1zM398 117h1v1h-1zM399 117h1v1h-1zM400 117h1v1h-1zM404 109h1v1h-1zM405 109h1v1h-1zM406 109h1v1h-1zM407 109h1v1h-1zM403 110h1v1h-1zM404 110h1v1h-1zM407 110h1v1h-1zM408 110h1v1h-1zM403 111h1v1h-1zM404 111h1v1h-1zM407 111h1v1h-1zM408 111h1v1h-1zM403 112h1v1h-1zM404 112h1v1h-1zM403 113h1v1h-1zM404 113h1v1h-1zM403 114h1v1h-1zM404 114h1v1h-1zM403 115h1v1h-1zM404 115h1v1h-1zM407 115h1v1h-1zM408 115h1v1h-1zM403 116h1v1h-1zM404 116h1v1h-1zM407 116h1v1h-1zM408 116h1v1h-1zM404 117h1v1h-1zM405 117h1v1h-1zM406 117h1v1h-1zM407 117h1v1h-1zM411 109h1v1h-1zM412 109h1v1h-1zM413 109h1v1h-1zM414 109h1v1h-1zM410 110h1v1h-1zM411 110h1v1h-1zM414 110h1v1h-1zM415 110h1v1h-1zM410 111h1v1h-1zM411 111h1v1h-1zM414 111h1v1h-1zM415 111h1v1h-1zM410 112h1v1h-1zM411 112h1v1h-1zM414 112h1v1h-1zM415 112h1v1h-1zM410 113h1v1h-1zM411 113h1v1h-1zM412 113h1v1h-1zM413 113h1v1h-1zM414 113h1v1h-1zM415 113h1v1h-1zM410 114h1v1h-1zM411 114h1v1h-1zM414 114h1v1h-1zM415 114h1v1h-1zM410 115h1v1h-1zM411 115h1v1h-1zM414 115h1v1h-1zM415 115h1v1h-1zM410 116h1v1h-1zM411 116h1v1h-1zM414 116h1v1h-1zM415 116h1v1h-1zM410 117h1v1h-1zM411 117h1v1h-1zM414 117h1v1h-1zM415 117h1v1h-1zM417 109h1v1h-1zM418 109h1v1h-1zM417 110h1v1h-1zM418 110h1v1h-1zM417 111h1v1h-1zM418 111h1v1h-1zM417 112h1v1h-1zM418 112h1v1h-1zM417 113h1v1h-1zM418 113h1v1h-1zM417 114h1v1h-1zM418 114h1v1h-1zM417 115h1v1h-1zM418 115h1v1h-1zM417 116h1v1h-1zM418 116h1v1h-1zM417 117h1v1h-1zM418 117h1v1h-1zM419 117h1v1h-1zM420 117h1v1h-1zM421 117h1v1h-1zM422 117h1v1h-1zM424 109h1v1h-1zM425 109h1v1h-1zM426 109h1v1h-1zM427 109h1v1h-1zM428 109h1v1h-1zM429 109h1v1h-1zM424 110h1v1h-1zM425 110h1v1h-1zM424 111h1v1h-1zM425 111h1v1h-1zM424 112h1v1h-1zM425 112h1v1h-1zM424 113h1v1h-1zM425 113h1v1h-1zM426 113h1v1h-1zM427 113h1v1h-1zM428 113h1v1h-1zM424 114h1v1h-1zM425 114h1v1h-1zM424 115h1v1h-1zM425 115h1v1h-1zM424 116h1v1h-1zM425 116h1v1h-1zM424 117h1v1h-1zM425 117h1v1h-1zM426 117h1v1h-1zM427 117h1v1h-1zM428 117h1v1h-1zM429 117h1v1h-1z"/>
</g>
<rect x="389" y="126" width="91" height="1" fill="#ffffff"/>
<rect x="389" y="126" width="1" height="25" fill="#808080"/>
<rect x="479" y="126" width="1" height="25" fill="#ffffff"/>
<rect x="389" y="150" width="91" height="1" fill="#808080"/>
<rect x="390" y="127" width="89" height="23" fill="#e6e6e6"/>
<g data-font="x7x11b">
<path fill="#000000" d="M396 134h1v1h-1zM397 134h1v1h-1zM398 134h1v1h-1zM399 134h1v1h-1zM400 134h1v1h-1zM396 135h1v1h-1zM397 135h1v1h-1zM400 135h1v1h-1zM401 135h1v1h-1zM396 136h1v1h-1zM397 136h1v1h-1zM400 136h1v1h-1zM401 136h1v1h-1zM396 137h1v1h-1zM397 137h1v1h-1zM400 137h1v1h-1zM401 137h1v1h-1zM396 138h1v1h-1zM397 138h1v1h-1zM398 138h1v1h-1zM399 138h1v1h-1zM400 138h1v1h-1zM396 139h1v1h-1zM397 139h1v1h-1zM399 139h1v1h-1zM400 139h1v1h-1zM396 140h1v1h-1zM397 140h1v1h-1zM400 140h1v1h-1zM401 140h1v1h-1zM396 141h1v1h-1zM397 141h1v1h-1zM400 141h1v1h-1zM401 141h1v1h-1zM396 142h1v1h-1zM397 142h1v1h-1zM400 142h1v1h-1zM401 142h1v1h-1zM403 134h1v1h-1zM404 134h1v1h-1zM405 134h1v1h-1zM406 134h1v1h-1zM407 134h1v1h-1zM408 134h1v1h-1zM403 135h1v1h-1zM404 135h1v1h-1zM403 136h1v1h-1zM404 136h1v1h-1zM403 137h1v1h-1zM404 137h1v1h-1zM403 138h1v1h-1zM404 138h1v1h-1zM405 138h1v1h-1zM406 138h1v1h-1zM407 138h1v1h-1zM403 139h1v1h-1zM404 139h1v1h-1zM403 140h1v1h-1zM404 140h1v1h-1zM403 141h1v1h-1zM404 141h1v1h-1zM403 142h1v1h-1zM404 142h1v1h-1zM405 142h1v1h-1zM406 142h1v1h-1zM407 142h1v1h-1zM408 142h1v1h-1zM410 134h1v1h-1zM411 134h1v1h-1zM412 134h1v1h-1zM413 134h1v1h-1zM414 134h1v1h-1zM415 134h1v1h-1zM410 135h1v1h-1zM411 135h1v1h-1zM410 136h1v1h-1zM411 136h1v1h-1zM410 137h1v1h-1zM411 137h1v1h-1zM410 138h1v1h-1zM411 138h1v1h-1zM412 138h1v1h-1zM413 138h1v1h-1zM414 138h1v1h-1zM410 139h1v1h-1zM411 139h1v1h-1zM410 140h1v1h-1zM411 140h1v1h-1zM410 141h1v1h-1zM411 141h1v1h-1zM410 142h1v1h-1zM411 142h1v1h-1zM421 134h1v1h-1zM422 134h1v1h-1zM423 134h1v1h-1zM424 134h1v1h-1zM425 134h1v1h-1zM421 135h1v1h-1zM422 135h1v1h-1zM425 135h1v1h-1zM426 135h1v1h-1zM421 136h1v1h-1zM422 136h1v1h-1zM425 136h1v1h-1zM426 136h1v1h-1zM421 137h1v1h-1zM422 137h1v1h-1zM425 137h1v1h-1zM426 137h1v1h-1zM421 138h1v1h-1zM422 138h1v1h-1zM423 138h1v1h-1zM424 138h1v1h-1zM425 138h1v1h-1zM421 139h1v1h-1zM422 139h1v1h-1zM421 140h1v1h-1zM422 140h1v1h-1zM421 141h1v1h-1zM422 141h1v1h-1zM421 142h1v1h-1zM422 142h1v1h-1zM429 134h1v1h-1zM430 134h1v1h-1zM431 134h1v1h-1zM432 134h1v1h-1zM428 135h1v1h-1zM429 135h1v1h-1zM432 135h1v1h-1zM433 135h1v1h-1zM428 136h1v1h-1zM429 136h1v1h-1zM432 136h1v1h-1zM433 136h1v1h-1zM428 137h1v1h-1zM429 137h1v1h-1zM432 137h1v1h-1zM433 137h1v1h-1zM428 138h1v1h-1zM429 138h1v1h-1zM432 138h1v1h-1zM433 138h1v1h-1zM428 139h1v1h-1zM429 139h1v1h-1zM432 139h1v1h-1zM433 139h1v1h-1zM428 140h1v1h-1zM429 140h1v1h-1zM432 140h1v1h-1zM433 140h1v1h-1zM428 141h1v1h-1zM429 141h1v1h-1zM432 141h1v1h-1zM433 141h1v1h-1zM429 142h1v1h-1zM430 142h1v1h-1zM431 142h1v1h-1zM432 142h1v1h-1zM436 134h1v1h-1zM437 134h1v1h-1zM438 134h1v1h-1zM439 134h1v1h-1zM435 135h1v1h-1zM436 135h1v1h-1zM439 135h1v1h-1zM440 135h1v1h-1zM435 136h1v1h-1zM436 136h1v1h-1zM439 136h1v1h-1zM440 136h1v1h-1zM436 137h1v1h-1zM437 137h1v1h-1zM437 138h1v1h-1zM438 138h1v1h-1zM438 139h1v1h-1zM439 139h1v1h-1zM435 140h1v1h-1zM436 140h1v1h-1zM439 140h1v1h-1zM440 140h1v1h-1zM435 141h1v1h-1zM436 141h1v1h-1zM439 141h1v1h-1zM440 141h1v1h-1zM436 142h1v1h-1zM437 142h1v1h-1zM438 142h1v1h-1zM439 142h1v1h-1zM442 134h1v1h-1zM443 134h1v1h-1zM444 134h1v1h-1zM445 134h1v1h-1zM443 135h1v1h-1zM444 135h1v1h-1zM443 136h1v1h-1zM444 136h1v1h-1zM443 137h1v1h-1zM444 137h1v1h-1zM443 138h1v1h-1zM444 138h1v1h-1zM443 139h1v1h-1zM444 139h1v1h-1zM443 140h1v1h-1zM444 140h1v1h-1zM443 141h1v1h-1zM444 141h1v1h-1zM442 142h1v1h-1zM443 142h1v1h-1zM444 142h1v1h-1zM445 142h1v1h-1zM447 134h1v1h-1zM448 134h1v1h-1zM449 134h1v1h-1zM450 134h1v1h-1zM451 134h1v1h-1zM452 134h1v1h-1zM447 135h1v1h-1zM449 135h1v1h-1zM450 135h1v1h-1zM452 135h1v1h-1zM449 136h1v1h-1zM450 136h1v1h-1zM449 137h1v1h-1zM450 137h1v1h-1zM449 138h1v1h-1zM450 138h1v1h-1zM449 139h1v1h-1zM450 139h1v1h-1zM449 140h1v1h-1zM450 140h1v1h-1zM449 141h1v1h-1zM450 141h1v1h-1zM449 142h1v1h-1zM450 142h1v1h-1zM454 134h1v1h-1zM455 134h1v1h-1zM456 134h1v1h-1zM457 134h1v1h-1zM455 135h1v1h-1zM456 135h1v1h-1zM455 136h1v1h-1zM456 136h1v1h-1zM455 137h1v1h-1zM456 137h1v1h-1zM455 138h1v1h-1zM456 138h1v1h-1zM455 139h1v1h-1zM456 139h1v1h-1zM455 140h1v1h-1zM456 140h1v1h-1zM455 141h1v1h-1zM456 141h1v1h-1zM454 142h1v1h-1zM455 142h1v1h-1zM456 142h1v1h-1zM457 142h1v1h-1zM460 134h1v1h-1zM461 134h1v1h-1zM462 134h1v1h-1zM463 134h1v1h-1zM459 135h1v1h-1zM460 135h1v1h-1zM463 135h1v1h-1zM464 135h1v1h-1zM459 136h1v1h-1zM460 136h1v1h-1zM463 136h1v1h-1zM464 136h1v1h-1zM459 137h1v1h-1zM460 137h1v1h-1zM463 137h1v1h-1zM464 137h1v1h-1zM459 138h1v1h-1zM460 138h1v1h-1zM463 138h1v1h-1zM464 138h1v1h-1zM459 139h1v1h-1zM460 139h1v1h-1zM463 139h1v1h-1zM464 139h1v1h-1zM459 140h1v1h-1zM460 140h1v1h-1zM463 140h1v1h-1zM464 140h1v1h-1zM459 141h1v1h-1zM460 141h1v1h-1zM463 141h1v1h-1zM464 141h1v1h-1zM460 142h1v1h-1zM461 142h1v1h-1zM462 142h1v1h-1zM463 142h1v1h-1zM466 134h1v1h-1zM467 134h1v1h-1zM470 134h1v1h-1zM471 134h1v1h-1zM466 135h1v1h-1zM467 135h1v1h-1zM470 135h1v1h-1zM471 135h1v1h-1zM466 136h1v1h-1zM467 136h1v1h-1zM468 136h1v1h-1zM470 136h1v1h-1zM471 136h1v1h-1zM466 137h1v1h-1zM467 137h1v1h-1zM468 137h1v1h-1zM470 137h1v1h-1zM471 137h1v1h-1zM466 138h1v1h-1zM467 138h1v1h-1zM468 138h1v1h-1zM469 138h1v1h-1zM470 138h1v1h-1zM471 138h1v1h-1zM466 139h1v1h-1zM467 139h1v1h-1zM469 139h1v1h-1zM470 139h1v1h-1zM471 139h1v1h-1zM466 140h1v1h-1zM467 140h1v1h-1zM469 140h1v1h-1zM470 140h1v1h-1zM471 140h1v1h-1zM466 141h1v1h-1zM467 141h1v1h-1zM470 141h1v1h-1zM471 141h1v1h-1zM466 142h1v1h-1zM467 142h1v1h-1zM470 142h1v1h-1zM471 142h1v1h-1z"/>
</g>
<rect x="389" y="151" width="91" height="1" fill="#ffffff"/>
<rect x="389" y="151" width="1" height="25" fill="#808080"/>
<rect x="479" y="151" width="1" height="25" fill="#ffffff"/>
<rect x="389" y="175" width="91" height="1" fill="#808080"/>
<rect x="390" y="152" width="89" height="23" fill="#e6e6e6"/>
<g data-font="x7x11b">
<path fill="#000000" d="M396 159h1v1h-1zM397 159h1v1h-1zM398 159h1v1h-1zM399 159h1v1h-1zM400 159h1v1h-1zM401 159h1v1h-1zM396 160h1v1h-1zM397 160h1v1h-1zM396 161h1v1h-1zM397 161h1v1h-1zM396 162h1v1h-1zM397 162h1v1h-1zM396 163h1v1h-1zM397 163h1v1h-1zM398 163h1v1h-1zM399 163h1v1h-1zM400 163h1v1h-1zM396 164h1v1h-1zM397 164h1v1h-1zM396 165h1v1h-1zM397 165h1v1h-1zM396 166h1v1h-1zM397 166h1v1h-1zM396 167h1v1h-1zM397 167h1v1h-1zM398 167h1v1h-1zM399 167h1v1h-1zM400 167h1v1h-1zM401 167h1v1h-1zM403 163h1v1h-1zM404 163h1v1h-1zM405 163h1v1h-1zM406 163h1v1h-1zM407 163h1v1h-1zM408 163h1v1h-1zM403 164h1v1h-1zM404 164h1v1h-1zM405 164h1v1h-1zM406 164h1v1h-1zM407 164h1v1h-1zM408 164h1v1h-1zM410 159h1v1h-1zM411 159h1v1h-1zM412 159h1v1h-1zM413 159h1v1h-1zM414 159h1v1h-1zM410 160h1v1h-1zM411 160h1v1h-1zM414 160h1v1h-1zM415 160h1v1h-1zM410 161h1v1h-1zM411 161h1v1h-1zM414 161h1v1h-1zM415 161h1v1h-1zM410 162h1v1h-1zM411 162h1v1h-1zM414 162h1v1h-1zM415 162h1v1h-1zM410 163h1v1h-1zM411 163h1v1h-1zM414 163h1v1h-1zM415 163h1v1h-1zM410 164h1v1h-1zM411 164h1v1h-1zM414 164h1v1h-1zM415 164h1v1h-1zM410 165h1v1h-1zM411 165h1v1h-1zM414 165h1v1h-1zM415 165h1v1h-1zM410 166h1v1h-1zM411 166h1v1h-1zM414 166h1v1h-1zM415 166h1v1h-1zM410 167h1v1h-1zM411 167h1v1h-1zM412 167h1v1h-1zM413 167h1v1h-1zM414 167h1v1h-1zM417 159h1v1h-1zM418 159h1v1h-1zM419 159h1v1h-1zM420 159h1v1h-1zM421 159h1v1h-1zM422 159h1v1h-1zM417 160h1v1h-1zM418 160h1v1h-1zM417 161h1v1h-1zM418 161h1v1h-1zM417 162h1v1h-1zM418 162h1v1h-1zM417 163h1v1h-1zM418 163h1v1h-1zM419 163h1v1h-1zM420 163h1v1h-1zM421 163h1v1h-1zM417 164h1v1h-1zM418 164h1v1h-1zM417 165h1v1h-1zM418 165h1v1h-1zM417 166h1v1h-1zM418 166h1v1h-1zM417 167h1v1h-1zM418 167h1v1h-1zM419 167h1v1h-1zM420 167h1v1h-1zM421 167h1v1h-1zM422 167h1v1h-1zM424 159h1v1h-1zM425 159h1v1h-1zM424 160h1v1h-1zM425 160h1v1h-1zM424 161h1v1h-1zM425 161h1v1h-1zM424 162h1v1h-1zM425 162h1v1h-1zM424 163h1v1h-1zM425 163h1v1h-1zM424 164h1v1h-1zM425 164h1v1h-1zM424 165h1v1h-1zM425 165h1v1h-1zM424 166h1v1h-1zM425 166h1v1h-1zM424 167h1v1h-1zM425 167h1v1h-1zM426 167h1v1h-1zM427 167h1v1h-1zM428 167h1v1h-1zM429 167h1v1h-1zM432 159h1v1h-1zM433 159h1v1h-1zM434 159h1v1h-1zM435 159h1v1h-1zM431 160h1v1h-1zM432 160h1v1h-1zM435 160h1v1h-1zM436 160h1v1h-1zM431 161h1v1h-1zM432 161h1v1h-1zM435 161h1v1h-1zM436 161h1v1h-1zM431 162h1v1h-1zM432 162h1v1h-1zM435 162h1v1h-1zM436 162h1v1h-1zM431 163h1v1h-1zM432 163h1v1h-1zM433 163h1v1h-1zM434 163h1v1h-1zM435 163h1v1h-1zM436 163h1v1h-1zM431 164h1v1h-1zM432 164h1v1h-1zM435 164h1v1h-1zM436 164h1v1h-1zM431 165h1v1h-1zM432 165h1v1h-1zM435 165h1v1h-1zM436 165h1v1h-1zM431 166h1v1h-1zM432 166h1v1h-1zM435 166h1v1h-1zM436 166h1v1h-1zM431 167h1v1h-1zM432 167h1v1h-1zM435 167h1v1h-1zM436 167h1v1h-1zM438 159h1v1h-1zM439 159h1v1h-1zM442 159h1v1h-1zM443 159h1v1h-1zM438 160h1v1h-1zM439 160h1v1h-1zM442 160h1v1h-1zM443 160h1v1h-1zM438 161h1v1h-1zM439 161h1v1h-1zM442 161h1v1h-1zM443 161h1v1h-1zM438 162h1v1h-1zM439 162h1v1h-1zM442 162h1v1h-1zM443 162h1v1h-1zM439 163h1v1h-1zM440 163h1v1h-1zM441 163h1v1h-1zM442 163h1v1h-1zM440 164h1v1h-1zM441 164h1v1h-1zM440 165h1v1h-1zM441 165h1v1h-1zM440 166h1v1h-1zM441 166h1v1h-1zM440 167h1v1h-1zM441 167h1v1h-1z"/>
</g>
<rect x="389" y="176" width="91" height="1" fill="#ffffff"/>
<rect x="389" y="176" width="1" height="25" fill="#808080"/>
<rect x="479" y="176" width="1" height="25" fill="#ffffff"/>
<rect x="389" y="200" width="91" height="1" fill="#808080"/>
<rect x="390" y="177" width="89" height="23" fill="#e6e6e6"/>
<g data-font="x7x11b">
<path fill="#000000" d="M397 178h1v1h-1zM398 178h1v1h-1zM399 178h1v1h-1zM400 178h1v1h-1zM396 179h1v1h-1zM397 179h1v1h-1zM400 179h1v1h-1zM401 179h1v1h-1zM396 180h1v1h-1zM397 180h1v1h-1zM400 180h1v1h-1zM401 180h1v1h-1zM397 181h1v1h-1zM398 181h1v1h-1zM398 182h1v1h-1zM399 182h1v1h-1zM399 183h1v1h-1zM400 183h1v1h-1zM396 184h1v1h-1zM397 184h1v1h-1zM400 184h1v1h-1zM401 184h1v1h-1zM396 185h1v1h-1zM397 185h1v1h-1zM400 185h1v1h-1zM401 185h1v1h-1zM397 186h1v1h-1zM398 186h1v1h-1zM399 186h1v1h-1zM400 186h1v1h-1zM404 178h1v1h-1zM405 178h1v1h-1zM406 178h1v1h-1zM407 178h1v1h-1zM403 179h1v1h-1zM404 179h1v1h-1zM407 179h1v1h-1zM408 179h1v1h-1zM403 180h1v1h-1zM404 180h1v1h-1zM407 180h1v1h-1zM408 180h1v1h-1zM407 181h1v1h-1zM408 181h1v1h-1zM405 182h1v1h-1zM406 182h1v1h-1zM407 182h1v1h-1zM404 183h1v1h-1zM405 183h1v1h-1zM403 184h1v1h-1zM404 184h1v1h-1zM403 185h1v1h-1zM404 185h1v1h-1zM403 186h1v1h-1zM404 186h1v1h-1zM405 186h1v1h-1zM406 186h1v1h-1zM407 186h1v1h-1zM408 186h1v1h-1zM412 178h1v1h-1zM413 178h1v1h-1zM411 179h1v1h-1zM412 179h1v1h-1zM413 179h1v1h-1zM410 180h1v1h-1zM412 180h1v1h-1zM413 180h1v1h-1zM412 181h1v1h-1zM413 181h1v1h-1zM412 182h1v1h-1zM413 182h1v1h-1zM412 183h1v1h-1zM413 183h1v1h-1zM412 184h1v1h-1zM413 184h1v1h-1zM412 185h1v1h-1zM413 185h1v1h-1zM410 186h1v1h-1zM411 186h1v1h-1zM412 186h1v1h-1zM413 186h1v1h-1zM414 186h1v1h-1zM415 186h1v1h-1zM422 178h1v1h-1zM423 178h1v1h-1zM424 178h1v1h-1zM425 178h1v1h-1zM421 179h1v1h-1zM422 179h1v1h-1zM425 179h1v1h-1zM426 179h1v1h-1zM421 180h1v1h-1zM422 180h1v1h-1zM425 180h1v1h-1zM426 180h1v1h-1zM421 181h1v1h-1zM422 181h1v1h-1zM425 181h1v1h-1zM426 181h1v1h-1zM421 182h1v1h-1zM422 182h1v1h-1zM425 182h1v1h-1zM426 182h1v1h-1zM421 183h1v1h-1zM422 183h1v1h-1zM425 183h1v1h-1zM426 183h1v1h-1zM421 184h1v1h-1zM422 184h1v1h-1zM425 184h1v1h-1zM426 184h1v1h-1zM421 185h1v1h-1zM422 185h1v1h-1zM425 185h1v1h-1zM426 185h1v1h-1zM422 186h1v1h-1zM423 186h1v1h-1zM424 186h1v1h-1zM425 186h1v1h-1zM428 178h1v1h-1zM429 178h1v1h-1zM430 178h1v1h-1zM431 178h1v1h-1zM432 178h1v1h-1zM433 178h1v1h-1zM428 179h1v1h-1zM429 179h1v1h-1zM428 180h1v1h-1zM429 180h1v1h-1zM428 181h1v1h-1zM429 181h1v1h-1zM428 182h1v1h-1zM429 182h1v1h-1zM430 182h1v1h-1zM431 182h1v1h-1zM432 182h1v1h-1zM428 183h1v1h-1zM429 183h1v1h-1zM428 184h1v1h-1zM429 184h1v1h-1zM428 185h1v1h-1zM429 185h1v1h-1zM428 186h1v1h-1zM429 186h1v1h-1zM435 178h1v1h-1zM436 178h1v1h-1zM437 178h1v1h-1zM438 178h1v1h-1zM439 178h1v1h-1zM440 178h1v1h-1zM435 179h1v1h-1zM436 179h1v1h-1zM435 180h1v1h-1zM436 180h1v1h-1zM435 181h1v1h-1zM436 181h1v1h-1zM435 182h1v1h-1zM436 182h1v1h-1zM437 182h1v1h-1zM438 182h1v1h-1zM439 182h1v1h-1zM435 183h1v1h-1zM436 183h1v1h-1zM435 184h1v1h-1zM436 184h1v1h-1zM435 185h1v1h-1zM436 185h1v1h-1zM435 186h1v1h-1zM436 186h1v1h-1zM443 178h1v1h-1zM444 178h1v1h-1zM445 178h1v1h-1zM446 178h1v1h-1zM442 179h1v1h-1zM443 179h1v1h-1zM446 179h1v1h-1zM447 179h1v1h-1zM442 180h1v1h-1zM443 180h1v1h-1zM446 180h1v1h-1zM447 180h1v1h-1zM443 181h1v1h-1zM444 181h1v1h-1zM444 182h1v1h-1zM445 182h1v1h-1zM445 183h1v1h-1zM446 183h1v1h-1zM442 184h1v1h-1zM443 184h1v1h-1zM446 184h1v1h-1zM447 184h1v1h-1zM442 185h1v1h-1zM443 185h1v1h-1zM446 185h1v1h-1zM447 185h1v1h-1zM443 186h1v1h-1zM444 186h1v1h-1zM445 186h1v1h-1zM446 186h1v1h-1zM449 178h1v1h-1zM450 178h1v1h-1zM451 178h1v1h-1zM452 178h1v1h-1zM453 178h1v1h-1zM454 178h1v1h-1zM449 179h1v1h-1zM450 179h1v1h-1zM449 180h1v1h-1zM450 180h1v1h-1zM449 181h1v1h-1zM450 181h1v1h-1zM449 182h1v1h-1zM450 182h1v1h-1zM451 182h1v1h-1zM452 182h1v1h-1zM453 182h1v1h-1zM449 183h1v1h-1zM450 183h1v1h-1zM449 184h1v1h-1zM450 184h1v1h-1zM449 185h1v1h-1zM450 185h1v1h-1zM449 186h1v1h-1zM450 186h1v1h-1zM451 186h1v1h-1zM452 186h1v1h-1zM453 186h1v1h-1zM454 186h1v1h-1zM456 178h1v1h-1zM457 178h1v1h-1zM458 178h1v1h-1zM459 178h1v1h-1zM460 178h1v1h-1zM461 178h1v1h-1zM456 179h1v1h-1zM458 179h1v1h-1zM459 179h1v1h-1zM461 179h1v1h-1zM458 180h1v1h-1zM459 180h1v1h-1zM458 181h1v1h-1zM459 181h1v1h-1zM458 182h1v1h-1zM459 182h1v1h-1zM458 183h1v1h-1zM459 183h1v1h-1zM458 184h1v1h-1zM459 184h1v1h-1zM458 185h1v1h-1zM459 185h1v1h-1zM458 186h1v1h-1zM459 186h1v1h-1z"/>

<path fill="#0000c0" d="M401 189h1v1h-1zM402 189h1v1h-1zM403 189h1v1h-1zM404 189h1v1h-1zM400 190h1v1h-1zM401 190h1v1h-1zM404 190h1v1h-1zM405 190h1v1h-1zM400 191h1v1h-1zM401 191h1v1h-1zM404 191h1v1h-1zM405 191h1v1h-1zM400 192h1v1h-1zM401 192h1v1h-1zM403 192h1v1h-1zM404 192h1v1h-1zM405 192h1v1h-1zM400 193h1v1h-1zM401 193h1v1h-1zM402 193h1v1h-1zM404 193h1v1h-1zM405 193h1v1h-1zM400 194h1v1h-1zM401 194h1v1h-1zM404 194h1v1h-1zM405 194h1v1h-1zM400 195h1v1h-1zM401 195h1v1h-1zM404 195h1v1h-1zM405 195h1v1h-1zM400 196h1v1h-1zM401 196h1v1h-1zM404 196h1v1h-1zM405 196h1v1h-1zM401 197h1v1h-1zM402 197h1v1h-1zM403 197h1v1h-1zM404 197h1v1h-1zM408 195h1v1h-1zM407 196h1v1h-1zM408 196h1v1h-1zM409 196h1v1h-1zM408 197h1v1h-1zM412 189h1v1h-1zM413 189h1v1h-1zM414 189h1v1h-1zM415 189h1v1h-1zM411 190h1v1h-1zM412 190h1v1h-1zM415 190h1v1h-1zM416 190h1v1h-1zM411 191h1v1h-1zM412 191h1v1h-1zM415 191h1v1h-1zM416 191h1v1h-1zM411 192h1v1h-1zM412 192h1v1h-1zM414 192h1v1h-1zM415 192h1v1h-1zM416 192h1v1h-1zM411 193h1v1h-1zM412 193h1v1h-1zM413 193h1v1h-1zM415 193h1v1h-1zM416 193h1v1h-1zM411 194h1v1h-1zM412 194h1v1h-1zM415 194h1v1h-1zM416 194h1v1h-1zM411 195h1v1h-1zM412 195h1v1h-1zM415 195h1v1h-1zM416 195h1v1h-1zM411 196h1v1h-1zM412 196h1v1h-1zM415 196h1v1h-1zM416 196h1v1h-1zM412 197h1v1h-1zM413 197h1v1h-1zM414 197h1v1h-1zM415 197h1v1h-1zM419 189h1v1h-1zM420 189h1v1h-1zM421 189h1v1h-1zM422 189h1v1h-1zM418 190h1v1h-1zM419 190h1v1h-1zM422 190h1v1h-1zM423 190h1v1h-1zM418 191h1v1h-1zM419 191h1v1h-1zM422 191h1v1h-1zM423 191h1v1h-1zM418 192h1v1h-1zM419 192h1v1h-1zM421 192h1v1h-1zM422 192h1v1h-1zM423 192h1v1h-1zM418 193h1v1h-1zM419 193h1v1h-1zM420 193h1v1h-1zM422 193h1v1h-1zM423 193h1v1h-1zM418 194h1v1h-1zM419 194h1v1h-1zM422 194h1v1h-1zM423 194h1v1h-1zM418 195h1v1h-1zM419 195h1v1h-1zM422 195h1v1h-1zM423 195h1v1h-1zM418 196h1v1h-1zM419 196h1v1h-1zM422 196h1v1h-1zM423 196h1v1h-1zM419 197h1v1h-1zM420 197h1v1h-1zM421 197h1v1h-1zM422 197h1v1h-1zM426 189h1v1h-1zM427 189h1v1h-1zM428 189h1v1h-1zM429 189h1v1h-1zM425 190h1v1h-1zM426 190h1v1h-1zM429 190h1v1h-1zM430 190h1v1h-1zM425 191h1v1h-1zM426 191h1v1h-1zM429 191h1v1h-1zM430 191h1v1h-1zM425 192h1v1h-1zM426 192h1v1h-1zM428 192h1v1h-1zM429 192h1v1h-1zM430 192h1v1h-1zM425 193h1v1h-1zM426 193h1v1h-1zM427 193h1v1h-1zM429 193h1v1h-1zM430 193h1v1h-1zM425 194h1v1h-1zM426 194h1v1h-1zM429 194h1v1h-1zM430 194h1v1h-1zM425 195h1v1h-1zM426 195h1v1h-1zM429 195h1v1h-1zM430 195h1v1h-1zM425 196h1v1h-1zM426 196h1v1h-1zM429 196h1v1h-1zM430 196h1v1h-1zM426 197h1v1h-1zM427 197h1v1h-1zM428 197h1v1h-1zM429 197h1v1h-1zM436 189h1v1h-1zM437 189h1v1h-1zM436 190h1v1h-1zM437 190h1v1h-1zM436 191h1v1h-1zM437 191h1v1h-1zM433 192h1v1h-1zM434 192h1v1h-1zM436 192h1v1h-1zM437 192h1v1h-1zM432 193h1v1h-1zM433 193h1v1h-1zM435 193h1v1h-1zM436 193h1v1h-1zM437 193h1v1h-1zM432 194h1v1h-1zM433 194h1v1h-1zM436 194h1v1h-1zM437 194h1v1h-1zM432 195h1v1h-1zM433 195h1v1h-1zM436 195h1v1h-1zM437 195h1v1h-1zM432 196h1v1h-1zM433 196h1v1h-1zM435 196h1v1h-1zM436 196h1v1h-1zM437 196h1v1h-1zM433 197h1v1h-1zM434 197h1v1h-1zM436 197h1v1h-1zM437 197h1v1h-1zM439 189h1v1h-1zM440 189h1v1h-1zM441 189h1v1h-1zM442 189h1v1h-1zM443 189h1v1h-1zM439 190h1v1h-1zM440 190h1v1h-1zM443 190h1v1h-1zM444 190h1v1h-1zM439 191h1v1h-1zM440 191h1v1h-1zM443 191h1v1h-1zM444 191h1v1h-1zM439 192h1v1h-1zM440 192h1v1h-1zM443 192h1v1h-1zM444 192h1v1h-1zM439 193h1v1h-1zM440 193h1v1h-1zM441 193h1v1h-1zM442 193h1v1h-1zM443 193h1v1h-1zM439 194h1v1h-1zM440 194h1v1h-1zM443 194h1v1h-1zM444 194h1v1h-1zM439 195h1v1h-1zM440 195h1v1h-1zM443 195h1v1h-1zM444 195h1v1h-1zM439 196h1v1h-1zM440 196h1v1h-1zM443 196h1v1h-1zM444 196h1v1h-1zM439 197h1v1h-1zM440 197h1v1h-1zM441 197h1v1h-1zM442 197h1v1h-1zM443 197h1v1h-1z"/>
</g>
<rect x="389" y="201" width="91" height="1" fill="#ffffff"/>
<rect x="389" y="201" width="1" height="25" fill="#808080"/>
<rect x="479" y="201" width="1" height="25" fill="#ffffff"/>
<rect x="389" y="225" width="91" height="1" fill="#808080"/>
<rect x="390" y="202" width="89" height="23" fill="#e6e6e6"/>
<g data-font="x7x11b">
<path fill="#000000" d="M397 203h1v1h-1zM398 203h1v1h-1zM399 203h1v1h-1zM400 203h1v1h-1zM396 204h1v1h-1zM397 204h1v1h-1zM400 204h1v1h-1zM401 204h1v1h-1zM396 205h1v1h-1zM397 205h1v1h-1zM400 205h1v1h-1zM401 205h1v1h-1zM397 206h1v1h-1zM398 206h1v1h-1zM398 207h1v1h-1zM399 207h1v1h-1zM399 208h1v1h-1zM400 208h1v1h-1zM396 209h1v1h-1zM397 209h1v1h-1zM400 209h1v1h-1zM401 209h1v1h-1zM396 210h1v1h-1zM397 210h1v1h-1zM400 210h1v1h-1zM401 210h1v1h-1zM397 211h1v1h-1zM398 211h1v1h-1zM399 211h1v1h-1zM400 211h1v1h-1zM403 203h1v1h-1zM404 203h1v1h-1zM407 203h1v1h-1zM408 203h1v1h-1zM403 204h1v1h-1zM404 204h1v1h-1zM407 204h1v1h-1zM408 204h1v1h-1zM403 205h1v1h-1zM404 205h1v1h-1zM407 205h1v1h-1zM408 205h1v1h-1zM403 206h1v1h-1zM404 206h1v1h-1zM407 206h1v1h-1zM408 206h1v1h-1zM403 207h1v1h-1zM404 207h1v1h-1zM405 207h1v1h-1zM406 207h1v1h-1zM407 207h1v1h-1zM408 207h1v1h-1zM403 208h1v1h-1zM404 208h1v1h-1zM407 208h1v1h-1zM408 208h1v1h-1zM403 209h1v1h-1zM404 209h1v1h-1zM407 209h1v1h-1zM408 209h1v1h-1zM403 210h1v1h-1zM404 210h1v1h-1zM407 210h1v1h-1zM408 210h1v1h-1zM403 211h1v1h-1zM404 211h1v1h-1zM407 211h1v1h-1zM408 211h1v1h-1zM411 203h1v1h-1zM412 203h1v1h-1zM413 203h1v1h-1zM414 203h1v1h-1zM410 204h1v1h-1zM411 204h1v1h-1zM414 204h1v1h-1zM415 204h1v1h-1zM410 205h1v1h-1zM411 205h1v1h-1zM414 205h1v1h-1zM415 205h1v1h-1zM410 206h1v1h-1zM411 206h1v1h-1zM414 206h1v1h-1zM415 206h1v1h-1zM410 207h1v1h-1zM411 207h1v1h-1zM414 207h1v1h-1zM415 207h1v1h-1zM410 208h1v1h-1zM411 208h1v1h-1zM414 208h1v1h-1zM415 208h1v1h-1zM410 209h1v1h-1zM411 209h1v1h-1zM414 209h1v1h-1zM415 209h1v1h-1zM410 210h1v1h-1zM411 210h1v1h-1zM414 210h1v1h-1zM415 210h1v1h-1zM411 211h1v1h-1zM412 211h1v1h-1zM413 211h1v1h-1zM414 211h1v1h-1zM417 203h1v1h-1zM418 203h1v1h-1zM422 203h1v1h-1zM423 203h1v1h-1zM417 204h1v1h-1zM418 204h1v1h-1zM422 204h1v1h-1zM423 204h1v1h-1zM417 205h1v1h-1zM418 205h1v1h-1zM422 205h1v1h-1zM423 205h1v1h-1zM417 206h1v1h-1zM418 206h1v1h-1zM420 206h1v1h-1zM422 206h1v1h-1zM423 206h1v1h-1zM417 207h1v1h-1zM418 207h1v1h-1zM420 207h1v1h-1zM422 207h1v1h-1zM423 207h1v1h-1zM417 208h1v1h-1zM418 208h1v1h-1zM420 208h1v1h-1zM422 208h1v1h-1zM423 208h1v1h-1zM417 209h1v1h-1zM418 209h1v1h-1zM420 209h1v1h-1zM422 209h1v1h-1zM423 209h1v1h-1zM417 210h1v1h-1zM418 210h1v1h-1zM419 210h1v1h-1zM420 210h1v1h-1zM421 210h1v1h-1zM422 210h1v1h-1zM423 210h1v1h-1zM418 211h1v1h-1zM419 211h1v1h-1zM421 211h1v1h-1zM422 211h1v1h-1zM430 203h1v1h-1zM431 203h1v1h-1zM432 203h1v1h-1zM433 203h1v1h-1zM429 204h1v1h-1zM430 204h1v1h-1zM433 204h1v1h-1zM434 204h1v1h-1zM429 205h1v1h-1zM430 205h1v1h-1zM433 205h1v1h-1zM434 205h1v1h-1zM429 206h1v1h-1zM430 206h1v1h-1zM429 207h1v1h-1zM430 207h1v1h-1zM429 208h1v1h-1zM430 208h1v1h-1zM432 208h1v1h-1zM433 208h1v1h-1zM434 208h1v1h-1zM429 209h1v1h-1zM430 209h1v1h-1zM433 209h1v1h-1zM434 209h1v1h-1zM429 210h1v1h-1zM430 210h1v1h-1zM432 210h1v1h-1zM433 210h1v1h-1zM434 210h1v1h-1zM430 211h1v1h-1zM431 211h1v1h-1zM433 211h1v1h-1zM434 211h1v1h-1zM436 203h1v1h-1zM437 203h1v1h-1zM438 203h1v1h-1zM439 203h1v1h-1zM440 203h1v1h-1zM436 204h1v1h-1zM437 204h1v1h-1zM440 204h1v1h-1zM441 204h1v1h-1zM436 205h1v1h-1zM437 205h1v1h-1zM440 205h1v1h-1zM441 205h1v1h-1zM436 206h1v1h-1zM437 206h1v1h-1zM440 206h1v1h-1zM441 206h1v1h-1zM436 207h1v1h-1zM437 207h1v1h-1zM438 207h1v1h-1zM439 207h1v1h-1zM440 207h1v1h-1zM436 208h1v1h-1zM437 208h1v1h-1zM439 208h1v1h-1zM440 208h1v1h-1zM436 209h1v1h-1zM437 209h1v1h-1zM440 209h1v1h-1zM441 209h1v1h-1zM436 210h1v1h-1zM437 210h1v1h-1zM440 210h1v1h-1zM441 210h1v1h-1zM436 211h1v1h-1zM437 211h1v1h-1zM440 211h1v1h-1zM441 211h1v1h-1zM443 203h1v1h-1zM444 203h1v1h-1zM445 203h1v1h-1zM446 203h1v1h-1zM444 204h1v1h-1zM445 204h1v1h-1zM444 205h1v1h-1zM445 205h1v1h-1zM444 206h1v1h-1zM445 206h1v1h-1zM444 207h1v1h-1zM445 207h1v1h-1zM444 208h1v1h-1zM445 208h1v1h-1zM444 209h1v1h-1zM445 209h1v1h-1zM444 210h1v1h-1zM445 210h1v1h-1zM443 211h1v1h-1zM444 211h1v1h-1zM445 211h1v1h-1zM446 211h1v1h-1zM448 203h1v1h-1zM449 203h1v1h-1zM450 203h1v1h-1zM451 203h1v1h-1zM452 203h1v1h-1zM448 204h1v1h-1zM449 204h1v1h-1zM452 204h1v1h-1zM453 204h1v1h-1zM448 205h1v1h-1zM449 205h1v1h-1zM452 205h1v1h-1zM453 205h1v1h-1zM448 206h1v1h-1zM449 206h1v1h-1zM452 206h1v1h-1zM453 206h1v1h-1zM448 207h1v1h-1zM449 207h1v1h-1zM452 207h1v1h-1zM453 207h1v1h-1zM448 208h1v1h-1zM449 208h1v1h-1zM452 208h1v1h-1zM453 208h1v1h-1zM448 209h1v1h-1zM449 209h1v1h-1zM452 209h1v1h-1zM453 209h1v1h-1zM448 210h1v1h-1zM449 210h1v1h-1zM452 210h1v1h-1zM453 210h1v1h-1zM448 211h1v1h-1zM449 211h1v1h-1zM450 211h1v1h-1zM451 211h1v1h-1zM452 211h1v1h-1z"/>
<path fill="#000000" d="M396 214h1v1h-1zM397 214h1v1h-1zM401 214h1v1h-1zM402 214h1v1h-1zM396 215h1v1h-1zM397 215h1v1h-1zM401 215h1v1h-1zM402 215h1v1h-1zM396 216h1v1h-1zM397 216h1v1h-1zM401 216h1v1h-1zM402 216h1v1h-1zM397 217h1v1h-1zM398 217h1v1h-1zM400 217h1v1h-1zM401 217h1v1h-1zM397 218h1v1h-1zM398 218h1v1h-1zM400 218h1v1h-1zM401 218h1v1h-1zM397 219h1v1h-1zM398 219h1v1h-1zM400 219h1v1h-1zM401 219h1v1h-1zM398 220h1v1h-1zM399 220h1v1h-1zM400 220h1v1h-1zM398 221h1v1h-1zM399 221h1v1h-1zM400 221h1v1h-1zM399 222h1v1h-1zM405 214h1v1h-1zM406 214h1v1h-1zM407 214h1v1h-1zM408 214h1v1h-1zM404 215h1v1h-1zM405 215h1v1h-1zM408 215h1v1h-1zM409 215h1v1h-1zM404 216h1v1h-1zM405 216h1v1h-1zM408 216h1v1h-1zM409 216h1v1h-1zM404 217h1v1h-1zM405 217h1v1h-1zM408 217h1v1h-1zM409 217h1v1h-1zM404 218h1v1h-1zM405 218h1v1h-1zM406 218h1v1h-1zM407 218h1v1h-1zM408 218h1v1h-1zM409 218h1v1h-1zM404 219h1v1h-1zM405 219h1v1h-1zM408 219h1v1h-1zM409 219h1v1h-1zM404 220h1v1h-1zM405 220h1v1h-1zM408 220h1v1h-1zM409 220h1v1h-1zM404 221h1v1h-1zM405 221h1v1h-1zM408 221h1v1h-1zM409 221h1v1h-1zM404 222h1v1h-1zM405 222h1v1h-1zM408 222h1v1h-1zM409 222h1v1h-1zM411 214h1v1h-1zM412 214h1v1h-1zM411 215h1v1h-1zM412 215h1v1h-1zM411 216h1v1h-1zM412 216h1v1h-1zM411 217h1v1h-1zM412 217h1v1h-1zM411 218h1v1h-1zM412 218h1v1h-1zM411 219h1v1h-1zM412 219h1v1h-1zM411 220h1v1h-1zM412 220h1v1h-1zM411 221h1v1h-1zM412 221h1v1h-1zM411 222h1v1h-1zM412 222h1v1h-1zM413 222h1v1h-1zM414 222h1v1h-1zM415 222h1v1h-1zM416 222h1v1h-1zM418 214h1v1h-1zM419 214h1v1h-1zM422 214h1v1h-1zM423 214h1v1h-1zM418 215h1v1h-1zM419 215h1v1h-1zM422 215h1v1h-1zM423 215h1v1h-1zM418 216h1v1h-1zM419 216h1v1h-1zM422 216h1v1h-1zM423 216h1v1h-1zM418 217h1v1h-1zM419 217h1v1h-1zM422 217h1v1h-1zM423 217h1v1h-1zM418 218h1v1h-1zM419 218h1v1h-1zM422 218h1v1h-1zM423 218h1v1h-1zM418 219h1v1h-1zM419 219h1v1h-1zM422 219h1v1h-1zM423 219h1v1h-1zM418 220h1v1h-1zM419 220h1v1h-1zM422 220h1v1h-1zM423 220h1v1h-1zM418 221h1v1h-1zM419 221h1v1h-1zM422 221h1v1h-1zM423 221h1v1h-1zM419 222h1v1h-1zM420 222h1v1h-1zM421 222h1v1h-1zM422 222h1v1h-1zM425 214h1v1h-1zM426 214h1v1h-1zM427 214h1v1h-1zM428 214h1v1h-1zM429 214h1v1h-1zM430 214h1v1h-1zM425 215h1v1h-1zM426 215h1v1h-1zM425 216h1v1h-1zM426 216h1v1h-1zM425 217h1v1h-1zM426 217h1v1h-1zM425 218h1v1h-1zM426 218h1v1h-1zM427 218h1v1h-1zM428 218h1v1h-1zM429 218h1v1h-1zM425 219h1v1h-1zM426 219h1v1h-1zM425 220h1v1h-1zM426 220h1v1h-1zM425 221h1v1h-1zM426 221h1v1h-1zM425 222h1v1h-1zM426 222h1v1h-1zM427 222h1v1h-1zM428 222h1v1h-1zM429 222h1v1h-1zM430 222h1v1h-1zM433 214h1v1h-1zM434 214h1v1h-1zM435 214h1v1h-1zM436 214h1v1h-1zM432 215h1v1h-1zM433 215h1v1h-1zM436 215h1v1h-1zM437 215h1v1h-1zM432 216h1v1h-1zM433 216h1v1h-1zM436 216h1v1h-1zM437 216h1v1h-1zM433 217h1v1h-1zM434 217h1v1h-1zM434 218h1v1h-1zM435 218h1v1h-1zM435 219h1v1h-1zM436 219h1v1h-1zM432 220h1v1h-1zM433 220h1v1h-1zM436 220h1v1h-1zM437 220h1v1h-1zM432 221h1v1h-1zM433 221h1v1h-1zM436 221h1v1h-1zM437 221h1v1h-1zM433 222h1v1h-1zM434 222h1v1h-1zM435 222h1v1h-1zM436 222h1v1h-1z"/>
</g>
<rect x="389" y="226" width="91" height="1" fill="#ffffff"/>
<rect x="389" y="226" width="1" height="25" fill="#808080"/>
<rect x="479" y="226" width="1" height="25" fill="#ffffff"/>
<rect x="389" y="250" width="91" height="1" fill="#808080"/>
<rect x="390" y="227" width="89" height="23" fill="#e6e6e6"/>
<g data-font="x7x11b">
<path fill="#000000" d="M396 234h1v1h-1zM397 234h1v1h-1zM398 234h1v1h-1zM399 234h1v1h-1zM400 234h1v1h-1zM396 235h1v1h-1zM397 235h1v1h-1zM400 235h1v1h-1zM401 235h1v1h-1zM396 236h1v1h-1zM397 236h1v1h-1zM400 236h1v1h-1zM401 236h1v1h-1zM396 237h1v1h-1zM397 237h1v1h-1zM400 237h1v1h-1zM401 237h1v1h-1zM396 238h1v1h-1zM397 238h1v1h-1zM400 238h1v1h-1zM401 238h1v1h-1zM396 239h1v1h-1zM397 239h1v1h-1zM400 239h1v1h-1zM401 239h1v1h-1zM396 240h1v1h-1zM397 240h1v1h-1zM400 240h1v1h-1zM401 240h1v1h-1zM396 241h1v1h-1zM397 241h1v1h-1zM400 241h1v1h-1zM401 241h1v1h-1zM396 242h1v1h-1zM397 242h1v1h-1zM398 242h1v1h-1zM399 242h1v1h-1zM400 242h1v1h-1zM404 234h1v1h-1zM405 234h1v1h-1zM406 234h1v1h-1zM407 234h1v1h-1zM403 235h1v1h-1zM404 235h1v1h-1zM407 235h1v1h-1zM408 235h1v1h-1zM403 236h1v1h-1zM404 236h1v1h-1zM407 236h1v1h-1zM408 236h1v1h-1zM403 237h1v1h-1zM404 237h1v1h-1zM407 237h1v1h-1zM408 237h1v1h-1zM403 238h1v1h-1zM404 238h1v1h-1zM407 238h1v1h-1zM408 238h1v1h-1zM403 239h1v1h-1zM404 239h1v1h-1zM407 239h1v1h-1zM408 239h1v1h-1zM403 240h1v1h-1zM404 240h1v1h-1zM407 240h1v1h-1zM408 240h1v1h-1zM403 241h1v1h-1zM404 241h1v1h-1zM407 241h1v1h-1zM408 241h1v1h-1zM404 242h1v1h-1zM405 242h1v1h-1zM406 242h1v1h-1zM407 242h1v1h-1zM410 234h1v1h-1zM411 234h1v1h-1zM412 234h1v1h-1zM413 234h1v1h-1zM414 234h1v1h-1zM415 234h1v1h-1zM410 235h1v1h-1zM412 235h1v1h-1zM413 235h1v1h-1zM415 235h1v1h-1zM412 236h1v1h-1zM413 236h1v1h-1zM412 237h1v1h-1zM413 237h1v1h-1zM412 238h1v1h-1zM413 238h1v1h-1zM412 239h1v1h-1zM413 239h1v1h-1zM412 240h1v1h-1zM413 240h1v1h-1zM412 241h1v1h-1zM413 241h1v1h-1zM412 242h1v1h-1zM413 242h1v1h-1zM422 234h1v1h-1zM423 234h1v1h-1zM424 234h1v1h-1zM425 234h1v1h-1zM421 235h1v1h-1zM422 235h1v1h-1zM425 235h1v1h-1zM426 235h1v1h-1zM421 236h1v1h-1zM422 236h1v1h-1zM425 236h1v1h-1zM426 236h1v1h-1zM421 237h1v1h-1zM422 237h1v1h-1zM421 238h1v1h-1zM422 238h1v1h-1zM421 239h1v1h-1zM422 239h1v1h-1zM424 239h1v1h-1zM425 239h1v1h-1zM426 239h1v1h-1zM421 240h1v1h-1zM422 240h1v1h-1zM425 240h1v1h-1zM426 240h1v1h-1zM421 241h1v1h-1zM422 241h1v1h-1zM424 241h1v1h-1zM425 241h1v1h-1zM426 241h1v1h-1zM422 242h1v1h-1zM423 242h1v1h-1zM425 242h1v1h-1zM426 242h1v1h-1zM428 234h1v1h-1zM429 234h1v1h-1zM430 234h1v1h-1zM431 234h1v1h-1zM432 234h1v1h-1zM428 235h1v1h-1zM429 235h1v1h-1zM432 235h1v1h-1zM433 235h1v1h-1zM428 236h1v1h-1zM429 236h1v1h-1zM432 236h1v1h-1zM433 236h1v1h-1zM428 237h1v1h-1zM429 237h1v1h-1zM432 237h1v1h-1zM433 237h1v1h-1zM428 238h1v1h-1zM429 238h1v1h-1zM430 238h1v1h-1zM431 238h1v1h-1zM432 238h1v1h-1zM428 239h1v1h-1zM429 239h1v1h-1zM431 239h1v1h-1zM432 239h1v1h-1zM428 240h1v1h-1zM429 240h1v1h-1zM432 240h1v1h-1zM433 240h1v1h-1zM428 241h1v1h-1zM429 241h1v1h-1zM432 241h1v1h-1zM433 241h1v1h-1zM428 242h1v1h-1zM429 242h1v1h-1zM432 242h1v1h-1zM433 242h1v1h-1zM435 234h1v1h-1zM436 234h1v1h-1zM437 234h1v1h-1zM438 234h1v1h-1zM436 235h1v1h-1zM437 235h1v1h-1zM436 236h1v1h-1zM437 236h1v1h-1zM436 237h1v1h-1zM437 237h1v1h-1zM436 238h1v1h-1zM437 238h1v1h-1zM436 239h1v1h-1zM437 239h1v1h-1zM436 240h1v1h-1zM437 240h1v1h-1zM436 241h1v1h-1zM437 241h1v1h-1zM435 242h1v1h-1zM436 242h1v1h-1zM437 242h1v1h-1zM438 242h1v1h-1zM440 234h1v1h-1zM441 234h1v1h-1zM442 234h1v1h-1zM443 234h1v1h-1zM444 234h1v1h-1zM440 235h1v1h-1zM441 235h1v1h-1zM444 235h1v1h-1zM445 235h1v1h-1zM440 236h1v1h-1zM441 236h1v1h-1zM444 236h1v1h-1zM445 236h1v1h-1zM440 237h1v1h-1zM441 237h1v1h-1zM444 237h1v1h-1zM445 237h1v1h-1zM440 238h1v1h-1zM441 238h1v1h-1zM444 238h1v1h-1zM445 238h1v1h-1zM440 239h1v1h-1zM441 239h1v1h-1zM444 239h1v1h-1zM445 239h1v1h-1zM440 240h1v1h-1zM441 240h1v1h-1zM444 240h1v1h-1zM445 240h1v1h-1zM440 241h1v1h-1zM441 241h1v1h-1zM444 241h1v1h-1zM445 241h1v1h-1zM440 242h1v1h-1zM441 242h1v1h-1zM442 242h1v1h-1zM443 242h1v1h-1zM444 242h1v1h-1z"/>
</g>
<rect x="389" y="251" width="91" height="1" fill="#ffffff"/>
<rect x="389" y="251" width="1" height="25" fill="#808080"/>
<rect x="479" y="251" width="1" height="25" fill="#ffffff"/>
<rect x="389" y="275" width="91" height="1" fill="#808080"/>
<rect x="390" y="252" width="89" height="23" fill="#e6e6e6"/>
<g data-font="x7x11b">
<path fill="#000000" d="M396 253h1v1h-1zM397 253h1v1h-1zM400 253h1v1h-1zM401 253h1v1h-1zM396 254h1v1h-1zM397 254h1v1h-1zM400 254h1v1h-1zM401 254h1v1h-1zM396 255h1v1h-1zM397 255h1v1h-1zM400 255h1v1h-1zM401 255h1v1h-1zM396 256h1v1h-1zM397 256h1v1h-1zM400 256h1v1h-1zM401 256h1v1h-1zM396 257h1v1h-1zM397 257h1v1h-1zM398 257h1v1h-1zM399 257h1v1h-1zM400 257h1v1h-1zM401 257h1v1h-1zM396 258h1v1h-1zM397 258h1v1h-1zM400 258h1v1h-1zM401 258h1v1h-1zM396 259h1v1h-1zM397 259h1v1h-1zM400 259h1v1h-1zM401 259h1v1h-1zM396 260h1v1h-1zM397 260h1v1h-1zM400 260h1v1h-1zM401 260h1v1h-1zM396 261h1v1h-1zM397 261h1v1h-1zM400 261h1v1h-1zM401 261h1v1h-1zM404 253h1v1h-1zM405 253h1v1h-1zM406 253h1v1h-1zM407 253h1v1h-1zM403 254h1v1h-1zM404 254h1v1h-1zM407 254h1v1h-1zM408 254h1v1h-1zM403 255h1v1h-1zM404 255h1v1h-1zM407 255h1v1h-1zM408 255h1v1h-1zM403 256h1v1h-1zM404 256h1v1h-1zM407 256h1v1h-1zM408 256h1v1h-1zM403 257h1v1h-1zM404 257h1v1h-1zM405 257h1v1h-1zM406 257h1v1h-1zM407 257h1v1h-1zM408 257h1v1h-1zM403 258h1v1h-1zM404 258h1v1h-1zM407 258h1v1h-1zM408 258h1v1h-1zM403 259h1v1h-1zM404 259h1v1h-1zM407 259h1v1h-1zM408 259h1v1h-1zM403 260h1v1h-1zM404 260h1v1h-1zM407 260h1v1h-1zM408 260h1v1h-1zM403 261h1v1h-1zM404 261h1v1h-1zM407 261h1v1h-1zM408 261h1v1h-1zM410 253h1v1h-1zM411 253h1v1h-1zM415 253h1v1h-1zM416 253h1v1h-1zM410 254h1v1h-1zM411 254h1v1h-1zM415 254h1v1h-1zM416 254h1v1h-1zM410 255h1v1h-1zM411 255h1v1h-1zM412 255h1v1h-1zM414 255h1v1h-1zM415 255h1v1h-1zM416 255h1v1h-1zM410 256h1v1h-1zM411 256h1v1h-1zM412 256h1v1h-1zM414 256h1v1h-1zM415 256h1v1h-1zM416 256h1v1h-1zM410 257h1v1h-1zM411 257h1v1h-1zM413 257h1v1h-1zM415 257h1v1h-1zM416 257h1v1h-1zM410 258h1v1h-1zM411 258h1v1h-1zM413 258h1v1h-1zM415 258h1v1h-1zM416 258h1v1h-1zM410 259h1v1h-1zM411 259h1v1h-1zM413 259h1v1h-1zM415 259h1v1h-1zM416 259h1v1h-1zM410 260h1v1h-1zM411 260h1v1h-1zM415 260h1v1h-1zM416 260h1v1h-1zM410 261h1v1h-1zM411 261h1v1h-1zM415 261h1v1h-1zM416 261h1v1h-1zM422 253h1v1h-1zM423 253h1v1h-1zM424 253h1v1h-1zM425 253h1v1h-1zM426 253h1v1h-1zM422 254h1v1h-1zM423 254h1v1h-1zM426 254h1v1h-1zM427 254h1v1h-1zM422 255h1v1h-1zM423 255h1v1h-1zM426 255h1v1h-1zM427 255h1v1h-1zM422 256h1v1h-1zM423 256h1v1h-1zM426 256h1v1h-1zM427 256h1v1h-1zM422 257h1v1h-1zM423 257h1v1h-1zM424 257h1v1h-1zM425 257h1v1h-1zM426 257h1v1h-1zM422 258h1v1h-1zM423 258h1v1h-1zM426 258h1v1h-1zM427 258h1v1h-1zM422 259h1v1h-1zM423 259h1v1h-1zM426 259h1v1h-1zM427 259h1v1h-1zM422 260h1v1h-1zM423 260h1v1h-1zM426 260h1v1h-1zM427 260h1v1h-1zM422 261h1v1h-1zM423 261h1v1h-1zM424 261h1v1h-1zM425 261h1v1h-1zM426 261h1v1h-1zM430 253h1v1h-1zM431 253h1v1h-1zM432 253h1v1h-1zM433 253h1v1h-1zM429 254h1v1h-1zM430 254h1v1h-1zM433 254h1v1h-1zM434 254h1v1h-1zM429 255h1v1h-1zM430 255h1v1h-1zM433 255h1v1h-1zM434 255h1v1h-1zM429 256h1v1h-1zM430 256h1v1h-1zM433 256h1v1h-1zM434 256h1v1h-1zM429 257h1v1h-1zM430 257h1v1h-1zM431 257h1v1h-1zM432 257h1v1h-1zM433 257h1v1h-1zM434 257h1v1h-1zM429 258h1v1h-1zM430 258h1v1h-1zM433 258h1v1h-1zM434 258h1v1h-1zM429 259h1v1h-1zM430 259h1v1h-1zM433 259h1v1h-1zM434 259h1v1h-1zM429 260h1v1h-1zM430 260h1v1h-1zM433 260h1v1h-1zM434 260h1v1h-1zM429 261h1v1h-1zM430 261h1v1h-1zM433 261h1v1h-1zM434 261h1v1h-1zM436 253h1v1h-1zM437 253h1v1h-1zM440 253h1v1h-1zM441 253h1v1h-1zM436 254h1v1h-1zM437 254h1v1h-1zM440 254h1v1h-1zM441 254h1v1h-1zM436 255h1v1h-1zM437 255h1v1h-1zM438 255h1v1h-1zM440 255h1v1h-1zM441 255h1v1h-1zM436 256h1v1h-1zM437 256h1v1h-1zM438 256h1v1h-1zM440 256h1v1h-1zM441 256h1v1h-1zM436 257h1v1h-1zM437 257h1v1h-1zM438 257h1v1h-1zM439 257h1v1h-1zM440 257h1v1h-1zM441 257h1v1h-1zM436 258h1v1h-1zM437 258h1v1h-1zM439 258h1v1h-1zM440 258h1v1h-1zM441 258h1v1h-1zM436 259h1v1h-1zM437 259h1v1h-1zM439 259h1v1h-1zM440 259h1v1h-1zM441 259h1v1h-1zM436 260h1v1h-1zM437 260h1v1h-1zM440 260h1v1h-1zM441 260h1v1h-1zM436 261h1v1h-1zM437 261h1v1h-1zM440 261h1v1h-1zM441 261h1v1h-1zM443 253h1v1h-1zM444 253h1v1h-1zM445 253h1v1h-1zM446 253h1v1h-1zM447 253h1v1h-1zM443 254h1v1h-1zM444 254h1v1h-1zM447 254h1v1h-1zM448 254h1v1h-1zM443 255h1v1h-1zM444 255h1v1h-1zM447 255h1v1h-1zM448 255h1v1h-1zM443 256h1v1h-1zM444 256h1v1h-1zM447 256h1v1h-1zM448 256h1v1h-1zM443 257h1v1h-1zM444 257h1v1h-1zM447 257h1v1h-1zM448 257h1v1h-1zM443 258h1v1h-1zM444 258h1v1h-1zM447 258h1v1h-1zM448 258h1v1h-1zM443 259h1v1h-1zM444 259h1v1h-1zM447 259h1v1h-1zM448 259h1v1h-1zM443 260h1v1h-1zM444 260h1v1h-1zM447 260h1v1h-1zM448 260h1v1h-1zM443 261h1v1h-1zM444 261h1v1h-1zM445 261h1v1h-1zM446 261h1v1h-1zM447 261h1v1h-1zM451 253h1v1h-1zM452 253h1v1h-1zM453 253h1v1h-1zM454 253h1v1h-1zM450 254h1v1h-1zM451 254h1v1h-1zM454 254h1v1h-1zM455 254h1v1h-1zM450 255h1v1h-1zM451 255h1v1h-1zM454 255h1v1h-1zM455 255h1v1h-1zM451 256h1v1h-1zM452 256h1v1h-1zM452 257h1v1h-1zM453 257h1v1h-1zM453 258h1v1h-1zM454 258h1v1h-1zM450 259h1v1h-1zM451 259h1v1h-1zM454 259h1v1h-1zM455 259h1v1h-1zM450 260h1v1h-1zM451 260h1v1h-1zM454 260h1v1h-1zM455 260h1v1h-1zM451 261h1v1h-1zM452 261h1v1h-1zM453 261h1v1h-1zM454 261h1v1h-1z"/>

<path fill="#0000c0" d="M400 268h1v1h-1zM401 268h1v1h-1zM402 268h1v1h-1zM403 268h1v1h-1zM404 268h1v1h-1zM405 268h1v1h-1zM400 269h1v1h-1zM401 269h1v1h-1zM402 269h1v1h-1zM403 269h1v1h-1zM404 269h1v1h-1zM405 269h1v1h-1zM407 268h1v1h-1zM408 268h1v1h-1zM409 268h1v1h-1zM410 268h1v1h-1zM411 268h1v1h-1zM412 268h1v1h-1zM407 269h1v1h-1zM408 269h1v1h-1zM409 269h1v1h-1zM410 269h1v1h-1zM411 269h1v1h-1zM412 269h1v1h-1z"/>
</g>
<rect x="389" y="276" width="91" height="1" fill="#ffffff"/>
<rect x="389" y="276" width="1" height="25" fill="#808080"/>
<rect x="479" y="276" width="1" height="25" fill="#ffffff"/>
<rect x="389" y="300" width="91" height="1" fill="#808080"/>
<rect x="390" y="277" width="89" height="23" fill="#e6e6e6"/>
<g data-font="x7x11b">
<path fill="#000000" d="M399 285h1v1h-1zM398 286h1v1h-1zM399 286h1v1h-1zM397 287h1v1h-1zM398 287h1v1h-1zM396 288h1v1h-1zM397 288h1v1h-1zM398 288h1v1h-1zM399 288h1v1h-1zM400 288h1v1h-1zM401 288h1v1h-1zM402 288h1v1h-1zM396 289h1v1h-1zM397 289h1v1h-1zM398 289h1v1h-1zM399 289h1v1h-1zM400 289h1v1h-1zM401 289h1v1h-1zM402 289h1v1h-1zM397 290h1v1h-1zM398 290h1v1h-1zM398 291h1v1h-1zM399 291h1v1h-1zM399 292h1v1h-1zM408 284h1v1h-1zM409 284h1v1h-1zM410 284h1v1h-1zM411 284h1v1h-1zM412 284h1v1h-1zM408 285h1v1h-1zM409 285h1v1h-1zM412 285h1v1h-1zM413 285h1v1h-1zM408 286h1v1h-1zM409 286h1v1h-1zM412 286h1v1h-1zM413 286h1v1h-1zM408 287h1v1h-1zM409 287h1v1h-1zM412 287h1v1h-1zM413 287h1v1h-1zM408 288h1v1h-1zM409 288h1v1h-1zM410 288h1v1h-1zM411 288h1v1h-1zM412 288h1v1h-1zM408 289h1v1h-1zM409 289h1v1h-1zM412 289h1v1h-1zM413 289h1v1h-1zM408 290h1v1h-1zM409 290h1v1h-1zM412 290h1v1h-1zM413 290h1v1h-1zM408 291h1v1h-1zM409 291h1v1h-1zM412 291h1v1h-1zM413 291h1v1h-1zM408 292h1v1h-1zM409 292h1v1h-1zM410 292h1v1h-1zM411 292h1v1h-1zM412 292h1v1h-1zM416 284h1v1h-1zM417 284h1v1h-1zM418 284h1v1h-1zM419 284h1v1h-1zM415 285h1v1h-1zM416 285h1v1h-1zM419 285h1v1h-1zM420 285h1v1h-1zM415 286h1v1h-1zM416 286h1v1h-1zM419 286h1v1h-1zM420 286h1v1h-1zM415 287h1v1h-1zM416 287h1v1h-1zM419 287h1v1h-1zM420 287h1v1h-1zM415 288h1v1h-1zM416 288h1v1h-1zM417 288h1v1h-1zM418 288h1v1h-1zM419 288h1v1h-1zM420 288h1v1h-1zM415 289h1v1h-1zM416 289h1v1h-1zM419 289h1v1h-1zM420 289h1v1h-1zM415 290h1v1h-1zM416 290h1v1h-1zM419 290h1v1h-1zM420 290h1v1h-1zM415 291h1v1h-1zM416 291h1v1h-1zM419 291h1v1h-1zM420 291h1v1h-1zM415 292h1v1h-1zM416 292h1v1h-1zM419 292h1v1h-1zM420 292h1v1h-1zM423 284h1v1h-1zM424 284h1v1h-1zM425 284h1v1h-1zM426 284h1v1h-1zM422 285h1v1h-1zM423 285h1v1h-1zM426 285h1v1h-1zM427 285h1v1h-1zM422 286h1v1h-1zM423 286h1v1h-1zM426 286h1v1h-1zM427 286h1v1h-1zM422 287h1v1h-1zM423 287h1v1h-1zM422 288h1v1h-1zM423 288h1v1h-1zM422 289h1v1h-1zM423 289h1v1h-1zM422 290h1v1h-1zM423 290h1v1h-1zM426 290h1v1h-1zM427 290h1v1h-1zM422 291h1v1h-1zM423 291h1v1h-1zM426 291h1v1h-1zM427 291h1v1h-1zM423 292h1v1h-1zM424 292h1v1h-1zM425 292h1v1h-1zM426 292h1v1h-1zM429 284h1v1h-1zM430 284h1v1h-1zM433 284h1v1h-1zM434 284h1v1h-1zM429 285h1v1h-1zM430 285h1v1h-1zM433 285h1v1h-1zM434 285h1v1h-1zM429 286h1v1h-1zM430 286h1v1h-1zM433 286h1v1h-1zM434 286h1v1h-1zM429 287h1v1h-1zM430 287h1v1h-1zM432 287h1v1h-1zM433 287h1v1h-1zM429 288h1v1h-1zM430 288h1v1h-1zM431 288h1v1h-1zM432 288h1v1h-1zM429 289h1v1h-1zM430 289h1v1h-1zM432 289h1v1h-1zM433 289h1v1h-1zM429 290h1v1h-1zM430 290h1v1h-1zM433 290h1v1h-1zM434 290h1v1h-1zM429 291h1v1h-1zM430 291h1v1h-1zM433 291h1v1h-1zM434 291h1v1h-1zM429 292h1v1h-1zM430 292h1v1h-1zM433 292h1v1h-1zM434 292h1v1h-1z"/>
</g>
</svg>