<svg xmlns="http://www.w3.org/2000/svg" viewBox="0 0 320 240" width="320" height="240" shape-rendering="crispEdges">
<rect x="0" y="0" width="320" height="240" fill="#000000"/>
<rect x="241" y="1" width="79" height="1" fill="#ffffff"/>
<rect x="241" y="1" width="1" height="29" fill="#808080"/>
<rect x="319" y="1" width="1" height="29" fill="#ffffff"/>
<rect x="241" y="29" width="79" height="1" fill="#808080"/>
<rect x="242" y="2" width="77" height="27" fill="#e6e6e6"/>
<g data-font="x6x10">
<path fill="#000000" d="M249 5h1v1h-1zM250 5h1v1h-1zM251 5h1v1h-1zM248 6h1v1h-1zM252 6h1v1h-1zM248 7h1v1h-1zM252 7h1v1h-1zM249 8h1v1h-1zM250 9h1v1h-1zM251 10h1v1h-1zM248 11h1v1h-1zM252 11h1v1h-1zM248 12h1v1h-1zM252 12h1v1h-1zM249 13h1v1h-1zM250 13h1v1h-1zM251 13h1v1h-1zM254 5h1v1h-1zM255 5h1v1h-1zM256 5h1v1h-1zM257 5h1v1h-1zM258 5h1v1h-1zM254 6h1v1h-1zM254 7h1v1h-1zM254 8h1v1h-1zM254 9h1v1h-1zM255 9h1v1h-1zM256 9h1v1h-1zM257 9h1v1h-1zM254 10h1v1h-1zM254 11h1v1h-1zM254 12h1v1h-1zM254 13h1v1h-1zM255 13h1v1h-1zM256 13h1v1h-1zM257 13h1v1h-1zM258 13h1v1h-1zM260 5h1v1h-1zM261 5h1v1h-1zM262 5h1v1h-1zM263 5h1v1h-1zM264 5h1v1h-1zM260 6h1v1h-1zM262 6h1v1h-1zM264 6h1v1h-1zM262 7h1v1h-1zM262 8h1v1h-1zM262 9h1v1h-1zM262 10h1v1h-1zM262 11h1v1h-1zM262 12h1v1h-1zM262 13h1v1h-1zM270 5h1v1h-1zM271 5h1v1h-1zM272 5h1v1h-1zM273 5h1v1h-1zM270 6h1v1h-1zM274 6h1v1h-1zM270 7h1v1h-1zM274 7h1v1h-1zM270 8h1v1h-1zM274 8h1v1h-1zM270 9h1v1h-1zM271 9h1v1h-1zM272 9h1v1h-1zM273 9h1v1h-1zM270 10h1v1h-1zM270 11h1v1h-1zM270 12h1v1h-1zM270 13h1v1h-1zM277 5h1v1h-1zM278 5h1v1h-1zM279 5h1v1h-1zM276 6h1v1h-1zM280 6h1v1h-1zM276 7h1v1h-1zM280 7h1v1h-1zM276 8h1v1h-1zM280 8h1v1h-1zM276 9h1v1h-1zM280 9h1v1h-1zM276 10h1v1h-1zM280 10h1v1h-1zM276 11h1v1h-1zM280 11h1v1h-1zM276 12h1v1h-1zM280 12h1v1h-1zM277 13h1v1h-1zM278 13h1v1h-1zM279 13h1v1h-1zM282 5h1v1h-1zM283 5h1v1h-1zM284 5h1v1h-1zM283 6h1v1h-1zM283 7h1v1h-1zM283 8h1v1h-1zM283 9h1v1h-1zM283 10h1v1h-1zM283 11h1v1h-1zM283 12h1v1h-1zM282 13h1v1h-1zM283 13h1v1h-1zM284 13h1v1h-1zM286 5h1v1h-1zM290 5h1v1h-1zM286 6h1v1h-1zM287 6h1v1h-1zM290 6h1v1h-1zM286 7h1v1h-1zM287 7h1v1h-1zM290 7h1v1h-1zM286 8h1v1h-1zM288 8h1v1h-1zM290 8h1v1h-1zM286 9h1v1h-1zM288 9h1v1h-1zM290 9h1v1h-1zM286 10h1v1h-1zM289 10h1v1h-1zM290 10h1v1h-1zM286 11h1v1h-1zM289 11h1v1h-1zM290 11h1v1h-1zM286 12h1v1h-1zM290 12h1v1h-1zM286 13h1v1h-1zM290 13h1v1h-1zM292 5h1v1h-1zM293 5h1v1h-1zM294 5h1v1h-1zM295 5h1v1h-1zM296 5h1v1h-1zM292 6h1v1h-1zM294 6h1v1h-1zM296 6h1v1h-1zM294 7h1v1h-1zM294 8h1v1h-1zM294 9h1v1h-1zM294 10h1v1h-1zM294 11h1v1h-1zM294 12h1v1h-1zM294 13h1v1h-1zM299 5h1v1h-1zM300 5h1v1h-1zM301 5h1v1h-1zM298 6h1v1h-1zM302 6h1v1h-1zM298 7h1v1h-1zM302 7h1v1h-1zM299 8h1v1h-1zM300 9h1v1h-1zM301 10h1v1h-1zM298 11h1v1h-1zM302 11h1v1h-1zM298 12h1v1h-1zM302 12h1v1h-1zM299 13h1v1h-1zM300 13h1v1h-1zM301 13h1v1h-1z"/>

<path fill="#0000c0" d="M252 20h1v1h-1zM253 20h1v1h-1zM254 20h1v1h-1zM255 20h1v1h-1zM256 20h1v1h-1zM258 20h1v1h-1zM259 20h1v1h-1zM260 20h1v1h-1zM261 20h1v1h-1zM262 20h1v1h-1z"/>
</g>
<rect x="241" y="30" width="79" height="1" fill="#ffffff"/>
<rect x="241" y="30" width="1" height="29" fill="#808080"/>
<rect x="319" y="30" width="1" height="29" fill="#ffffff"/>
<rect x="241" y="58" width="79" height="1" fill="#808080"/>
<rect x="242" y="31" width="77" height="27" fill="#e6e6e6"/>
<g data-font="x6x10">
<path fill="#000000" d="M248 39h1v1h-1zM249 39h1v1h-1zM250 39h1v1h-1zM251 39h1v1h-1zM252 39h1v1h-1zM248 40h1v1h-1zM248 41h1v1h-1zM248 42h1v1h-1zM249 42h1v1h-1zM250 42h1v1h-1zM251 42h1v1h-1zM248 43h1v1h-1zM252 43h1v1h-1zM252 44h1v1h-1zM252 45h1v1h-1zM248 46h1v1h-1zM252 46h1v1h-1zM249 47h1v1h-1zM250 47h1v1h-1zM251 47h1v1h-1zM257 39h1v1h-1zM256 40h1v1h-1zM257 40h1v1h-1zM255 41h1v1h-1zM257 41h1v1h-1zM257 42h1v1h-1zM257 43h1v1h-1zM257 44h1v1h-1zM257 45h1v1h-1zM257 46h1v1h-1zM256 47h1v1h-1zM257 47h1v1h-1zM258 47h1v1h-1zM264 42h1v1h-1zM266 42h1v1h-1zM267 42h1v1h-1zM264 43h1v1h-1zM265 43h1v1h-1zM268 43h1v1h-1zM264 44h1v1h-1zM268 44h1v1h-1zM264 45h1v1h-1zM268 45h1v1h-1zM264 46h1v1h-1zM265 46h1v1h-1zM266 46h1v1h-1zM267 46h1v1h-1zM264 47h1v1h-1zM264 48h1v1h-1zM271 42h1v1h-1zM272 42h1v1h-1zM273 42h1v1h-1zM270 43h1v1h-1zM274 43h1v1h-1zM270 44h1v1h-1zM274 44h1v1h-1zM270 45h1v1h-1zM274 45h1v1h-1zM270 46h1v1h-1zM274 46h1v1h-1zM271 47h1v1h-1zM272 47h1v1h-1zM273 47h1v1h-1zM277 40h1v1h-1zM276 42h1v1h-1zM277 42h1v1h-1zM277 43h1v1h-1zM277 44h1v1h-1zM277 45h1v1h-1zM277 46h1v1h-1zM276 47h1v1h-1zM277 47h1v1h-1zM278 47h1v1h-1zM280 42h1v1h-1zM282 42h1v1h-1zM283 42h1v1h-1zM280 43h1v1h-1zM281 43h1v1h-1zM284 43h1v1h-1zM280 44h1v1h-1zM284 44h1v1h-1zM280 45h1v1h-1zM284 45h1v1h-1zM280 46h1v1h-1zM284 46h1v1h-1zM280 47h1v1h-1zM284 47h1v1h-1zM287 40h1v1h-1zM287 41h1v1h-1zM286 42h1v1h-1zM287 42h1v1h-1zM288 42h1v1h-1zM287 43h1v1h-1zM287 44h1v1h-1zM287 45h1v1h-1zM287 46h1v1h-1zM288 47h1v1h-1zM289 47h1v1h-1z"/>
</g>
<rect x="241" y="59" width="79" height="1" fill="#ffffff"/>
<rect x="241" y="59" width="1" height="29" fill="#808080"/>
<rect x="319" y="59" width="1" height="29" fill="#ffffff"/>
<rect x="241" y="87" width="79" height="1" fill="#808080"/>
<rect x="242" y="60" width="77" height="27" fill="#e6e6e6"/>
<g data-font="x6x10">
<path fill="#000000" d="M251 68h1v1h-1zM250 69h1v1h-1zM251 69h1v1h-1zM249 70h1v1h-1zM251 70h1v1h-1zM251 71h1v1h-1zM251 72h1v1h-1zM251 73h1v1h-1zM251 74h1v1h-1zM251 75h1v1h-1zM250 76h1v1h-1zM251 76h1v1h-1zM252 76h1v1h-1zM255 68h1v1h-1zM256 68h1v1h-1zM257 68h1v1h-1zM254 69h1v1h-1zM258 69h1v1h-1zM254 70h1v1h-1zM258 70h1v1h-1zM254 71h1v1h-1zM257 71h1v1h-1zM258 71h1v1h-1zM254 72h1v1h-1zM256 72h1v1h-1zM258 72h1v1h-1zM254 73h1v1h-1zM255 73h1v1h-1zM258 73h1v1h-1zM254 74h1v1h-1zM258 74h1v1h-1zM254 75h1v1h-1zM258 75h1v1h-1zM255 76h1v1h-1zM256 76h1v1h-1zM257 76h1v1h-1zM263 68h1v1h-1zM262 69h1v1h-1zM263 69h1v1h-1zM261 70h1v1h-1zM263 70h1v1h-1zM263 71h1v1h-1zM263 72h1v1h-1zM263 73h1v1h-1zM263 74h1v1h-1zM263 75h1v1h-1zM262 76h1v1h-1zM263 76h1v1h-1zM264 76h1v1h-1zM270 71h1v1h-1zM272 71h1v1h-1zM273 71h1v1h-1zM270 72h1v1h-1zM271 72h1v1h-1zM274 72h1v1h-1zM270 73h1v1h-1zM274 73h1v1h-1zM270 74h1v1h-1zM274 74h1v1h-1zM270 75h1v1h-1zM271 75h1v1h-1zM272 75h1v1h-1zM273 75h1v1h-1zM270 76h1v1h-1zM270 77h1v1h-1zM277 71h1v1h-1zM278 71h1v1h-1zM279 71h1v1h-1zM276 72h1v1h-1zM280 72h1v1h-1zM276 73h1v1h-1zM280 73h1v1h-1zM276 74h1v1h-1zM280 74h1v1h-1zM276 75h1v1h-1zM280 75h1v1h-1zM277 76h1v1h-1zM278 76h1v1h-1zM279 76h1v1h-1zM283 69h1v1h-1zM282 71h1v1h-1zM283 71h1v1h-1zM283 72h1v1h-1zM283 73h1v1h-1zM283 74h1v1h-1zM283 75h1v1h-1zM282 76h1v1h-1zM283 76h1v1h-1zM284 76h1v1h-1zM286 71h1v1h-1zM288 71h1v1h-1zM289 71h1v1h-1zM286 72h1v1h-1zM287 72h1v1h-1zM290 72h1v1h-1zM286 73h1v1h-1zM290 73h1v1h-1zM286 74h1v1h-1zM290 74h1v1h-1zM286 75h1v1h-1zM290 75h1v1h-1zM286 76h1v1h-1zM290 76h1v1h-1zM293 69h1v1h-1zM293 70h1v1h-1zM292 71h1v1h-1zM293 71h1v1h-1zM294 71h1v1h-1zM293 72h1v1h-1zM293 73h1v1h-1zM293 74h1v1h-1zM293 75h1v1h-1zM294 76h1v1h-1zM295 76h1v1h-1z"/>
</g>
<rect x="241" y="88" width="79" height="1" fill="#ffffff"/>
<rect x="241" y="88" width="1" height="29" fill="#808080"/>
<rect x="319" y="88" width="1" height="29" fill="#ffffff"/>
<rect x="241" y="116" width="79" height="1" fill="#808080"/>
<rect x="242" y="89" width="77" height="27" fill="#e6e6e6"/>
<g data-font="x6x10">
<path fill="#000000" d="M251 98h1v1h-1zM250 99h1v1h-1zM251 99h1v1h-1zM249 100h1v1h-1zM250 100h1v1h-1zM248 101h1v1h-1zM249 101h1v1h-1zM250 101h1v1h-1zM251 101h1v1h-1zM252 101h1v1h-1zM253 101h1v1h-1zM254 101h1v1h-1zM248 102h1v1h-1zM249 102h1v1h-1zM250 102h1v1h-1zM251 102h1v1h-1zM252 102h1v1h-1zM253 102h1v1h-1zM254 102h1v1h-1zM249 103h1v1h-1zM250 103h1v1h-1zM250 104h1v1h-1zM251 104h1v1h-1zM251 105h1v1h-1zM260 97h1v1h-1zM261 97h1v1h-1zM262 97h1v1h-1zM263 97h1v1h-1zM260 98h1v1h-1zM264 98h1v1h-1zM260 99h1v1h-1zM264 99h1v1h-1zM260 100h1v1h-1zM264 100h1v1h-1zM260 101h1v1h-1zM261 101h1v1h-1zM262 101h1v1h-1zM263 101h1v1h-1zM260 102h1v1h-1zM264 102h1v1h-1zM260 103h1v1h-1zM264 103h1v1h-1zM260 104h1v1h-1zM264 104h1v1h-1zM260 105h1v1h-1zM261 105h1v1h-1zM262 105h1v1h-1zM263 105h1v1h-1zM267 97h1v1h-1zM268 97h1v1h-1zM269 97h1v1h-1zM270 97h1v1h-1zM266 98h1v1h-1zM270 98h1v1h-1zM266 99h1v1h-1zM270 99h1v1h-1zM266 100h1v1h-1zM270 100h1v1h-1zM266 101h1v1h-1zM267 101h1v1h-1zM268 101h1v1h-1zM269 101h1v1h-1zM270 101h1v1h-1zM266 102h1v1h-1zM270 102h1v1h-1zM266 103h1v1h-1zM270 103h1v1h-1zM266 104h1v1h-1zM270 104h1v1h-1zM266 105h1v1h-1zM270 105h1v1h-1zM273 97h1v1h-1zM274 97h1v1h-1zM275 97h1v1h-1zM272 98h1v1h-1zM276 98h1v1h-1zM272 99h1v1h-1zM276 99h1v1h-1zM272 100h1v1h-1zM272 101h1v1h-1zM272 102h1v1h-1zM272 103h1v1h-1zM276 103h1v1h-1zM272 104h1v1h-1zM276 104h1v1h-1zM273 105h1v1h-1zM274 105h1v1h-1zM275 105h1v1h-1zM278 97h1v1h-1zM282 97h1v1h-1zM278 98h1v1h-1zM282 98h1v1h-1zM278 99h1v1h-1zM282 99h1v1h-1zM278 100h1v1h-1zM281 100h1v1h-1zM278 101h1v1h-1zM279 101h1v1h-1zM280 101h1v1h-1zM278 102h1v1h-1zM281 102h1v1h-1zM278 103h1v1h-1zM282 103h1v1h-1zM278 104h1v1h-1zM282 104h1v1h-1zM278 105h1v1h-1zM282 105h1v1h-1z"/>
</g>
</svg>