<svg xmlns="http://www.w3.org/2000/svg" viewBox="0 0 480 320" width="480" height="320" shape-rendering="crispEdges">
<rect x="0" y="0" width="480" height="320" fill="#000000"/>
<rect x="389" y="1" width="91" height="1" fill="#ffffff"/>
<rect x="389" y="1" width="1" height="38" fill="#808080"/>
<rect x="479" y="1" width="1" height="38" fill="#ffffff"/>
<rect x="389" y="38" width="91" height="1" fill="#808080"/>
<rect x="390" y="2" width="89" height="36" fill="#e6e6e6"/>
<g data-font="x7x11b">
<path fill="#000000" d="M397 15h1v1h-1zM398 15h1v1h-1zM399 15h1v1h-1zM400 15h1v1h-1zM396 16h1v1h-1zM397 16h1v1h-1zM400 16h1v1h-1zM401 16h1v1h-1zM396 17h1v1h-1zM397 17h1v1h-1zM400 17h1v1h-1zM401 17h1v1h-1zM396 18h1v1h-1zM397 18h1v1h-1zM396 19h1v1h-1zM397 19h1v1h-1zM396 20h1v1h-1zM397 20h1v1h-1zM396 21h1v1h-1zM397 21h1v1h-1zM400 21h1v1h-1zM401 21h1v1h-1zM396 22h1v1h-1zM397 22h1v1h-1zM400 22h1v1h-1zM401 22h1v1h-1zM397 23h1v1h-1zM398 23h1v1h-1zM399 23h1v1h-1zM400 23h1v1h-1zM404 15h1v1h-1zM405 15h1v1h-1zM406 15h1v1h-1zM407 15h1v1h-1zM403 16h1v1h-1zM404 16h1v1h-1zM407 16h1v1h-1zM408 16h1v1h-1zM403 17h1v1h-1zM404 17h1v1h-1zM407 17h1v1h-1zM408 17h1v1h-1zM403 18h1v1h-1zM404 18h1v1h-1zM407 18h1v1h-1zM408 18h1v1h-1zM403 19h1v1h-1zM404 19h1v1h-1zM405 19h1v1h-1zM406 19h1v1h-1zM407 19h1v1h-1zM408 19h1v1h-1zM403 20h1v1h-1zM404 20h1v1h-1zM407 20h1v1h-1zM408 20h1v1h-1zM403 21h1v1h-1zM404 21h1v1h-1zM407 21h1v1h-1zM408 21h1v1h-1zM403 22h1v1h-1zM404 22h1v1h-1zM407 22h1v1h-1zM408 22h1v1h-1zM403 23h1v1h-1zM404 23h1v1h-1zM407 23h1v1h-1zM408 23h1v1h-1zM410 15h1v1h-1zM411 15h1v1h-1zM410 16h1v1h-1zM411 16h1v1h-1zM410 17h1v1h-1zM411 17h1v1h-1zM410 18h1v1h-1zM411 18h1v1h-1zM410 19h1v1h-1zM411 19h1v1h-1zM410 20h1v1h-1zM411 20h1v1h-1zM410 21h1v1h-1zM411 21h1v1h-1zM410 22h1v1h-1zM411 22h1v1h-1zM410 23h1v1h-1zM411 23h1v1h-1zM412 23h1v1h-1zM413 23h1v1h-1zM414 23h1v1h-1zM415 23h1v1h-1zM417 15h1v1h-1zM418 15h1v1h-1zM419 15h1v1h-1zM420 15h1v1h-1zM418 16h1v1h-1zM419 16h1v1h-1zM418 17h1v1h-1zM419 17h1v1h-1zM418 18h1v1h-1zM419 18h1v1h-1zM418 19h1v1h-1zM419 19h1v1h-1zM418 20h1v1h-1zM419 20h1v1h-1zM418 21h1v1h-1zM419 21h1v1h-1zM418 22h1v1h-1zM419 22h1v1h-1zM417 23h1v1h-1zM418 23h1v1h-1zM419 23h1v1h-1zM420 23h1v1h-1zM422 15h1v1h-1zM423 15h1v1h-1zM424 15h1v1h-1zM425 15h1v1h-1zM426 15h1v1h-1zM422 16h1v1h-1zM423 16h1v1h-1zM426 16h1v1h-1zM427 16h1v1h-1zM422 17h1v1h-1zM423 17h1v1h-1zM426 17h1v1h-1zM427 17h1v1h-1zM422 18h1v1h-1zM423 18h1v1h-1zM426 18h1v1h-1zM427 18h1v1h-1zM422 19h1v1h-1zM423 19h1v1h-1zM424 19h1v1h-1zM425 19h1v1h-1zM426 19h1v1h-1zM422 20h1v1h-1zM423 20h1v1h-1zM426 20h1v1h-1zM427 20h1v1h-1zM422 21h1v1h-1zM423 21h1v1h-1zM426 21h1v1h-1zM427 21h1v1h-1zM422 22h1v1h-1zM423 22h1v1h-1zM426 22h1v1h-1zM427 22h1v1h-1zM422 23h1v1h-1zM423 23h1v1h-1zM424 23h1v1h-1zM425 23h1v1h-1zM426 23h1v1h-1zM429 15h1v1h-1zM430 15h1v1h-1zM431 15h1v1h-1zM432 15h1v1h-1zM433 15h1v1h-1zM429 16h1v1h-1zM430 16h1v1h-1zM433 16h1v1h-1zM434 16h1v1h-1zM429 17h1v1h-1zM430 17h1v1h-1zM433 17h1v1h-1zM434 17h1v1h-1zM429 18h1v1h-1zM430 18h1v1h-1zM433 18h1v1h-1zM434 18h1v1h-1zM429 19h1v1h-1zM430 19h1v1h-1zM431 19h1v1h-1zM432 19h1v1h-1zM433 19h1v1h-1zM429 20h1v1h-1zM430 20h1v1h-1zM432 20h1v1h-1zM433 20h1v1h-1zM429 21h1v1h-1zM430 21h1v1h-1zM433 21h1v1h-1zM434 21h1v1h-1zM429 22h1v1h-1zM430 22h1v1h-1zM433 22h1v1h-1zM434 22h1v1h-1zM429 23h1v1h-1zM430 23h1v1h-1zM433 23h1v1h-1zM434 23h1v1h-1zM437 15h1v1h-1zM438 15h1v1h-1zM439 15h1v1h-1zM440 15h1v1h-1zM436 16h1v1h-1zM437 16h1v1h-1zM440 16h1v1h-1zM441 16h1v1h-1zM436 17h1v1h-1zM437 17h1v1h-1zM440 17h1v1h-1zM441 17h1v1h-1zM436 18h1v1h-1zM437 18h1v1h-1zM440 18h1v1h-1zM441 18h1v1h-1zM436 19h1v1h-1zM437 19h1v1h-1zM438 19h1v1h-1zM439 19h1v1h-1zM440 19h1v1h-1zM441 19h1v1h-1zM436 20h1v1h-1zM437 20h1v1h-1zM440 20h1v1h-1zM441 20h1v1h-1zM436 21h1v1h-1zM437 21h1v1h-1zM440 21h1v1h-1zM441 21h1v1h-1zM436 22h1v1h-1zM437 22h1v1h-1zM440 22h1v1h-1zM441 22h1v1h-1zM436 23h1v1h-1zM437 23h1v1h-1zM440 23h1v1h-1zM441 23h1v1h-1zM443 15h1v1h-1zM444 15h1v1h-1zM445 15h1v1h-1zM446 15h1v1h-1zM447 15h1v1h-1zM448 15h1v1h-1zM443 16h1v1h-1zM445 16h1v1h-1zM446 16h1v1h-1zM448 16h1v1h-1zM445 17h1v1h-1zM446 17h1v1h-1zM445 18h1v1h-1zM446 18h1v1h-1zM445 19h1v1h-1zM446 19h1v1h-1zM445 20h1v1h-1zM446 20h1v1h-1zM445 21h1v1h-1zM446 21h1v1h-1zM445 22h1v1h-1zM446 22h1v1h-1zM445 23h1v1h-1zM446 23h1v1h-1zM450 15h1v1h-1zM451 15h1v1h-1zM452 15h1v1h-1zM453 15h1v1h-1zM454 15h1v1h-1zM455 15h1v1h-1zM450 16h1v1h-1zM451 16h1v1h-1zM450 17h1v1h-1zM451 17h1v1h-1zM450 18h1v1h-1zM451 18h1v1h-1zM450 19h1v1h-1zM451 19h1v1h-1zM452 19h1v1h-1zM453 19h1v1h-1zM454 19h1v1h-1zM450 20h1v1h-1zM451 20h1v1h-1zM450 21h1v1h-1zM451 21h1v1h-1zM450 22h1v1h-1zM451 22h1v1h-1zM450 23h1v1h-1zM451 23h1v1h-1zM452 23h1v1h-1zM453 23h1v1h-1zM454 23h1v1h-1zM455 23h1v1h-1z"/>
</g>
<rect x="389" y="39" width="91" height="1" fill="#ffffff"/>
<rect x="389" y="39" width="1" height="38" fill="#808080"/>
<rect x="479" y="39" width="1" height="38" fill="#ffffff"/>
<rect x="389" y="76" width="91" height="1" fill="#808080"/>
<rect x="390" y="40" width="89" height="36" fill="#e6e6e6"/>
<g data-font="x7x11b">
<path fill="#000000" d="M396 53h1v1h-1zM397 53h1v1h-1zM398 53h1v1h-1zM399 53h1v1h-1zM400 53h1v1h-1zM396 54h1v1h-1zM397 54h1v1h-1zM400 54h1v1h-1zM401 54h1v1h-1zM396 55h1v1h-1zM397 55h1v1h-1zM400 55h1v1h-1zM401 55h1v1h-1zM396 56h1v1h-1zM397 56h1v1h-1zM400 56h1v1h-1zM401 56h1v1h-1zM396 57h1v1h-1zM397 57h1v1h-1zM398 57h1v1h-1zM399 57h1v1h-1zM400 57h1v1h-1zM396 58h1v1h-1zM397 58h1v1h-1zM396 59h1v1h-1zM397 59h1v1h-1zM396 60h1v1h-1zM397 60h1v1h-1zM396 61h1v1h-1zM397 61h1v1h-1zM404 53h1v1h-1zM405 53h1v1h-1zM406 53h1v1h-1zM407 53h1v1h-1zM403 54h1v1h-1zM404 54h1v1h-1zM407 54h1v1h-1zM408 54h1v1h-1zM403 55h1v1h-1zM404 55h1v1h-1zM407 55h1v1h-1zM408 55h1v1h-1zM403 56h1v1h-1zM404 56h1v1h-1zM407 56h1v1h-1zM408 56h1v1h-1zM403 57h1v1h-1zM404 57h1v1h-1zM407 57h1v1h-1zM408 57h1v1h-1zM403 58h1v1h-1zM404 58h1v1h-1zM407 58h1v1h-1zM408 58h1v1h-1zM403 59h1v1h-1zM404 59h1v1h-1zM407 59h1v1h-1zM408 59h1v1h-1zM403 60h1v1h-1zM404 60h1v1h-1zM407 60h1v1h-1zM408 60h1v1h-1zM404 61h1v1h-1zM405 61h1v1h-1zM406 61h1v1h-1zM407 61h1v1h-1zM410 53h1v1h-1zM411 53h1v1h-1zM415 53h1v1h-1zM416 53h1v1h-1zM410 54h1v1h-1zM411 54h1v1h-1zM415 54h1v1h-1zM416 54h1v1h-1zM410 55h1v1h-1zM411 55h1v1h-1zM415 55h1v1h-1zM416 55h1v1h-1zM410 56h1v1h-1zM411 56h1v1h-1zM413 56h1v1h-1zM415 56h1v1h-1zM416 56h1v1h-1zM410 57h1v1h-1zM411 57h1v1h-1zM413 57h1v1h-1zM415 57h1v1h-1zM416 57h1v1h-1zM410 58h1v1h-1zM411 58h1v1h-1zM413 58h1v1h-1zM415 58h1v1h-1zM416 58h1v1h-1zM410 59h1v1h-1zM411 59h1v1h-1zM413 59h1v1h-1zM415 59h1v1h-1zM416 59h1v1h-1zM410 60h1v1h-1zM411 60h1v1h-1zM412 60h1v1h-1zM413 60h1v1h-1zM414 60h1v1h-1zM415 60h1v1h-1zM416 60h1v1h-1zM411 61h1v1h-1zM412 61h1v1h-1zM414 61h1v1h-1zM415 61h1v1h-1zM418 53h1v1h-1zM419 53h1v1h-1zM420 53h1v1h-1zM421 53h1v1h-1zM422 53h1v1h-1zM423 53h1v1h-1zM418 54h1v1h-1zM419 54h1v1h-1zM418 55h1v1h-1zM419 55h1v1h-1zM418 56h1v1h-1zM419 56h1v1h-1zM418 57h1v1h-1zM419 57h1v1h-1zM420 57h1v1h-1zM421 57h1v1h-1zM422 57h1v1h-1zM418 58h1v1h-1zM419 58h1v1h-1zM418 59h1v1h-1zM419 59h1v1h-1zM418 60h1v1h-1zM419 60h1v1h-1zM418 61h1v1h-1zM419 61h1v1h-1zM420 61h1v1h-1zM421 61h1v1h-1zM422 61h1v1h-1zM423 61h1v1h-1zM425 53h1v1h-1zM426 53h1v1h-1zM427 53h1v1h-1zM428 53h1v1h-1zM429 53h1v1h-1zM425 54h1v1h-1zM426 54h1v1h-1zM429 54h1v1h-1zM430 54h1v1h-1zM425 55h1v1h-1zM426 55h1v1h-1zM429 55h1v1h-1zM430 55h1v1h-1zM425 56h1v1h-1zM426 56h1v1h-1zM429 56h1v1h-1zM430 56h1v1h-1zM425 57h1v1h-1zM426 57h1v1h-1zM427 57h1v1h-1zM428 57h1v1h-1zM429 57h1v1h-1zM425 58h1v1h-1zM426 58h1v1h-1zM428 58h1v1h-1zM429 58h1v1h-1zM425 59h1v1h-1zM426 59h1v1h-1zM429 59h1v1h-1zM430 59h1v1h-1zM425 60h1v1h-1zM426 60h1v1h-1zM429 60h1v1h-1zM430 60h1v1h-1zM425 61h1v1h-1zM426 61h1v1h-1zM429 61h1v1h-1zM430 61h1v1h-1zM441 53h1v1h-1zM442 53h1v1h-1zM443 53h1v1h-1zM444 53h1v1h-1zM440 54h1v1h-1zM441 54h1v1h-1zM444 54h1v1h-1zM445 54h1v1h-1zM440 55h1v1h-1zM441 55h1v1h-1zM444 55h1v1h-1zM445 55h1v1h-1zM440 56h1v1h-1zM441 56h1v1h-1zM444 56h1v1h-1zM445 56h1v1h-1zM440 57h1v1h-1zM441 57h1v1h-1zM442 57h1v1h-1zM443 57h1v1h-1zM444 57h1v1h-1zM445 57h1v1h-1zM440 58h1v1h-1zM441 58h1v1h-1zM444 58h1v1h-1zM445 58h1v1h-1zM440 59h1v1h-1zM441 59h1v1h-1zM444 59h1v1h-1zM445 59h1v1h-1zM440 60h1v1h-1zM441 60h1v1h-1zM444 60h1v1h-1zM445 60h1v1h-1zM440 61h1v1h-1zM441 61h1v1h-1zM444 61h1v1h-1zM445 61h1v1h-1zM447 53h1v1h-1zM448 53h1v1h-1zM451 53h1v1h-1zM452 53h1v1h-1zM447 54h1v1h-1zM448 54h1v1h-1zM451 54h1v1h-1zM452 54h1v1h-1zM447 55h1v1h-1zM448 55h1v1h-1zM451 55h1v1h-1zM452 55h1v1h-1zM447 56h1v1h-1zM448 56h1v1h-1zM451 56h1v1h-1zM452 56h1v1h-1zM447 57h1v1h-1zM448 57h1v1h-1zM451 57h1v1h-1zM452 57h1v1h-1zM447 58h1v1h-1zM448 58h1v1h-1zM451 58h1v1h-1zM452 58h1v1h-1zM447 59h1v1h-1zM448 59h1v1h-1zM451 59h1v1h-1zM452 59h1v1h-1zM447 60h1v1h-1zM448 60h1v1h-1zM451 60h1v1h-1zM452 60h1v1h-1zM448 61h1v1h-1zM449 61h1v1h-1zM450 61h1v1h-1zM451 61h1v1h-1zM454 53h1v1h-1zM455 53h1v1h-1zM456 53h1v1h-1zM457 53h1v1h-1zM458 53h1v1h-1zM459 53h1v1h-1zM454 54h1v1h-1zM456 54h1v1h-1zM457 54h1v1h-1zM459 54h1v1h-1zM456 55h1v1h-1zM457 55h1v1h-1zM456 56h1v1h-1zM457 56h1v1h-1zM456 57h1v1h-1zM457 57h1v1h-1zM456 58h1v1h-1zM457 58h1v1h-1zM456 59h1v1h-1zM457 59h1v1h-1zM456 60h1v1h-1zM457 60h1v1h-1zM456 61h1v1h-1zM457 61h1v1h-1zM462 53h1v1h-1zM463 53h1v1h-1zM464 53h1v1h-1zM465 53h1v1h-1zM461 54h1v1h-1zM462 54h1v1h-1zM465 54h1v1h-1zM466 54h1v1h-1zM461 55h1v1h-1zM462 55h1v1h-1zM465 55h1v1h-1zM466 55h1v1h-1zM461 56h1v1h-1zM462 56h1v1h-1zM465 56h1v1h-1zM466 56h1v1h-1zM461 57h1v1h-1zM462 57h1v1h-1zM465 57h1v1h-1zM466 57h1v1h-1zM461 58h1v1h-1zM462 58h1v1h-1zM465 58h1v1h-1zM466 58h1v1h-1zM461 59h1v1h-1zM462 59h1v1h-1zM465 59h1v1h-1zM466 59h1v1h-1zM461 60h1v1h-1zM462 60h1v1h-1zM465 60h1v1h-1zM466 60h1v1h-1zM462 61h1v1h-1zM463 61h1v1h-1zM464 61h1v1h-1zM465 61h1v1h-1z"/>
</g>
<rect x="389" y="77" width="91" height="1" fill="#ffffff"/>
<rect x="389" y="77" width="1" height="38" fill="#808080"/>
<rect x="479" y="77" width="1" height="38" fill="#ffffff"/>
<rect x="389" y="114" width="91" height="1" fill="#808080"/>
<rect x="390" y="78" width="89" height="36" fill="#e6e6e6"/>
<g data-font="x7x11b">
<path fill="#000000" d="M397 91h1v1h-1zM398 91h1v1h-1zM399 91h1v1h-1zM400 91h1v1h-1zM396 92h1v1h-1zM397 92h1v1h-1zM400 92h1v1h-1zM401 92h1v1h-1zM396 93h1v1h-1zM397 93h1v1h-1zM400 93h1v1h-1zM401 93h1v1h-1zM397 94h1v1h-1zM398 94h1v1h-1zM398 95h1v1h-1zM399 95h1v1h-1zM399 96h1v1h-1zM400 96h1v1h-1zM396 97h1v1h-1zM397 97h1v1h-1zM400 97h1v1h-1zM401 97h1v1h-1zM396 98h1v1h-1zM397 98h1v1h-1zM400 98h1v1h-1zM401 98h1v1h-1zM397 99h1v1h-1zM398 99h1v1h-1zM399 99h1v1h-1zM400 99h1v1h-1zM404 91h1v1h-1zM405 91h1v1h-1zM406 91h1v1h-1zM407 91h1v1h-1zM403 92h1v1h-1zM404 92h1v1h-1zM407 92h1v1h-1zM408 92h1v1h-1zM403 93h1v1h-1zM404 93h1v1h-1zM407 93h1v1h-1zM408 93h1v1h-1zM403 94h1v1h-1zM404 94h1v1h-1zM407 94h1v1h-1zM408 94h1v1h-1zM403 95h1v1h-1zM404 95h1v1h-1zM405 95h1v1h-1zM406 95h1v1h-1zM407 95h1v1h-1zM408 95h1v1h-1zM403 96h1v1h-1zM404 96h1v1h-1zM407 96h1v1h-1zM408 96h1v1h-1zM403 97h1v1h-1zM404 97h1v1h-1zM407 97h1v1h-1zM408 97h1v1h-1zM403 98h1v1h-1zM404 98h1v1h-1zM407 98h1v1h-1zM408 98h1v1h-1zM403 99h1v1h-1zM404 99h1v1h-1zM407 99h1v1h-1zM408 99h1v1h-1zM410 91h1v1h-1zM411 91h1v1h-1zM415 91h1v1h-1zM416 91h1v1h-1zM410 92h1v1h-1zM411 92h1v1h-1zM415 92h1v1h-1zM416 92h1v1h-1zM410 93h1v1h-1zM411 93h1v1h-1zM415 93h1v1h-1zM416 93h1v1h-1zM411 94h1v1h-1zM412 94h1v1h-1zM414 94h1v1h-1zM415 94h1v1h-1zM411 95h1v1h-1zM412 95h1v1h-1zM414 95h1v1h-1zM415 95h1v1h-1zM411 96h1v1h-1zM412 96h1v1h-1zM414 96h1v1h-1zM415 96h1v1h-1zM412 97h1v1h-1zM413 97h1v1h-1zM414 97h1v1h-1zM412 98h1v1h-1zM413 98h1v1h-1zM414 98h1v1h-1zM413 99h1v1h-1zM418 91h1v1h-1zM419 91h1v1h-1zM420 91h1v1h-1zM421 91h1v1h-1zM422 91h1v1h-1zM423 91h1v1h-1zM418 92h1v1h-1zM419 92h1v1h-1zM418 93h1v1h-1zM419 93h1v1h-1zM418 94h1v1h-1zM419 94h1v1h-1zM418 95h1v1h-1zM419 95h1v1h-1zM420 95h1v1h-1zM421 95h1v1h-1zM422 95h1v1h-1zM418 96h1v1h-1zM419 96h1v1h-1zM418 97h1v1h-1zM419 97h1v1h-1zM418 98h1v1h-1zM419 98h1v1h-1zM418 99h1v1h-1zM419 99h1v1h-1zM420 99h1v1h-1zM421 99h1v1h-1zM422 99h1v1h-1zM423 99h1v1h-1z"/>
</g>
<rect x="389" y="115" width="91" height="1" fill="#ffffff"/>
<rect x="389" y="115" width="1" height="38" fill="#808080"/>
<rect x="479" y="115" width="1" height="38" fill="#ffffff"/>
<rect x="389" y="152" width="91" height="1" fill="#808080"/>
<rect x="390" y="116" width="89" height="36" fill="#e6e6e6"/>
<g data-font="x7x11b">
<path fill="#000000" d="M396 129h1v1h-1zM397 129h1v1h-1zM398 129h1v1h-1zM399 129h1v1h-1zM400 129h1v1h-1zM396 130h1v1h-1zM397 130h1v1h-1zM400 130h1v1h-1zM401 130h1v1h-1zM396 131h1v1h-1zM397 131h1v1h-1zM400 131h1v1h-1zM401 131h1v1h-1zM396 132h1v1h-1zM397 132h1v1h-1zM400 132h1v1h-1zM401 132h1v1h-1zM396 133h1v1h-1zM397 133h1v1h-1zM398 133h1v1h-1zM399 133h1v1h-1zM400 133h1v1h-1zM396 134h1v1h-1zM397 134h1v1h-1zM399 134h1v1h-1zM400 134h1v1h-1zM396 135h1v1h-1zM397 135h1v1h-1zM400 135h1v1h-1zM401 135h1v1h-1zM396 136h1v1h-1zM397 136h1v1h-1zM400 136h1v1h-1zM401 136h1v1h-1zM396 137h1v1h-1zM397 137h1v1h-1zM400 137h1v1h-1zM401 137h1v1h-1zM404 129h1v1h-1zM405 129h1v1h-1zM406 129h1v1h-1zM407 129h1v1h-1zM403 130h1v1h-1zM404 130h1v1h-1zM407 130h1v1h-1zM408 130h1v1h-1zM403 131h1v1h-1zM404 131h1v1h-1zM407 131h1v1h-1zM408 131h1v1h-1zM403 132h1v1h-1zM404 132h1v1h-1zM407 132h1v1h-1zM408 132h1v1h-1zM403 133h1v1h-1zM404 133h1v1h-1zM405 133h1v1h-1zM406 133h1v1h-1zM407 133h1v1h-1zM408 133h1v1h-1zM403 134h1v1h-1zM404 134h1v1h-1zM407 134h1v1h-1zM408 134h1v1h-1zM403 135h1v1h-1zM404 135h1v1h-1zM407 135h1v1h-1zM408 135h1v1h-1zM403 136h1v1h-1zM404 136h1v1h-1zM407 136h1v1h-1zM408 136h1v1h-1zM403 137h1v1h-1zM404 137h1v1h-1zM407 137h1v1h-1zM408 137h1v1h-1zM410 129h1v1h-1zM411 129h1v1h-1zM414 129h1v1h-1zM415 129h1v1h-1zM410 130h1v1h-1zM411 130h1v1h-1zM414 130h1v1h-1zM415 130h1v1h-1zM410 131h1v1h-1zM411 131h1v1h-1zM412 131h1v1h-1zM414 131h1v1h-1zM415 131h1v1h-1zM410 132h1v1h-1zM411 132h1v1h-1zM412 132h1v1h-1zM414 132h1v1h-1zM415 132h1v1h-1zM410 133h1v1h-1zM411 133h1v1h-1zM412 133h1v1h-1zM413 133h1v1h-1zM414 133h1v1h-1zM415 133h1v1h-1zM410 134h1v1h-1zM411 134h1v1h-1zM413 134h1v1h-1zM414 134h1v1h-1zM415 134h1v1h-1zM410 135h1v1h-1zM411 135h1v1h-1zM413 135h1v1h-1zM414 135h1v1h-1zM415 135h1v1h-1zM410 136h1v1h-1zM411 136h1v1h-1zM414 136h1v1h-1zM415 136h1v1h-1zM410 137h1v1h-1zM411 137h1v1h-1zM414 137h1v1h-1zM415 137h1v1h-1zM418 129h1v1h-1zM419 129h1v1h-1zM420 129h1v1h-1zM421 129h1v1h-1zM417 130h1v1h-1zM418 130h1v1h-1zM421 130h1v1h-1zM422 130h1v1h-1zM417 131h1v1h-1zM418 131h1v1h-1zM421 131h1v1h-1zM422 131h1v1h-1zM417 132h1v1h-1zM418 132h1v1h-1zM417 133h1v1h-1zM418 133h1v1h-1zM417 134h1v1h-1zM418 134h1v1h-1zM420 134h1v1h-1zM421 134h1v1h-1zM422 134h1v1h-1zM417 135h1v1h-1zM418 135h1v1h-1zM421 135h1v1h-1zM422 135h1v1h-1zM417 136h1v1h-1zM418 136h1v1h-1zM420 136h1v1h-1zM421 136h1v1h-1zM422 136h1v1h-1zM418 137h1v1h-1zM419 137h1v1h-1zM421 137h1v1h-1zM422 137h1v1h-1zM424 129h1v1h-1zM425 129h1v1h-1zM426 129h1v1h-1zM427 129h1v1h-1zM428 129h1v1h-1zM429 129h1v1h-1zM424 130h1v1h-1zM425 130h1v1h-1zM424 131h1v1h-1zM425 131h1v1h-1zM424 132h1v1h-1zM425 132h1v1h-1zM424 133h1v1h-1zM425 133h1v1h-1zM426 133h1v1h-1zM427 133h1v1h-1zM428 133h1v1h-1zM424 134h1v1h-1zM425 134h1v1h-1zM424 135h1v1h-1zM425 135h1v1h-1zM424 136h1v1h-1zM425 136h1v1h-1zM424 137h1v1h-1zM425 137h1v1h-1zM426 137h1v1h-1zM427 137h1v1h-1zM428 137h1v1h-1zM429 137h1v1h-1z"/>
</g>
<rect x="389" y="153" width="91" height="1" fill="#ffffff"/>
<rect x="389" y="153" width="1" height="38" fill="#808080"/>
<rect x="479" y="153" width="1" height="38" fill="#ffffff"/>
<rect x="389" y="190" width="91" height="1" fill="#808080"/>
<rect x="390" y="154" width="89" height="36" fill="#e6e6e6"/>
<g data-font="x7x11b">
<path fill="#000000" d="M396 167h1v1h-1zM397 167h1v1h-1zM398 167h1v1h-1zM399 167h1v1h-1zM400 167h1v1h-1zM396 168h1v1h-1zM397 168h1v1h-1zM400 168h1v1h-1zM401 168h1v1h-1zM396 169h1v1h-1zM397 169h1v1h-1zM400 169h1v1h-1zM401 169h1v1h-1zM396 170h1v1h-1zM397 170h1v1h-1zM400 170h1v1h-1zM401 170h1v1h-1zM396 171h1v1h-1zM397 171h1v1h-1zM398 171h1v1h-1zM399 171h1v1h-1zM400 171h1v1h-1zM396 172h1v1h-1zM397 172h1v1h-1zM399 172h1v1h-1zM400 172h1v1h-1zM396 173h1v1h-1zM397 173h1v1h-1zM400 173h1v1h-1zM401 173h1v1h-1zM396 174h1v1h-1zM397 174h1v1h-1zM400 174h1v1h-1zM401 174h1v1h-1zM396 175h1v1h-1zM397 175h1v1h-1zM400 175h1v1h-1zM401 175h1v1h-1zM403 167h1v1h-1zM404 167h1v1h-1zM405 167h1v1h-1zM406 167h1v1h-1zM407 167h1v1h-1zM408 167h1v1h-1zM403 168h1v1h-1zM404 168h1v1h-1zM403 169h1v1h-1zM404 169h1v1h-1zM403 170h1v1h-1zM404 170h1v1h-1zM403 171h1v1h-1zM404 171h1v1h-1zM405 171h1v1h-1zM406 171h1v1h-1zM407 171h1v1h-1zM403 172h1v1h-1zM404 172h1v1h-1zM403 173h1v1h-1zM404 173h1v1h-1zM403 174h1v1h-1zM404 174h1v1h-1zM403 175h1v1h-1zM404 175h1v1h-1zM405 175h1v1h-1zM406 175h1v1h-1zM407 175h1v1h-1zM408 175h1v1h-1zM411 167h1v1h-1zM412 167h1v1h-1zM413 167h1v1h-1zM414 167h1v1h-1zM410 168h1v1h-1zM411 168h1v1h-1zM414 168h1v1h-1zM415 168h1v1h-1zM410 169h1v1h-1zM411 169h1v1h-1zM414 169h1v1h-1zM415 169h1v1h-1zM411 170h1v1h-1zM412 170h1v1h-1zM412 171h1v1h-1zM413 171h1v1h-1zM413 172h1v1h-1zM414 172h1v1h-1zM410 173h1v1h-1zM411 173h1v1h-1zM414 173h1v1h-1zM415 173h1v1h-1zM410 174h1v1h-1zM411 174h1v1h-1zM414 174h1v1h-1zM415 174h1v1h-1zM411 175h1v1h-1zM412 175h1v1h-1zM413 175h1v1h-1zM414 175h1v1h-1zM417 167h1v1h-1zM418 167h1v1h-1zM419 167h1v1h-1zM420 167h1v1h-1zM421 167h1v1h-1zM422 167h1v1h-1zM417 168h1v1h-1zM418 168h1v1h-1zM417 169h1v1h-1zM418 169h1v1h-1zM417 170h1v1h-1zM418 170h1v1h-1zM417 171h1v1h-1zM418 171h1v1h-1zM419 171h1v1h-1zM420 171h1v1h-1zM421 171h1v1h-1zM417 172h1v1h-1zM418 172h1v1h-1zM417 173h1v1h-1zM418 173h1v1h-1zM417 174h1v1h-1zM418 174h1v1h-1zM417 175h1v1h-1zM418 175h1v1h-1zM419 175h1v1h-1zM420 175h1v1h-1zM421 175h1v1h-1zM422 175h1v1h-1zM424 167h1v1h-1zM425 167h1v1h-1zM426 167h1v1h-1zM427 167h1v1h-1zM428 167h1v1h-1zM429 167h1v1h-1zM424 168h1v1h-1zM426 168h1v1h-1zM427 168h1v1h-1zM429 168h1v1h-1zM426 169h1v1h-1zM427 169h1v1h-1zM426 170h1v1h-1zM427 170h1v1h-1zM426 171h1v1h-1zM427 171h1v1h-1zM426 172h1v1h-1zM427 172h1v1h-1zM426 173h1v1h-1zM427 173h1v1h-1zM426 174h1v1h-1zM427 174h1v1h-1zM426 175h1v1h-1zM427 175h1v1h-1z"/>
</g>
<rect x="389" y="191" width="91" height="1" fill="#ffffff"/>
<rect x="389" y="191" width="1" height="38" fill="#808080"/>
<rect x="479" y="191" width="1" height="38" fill="#ffffff"/>
<rect x="389" y="228" width="91" height="1" fill="#808080"/>
<rect x="390" y="192" width="89" height="36" fill="#e6e6e6"/>
<g data-font="x7x11b">
<path fill="#000000" d="M397 205h1v1h-1zM398 205h1v1h-1zM399 205h1v1h-1zM400 205h1v1h-1zM396 206h1v1h-1zM397 206h1v1h-1zM400 206h1v1h-1zM401 206h1v1h-1zM396 207h1v1h-1zM397 207h1v1h-1zM400 207h1v1h-1zM401 207h1v1h-1zM396 208h1v1h-1zM397 208h1v1h-1zM400 208h1v1h-1zM401 208h1v1h-1zM396 209h1v1h-1zM397 209h1v1h-1zM398 209h1v1h-1zM399 209h1v1h-1zM400 209h1v1h-1zM401 209h1v1h-1zM396 210h1v1h-1zM397 210h1v1h-1zM400 210h1v1h-1zM401 210h1v1h-1zM396 211h1v1h-1zM397 211h1v1h-1zM400 211h1v1h-1zM401 211h1v1h-1zM396 212h1v1h-1zM397 212h1v1h-1zM400 212h1v1h-1zM401 212h1v1h-1zM396 213h1v1h-1zM397 213h1v1h-1zM400 213h1v1h-1zM401 213h1v1h-1zM403 205h1v1h-1zM404 205h1v1h-1zM405 205h1v1h-1zM406 205h1v1h-1zM407 205h1v1h-1zM403 206h1v1h-1zM404 206h1v1h-1zM407 206h1v1h-1zM408 206h1v1h-1zM403 207h1v1h-1zM404 207h1v1h-1zM407 207h1v1h-1zM408 207h1v1h-1zM403 208h1v1h-1zM404 208h1v1h-1zM407 208h1v1h-1zM408 208h1v1h-1zM403 209h1v1h-1zM404 209h1v1h-1zM405 209h1v1h-1zM406 209h1v1h-1zM407 209h1v1h-1zM403 210h1v1h-1zM404 210h1v1h-1zM403 211h1v1h-1zM404 211h1v1h-1zM403 212h1v1h-1zM404 212h1v1h-1zM403 213h1v1h-1zM404 213h1v1h-1zM410 205h1v1h-1zM411 205h1v1h-1zM412 205h1v1h-1zM413 205h1v1h-1zM414 205h1v1h-1zM410 206h1v1h-1zM411 206h1v1h-1zM414 206h1v1h-1zM415 206h1v1h-1zM410 207h1v1h-1zM411 207h1v1h-1zM414 207h1v1h-1zM415 207h1v1h-1zM410 208h1v1h-1zM411 208h1v1h-1zM414 208h1v1h-1zM415 208h1v1h-1zM410 209h1v1h-1zM411 209h1v1h-1zM412 209h1v1h-1zM413 209h1v1h-1zM414 209h1v1h-1zM410 210h1v1h-1zM411 210h1v1h-1zM410 211h1v1h-1zM411 211h1v1h-1zM410 212h1v1h-1zM411 212h1v1h-1zM410 213h1v1h-1zM411 213h1v1h-1zM417 205h1v1h-1zM418 205h1v1h-1zM417 206h1v1h-1zM418 206h1v1h-1zM417 207h1v1h-1zM418 207h1v1h-1zM417 208h1v1h-1zM418 208h1v1h-1zM417 209h1v1h-1zM418 209h1v1h-1zM417 210h1v1h-1zM418 210h1v1h-1zM417 211h1v1h-1zM418 211h1v1h-1zM417 212h1v1h-1zM418 212h1v1h-1zM417 213h1v1h-1zM418 213h1v1h-1zM419 213h1v1h-1zM420 213h1v1h-1zM421 213h1v1h-1zM422 213h1v1h-1zM424 205h1v1h-1zM425 205h1v1h-1zM428 205h1v1h-1zM429 205h1v1h-1zM424 206h1v1h-1zM425 206h1v1h-1zM428 206h1v1h-1zM429 206h1v1h-1zM424 207h1v1h-1zM425 207h1v1h-1zM428 207h1v1h-1zM429 207h1v1h-1zM424 208h1v1h-1zM425 208h1v1h-1zM428 208h1v1h-1zM429 208h1v1h-1zM425 209h1v1h-1zM426 209h1v1h-1zM427 209h1v1h-1zM428 209h1v1h-1zM426 210h1v1h-1zM427 210h1v1h-1zM426 211h1v1h-1zM427 211h1v1h-1zM426 212h1v1h-1zM427 212h1v1h-1zM426 213h1v1h-1zM427 213h1v1h-1z"/>
</g>
<rect x="389" y="229" width="91" height="1" fill="#ffffff"/>
<rect x="389" y="229" width="1" height="38" fill="#808080"/>
<rect x="479" y="229" width="1" height="38" fill="#ffffff"/>
<rect x="389" y="266" width="91" height="1" fill="#808080"/>
<rect x="390" y="230" width="89" height="36" fill="#e6e6e6"/>
<g data-font="x7x11b">
<path fill="#000000" d="M396 238h1v1h-1zM397 238h1v1h-1zM398 238h1v1h-1zM399 238h1v1h-1zM400 238h1v1h-1zM401 238h1v1h-1zM396 239h1v1h-1zM397 239h1v1h-1zM396 240h1v1h-1zM397 240h1v1h-1zM396 241h1v1h-1zM397 241h1v1h-1zM396 242h1v1h-1zM397 242h1v1h-1zM398 242h1v1h-1zM399 242h1v1h-1zM400 242h1v1h-1zM396 243h1v1h-1zM397 243h1v1h-1zM396 244h1v1h-1zM397 244h1v1h-1zM396 245h1v1h-1zM397 245h1v1h-1zM396 246h1v1h-1zM397 246h1v1h-1zM398 246h1v1h-1zM399 246h1v1h-1zM400 246h1v1h-1zM401 246h1v1h-1zM403 238h1v1h-1zM404 238h1v1h-1zM407 238h1v1h-1zM408 238h1v1h-1zM403 239h1v1h-1zM404 239h1v1h-1zM407 239h1v1h-1zM408 239h1v1h-1zM403 240h1v1h-1zM404 240h1v1h-1zM405 240h1v1h-1zM407 240h1v1h-1zM408 240h1v1h-1zM403 241h1v1h-1zM404 241h1v1h-1zM405 241h1v1h-1zM407 241h1v1h-1zM408 241h1v1h-1zM403 242h1v1h-1zM404 242h1v1h-1zM405 242h1v1h-1zM406 242h1v1h-1zM407 242h1v1h-1zM408 242h1v1h-1zM403 243h1v1h-1zM404 243h1v1h-1zM406 243h1v1h-1zM407 243h1v1h-1zM408 243h1v1h-1zM403 244h1v1h-1zM404 244h1v1h-1zM406 244h1v1h-1zM407 244h1v1h-1zM408 244h1v1h-1zM403 245h1v1h-1zM404 245h1v1h-1zM407 245h1v1h-1zM408 245h1v1h-1zM403 246h1v1h-1zM404 246h1v1h-1zM407 246h1v1h-1zM408 246h1v1h-1zM410 238h1v1h-1zM411 238h1v1h-1zM414 238h1v1h-1zM415 238h1v1h-1zM410 239h1v1h-1zM411 239h1v1h-1zM414 239h1v1h-1zM415 239h1v1h-1zM410 240h1v1h-1zM411 240h1v1h-1zM414 240h1v1h-1zM415 240h1v1h-1zM410 241h1v1h-1zM411 241h1v1h-1zM414 241h1v1h-1zM415 241h1v1h-1zM410 242h1v1h-1zM411 242h1v1h-1zM412 242h1v1h-1zM413 242h1v1h-1zM414 242h1v1h-1zM415 242h1v1h-1zM410 243h1v1h-1zM411 243h1v1h-1zM414 243h1v1h-1zM415 243h1v1h-1zM410 244h1v1h-1zM411 244h1v1h-1zM414 244h1v1h-1zM415 244h1v1h-1zM410 245h1v1h-1zM411 245h1v1h-1zM414 245h1v1h-1zM415 245h1v1h-1zM410 246h1v1h-1zM411 246h1v1h-1zM414 246h1v1h-1zM415 246h1v1h-1zM418 238h1v1h-1zM419 238h1v1h-1zM420 238h1v1h-1zM421 238h1v1h-1zM417 239h1v1h-1zM418 239h1v1h-1zM421 239h1v1h-1zM422 239h1v1h-1zM417 240h1v1h-1zM418 240h1v1h-1zM421 240h1v1h-1zM422 240h1v1h-1zM417 241h1v1h-1zM418 241h1v1h-1zM421 241h1v1h-1zM422 241h1v1h-1zM417 242h1v1h-1zM418 242h1v1h-1zM419 242h1v1h-1zM420 242h1v1h-1zM421 242h1v1h-1zM422 242h1v1h-1zM417 243h1v1h-1zM418 243h1v1h-1zM421 243h1v1h-1zM422 243h1v1h-1zM417 244h1v1h-1zM418 244h1v1h-1zM421 244h1v1h-1zM422 244h1v1h-1zM417 245h1v1h-1zM418 245h1v1h-1zM421 245h1v1h-1zM422 245h1v1h-1zM417 246h1v1h-1zM418 246h1v1h-1zM421 246h1v1h-1zM422 246h1v1h-1zM424 238h1v1h-1zM425 238h1v1h-1zM428 238h1v1h-1zM429 238h1v1h-1zM424 239h1v1h-1zM425 239h1v1h-1zM428 239h1v1h-1zM429 239h1v1h-1zM424 240h1v1h-1zM425 240h1v1h-1zM426 240h1v1h-1zM428 240h1v1h-1zM429 240h1v1h-1zM424 241h1v1h-1zM425 241h1v1h-1zM426 241h1v1h-1zM428 241h1v1h-1zM429 241h1v1h-1zM424 242h1v1h-1zM425 242h1v1h-1zM426 242h1v1h-1zM427 242h1v1h-1zM428 242h1v1h-1zM429 242h1v1h-1zM424 243h1v1h-1zM425 243h1v1h-1zM427 243h1v1h-1zM428 243h1v1h-1zM429 243h1v1h-1zM424 244h1v1h-1zM425 244h1v1h-1zM427 244h1v1h-1zM428 244h1v1h-1zM429 244h1v1h-1zM424 245h1v1h-1zM425 245h1v1h-1zM428 245h1v1h-1zM429 245h1v1h-1zM424 246h1v1h-1zM425 246h1v1h-1zM428 246h1v1h-1zM429 246h1v1h-1zM432 238h1v1h-1zM433 238h1v1h-1zM434 238h1v1h-1zM435 238h1v1h-1zM431 239h1v1h-1zM432 239h1v1h-1zM435 239h1v1h-1zM436 239h1v1h-1zM431 240h1v1h-1zM432 240h1v1h-1zM435 240h1v1h-1zM436 240h1v1h-1zM431 241h1v1h-1zM432 241h1v1h-1zM431 242h1v1h-1zM432 242h1v1h-1zM431 243h1v1h-1zM432 243h1v1h-1zM431 244h1v1h-1zM432 244h1v1h-1zM435 244h1v1h-1zM436 244h1v1h-1zM431 245h1v1h-1zM432 245h1v1h-1zM435 245h1v1h-1zM436 245h1v1h-1zM432 246h1v1h-1zM433 246h1v1h-1zM434 246h1v1h-1zM435 246h1v1h-1zM438 238h1v1h-1zM439 238h1v1h-1zM440 238h1v1h-1zM441 238h1v1h-1zM442 238h1v1h-1zM443 238h1v1h-1zM438 239h1v1h-1zM439 239h1v1h-1zM438 240h1v1h-1zM439 240h1v1h-1zM438 241h1v1h-1zM439 241h1v1h-1zM438 242h1v1h-1zM439 242h1v1h-1zM440 242h1v1h-1zM441 242h1v1h-1zM442 242h1v1h-1zM438 243h1v1h-1zM439 243h1v1h-1zM438 244h1v1h-1zM439 244h1v1h-1zM438 245h1v1h-1zM439 245h1v1h-1zM438 246h1v1h-1zM439 246h1v1h-1zM440 246h1v1h-1zM441 246h1v1h-1zM442 246h1v1h-1zM443 246h1v1h-1zM445 238h1v1h-1zM446 238h1v1h-1zM447 238h1v1h-1zM448 238h1v1h-1zM449 238h1v1h-1zM445 239h1v1h-1zM446 239h1v1h-1zM449 239h1v1h-1zM450 239h1v1h-1zM445 240h1v1h-1zM446 240h1v1h-1zM449 240h1v1h-1zM450 240h1v1h-1zM445 241h1v1h-1zM446 241h1v1h-1zM449 241h1v1h-1zM450 241h1v1h-1zM445 242h1v1h-1zM446 242h1v1h-1zM449 242h1v1h-1zM450 242h1v1h-1zM445 243h1v1h-1zM446 243h1v1h-1zM449 243h1v1h-1zM450 243h1v1h-1zM445 244h1v1h-1zM446 244h1v1h-1zM449 244h1v1h-1zM450 244h1v1h-1zM445 245h1v1h-1zM446 245h1v1h-1zM449 245h1v1h-1zM450 245h1v1h-1zM445 246h1v1h-1zM446 246h1v1h-1zM447 246h1v1h-1zM448 246h1v1h-1zM449 246h1v1h-1z"/>
<path fill="#000000" d="M396 249h1v1h-1zM397 249h1v1h-1zM398 249h1v1h-1zM399 249h1v1h-1zM400 249h1v1h-1zM396 250h1v1h-1zM397 250h1v1h-1zM400 250h1v1h-1zM401 250h1v1h-1zM396 251h1v1h-1zM397 251h1v1h-1zM400 251h1v1h-1zM401 251h1v1h-1zM396 252h1v1h-1zM397 252h1v1h-1zM400 252h1v1h-1zM401 252h1v1h-1zM396 253h1v1h-1zM397 253h1v1h-1zM398 253h1v1h-1zM399 253h1v1h-1zM400 253h1v1h-1zM396 254h1v1h-1zM397 254h1v1h-1zM399 254h1v1h-1zM400 254h1v1h-1zM396 255h1v1h-1zM397 255h1v1h-1zM400 255h1v1h-1zM401 255h1v1h-1zM396 256h1v1h-1zM397 256h1v1h-1zM400 256h1v1h-1zM401 256h1v1h-1zM396 257h1v1h-1zM397 257h1v1h-1zM400 257h1v1h-1zM401 257h1v1h-1zM403 249h1v1h-1zM404 249h1v1h-1zM405 249h1v1h-1zM406 249h1v1h-1zM407 249h1v1h-1zM408 249h1v1h-1zM403 250h1v1h-1zM404 250h1v1h-1zM403 251h1v1h-1zM404 251h1v1h-1zM403 252h1v1h-1zM404 252h1v1h-1zM403 253h1v1h-1zM404 253h1v1h-1zM405 253h1v1h-1zM406 253h1v1h-1zM407 253h1v1h-1zM403 254h1v1h-1zM404 254h1v1h-1zM403 255h1v1h-1zM404 255h1v1h-1zM403 256h1v1h-1zM404 256h1v1h-1zM403 257h1v1h-1zM404 257h1v1h-1zM405 257h1v1h-1zM406 257h1v1h-1zM407 257h1v1h-1zM408 257h1v1h-1zM411 249h1v1h-1zM412 249h1v1h-1zM413 249h1v1h-1zM414 249h1v1h-1zM410 250h1v1h-1zM411 250h1v1h-1zM414 250h1v1h-1zM415 250h1v1h-1zM410 251h1v1h-1zM411 251h1v1h-1zM414 251h1v1h-1zM415 251h1v1h-1zM411 252h1v1h-1zM412 252h1v1h-1zM412 253h1v1h-1zM413 253h1v1h-1zM413 254h1v1h-1zM414 254h1v1h-1zM410 255h1v1h-1zM411 255h1v1h-1zM414 255h1v1h-1zM415 255h1v1h-1zM410 256h1v1h-1zM411 256h1v1h-1zM414 256h1v1h-1zM415 256h1v1h-1zM411 257h1v1h-1zM412 257h1v1h-1zM413 257h1v1h-1zM414 257h1v1h-1zM417 249h1v1h-1zM418 249h1v1h-1zM419 249h1v1h-1zM420 249h1v1h-1zM421 249h1v1h-1zM417 250h1v1h-1zM418 250h1v1h-1zM421 250h1v1h-1zM422 250h1v1h-1zM417 251h1v1h-1zM418 251h1v1h-1zM421 251h1v1h-1zM422 251h1v1h-1zM417 252h1v1h-1zM418 252h1v1h-1zM421 252h1v1h-1zM422 252h1v1h-1zM417 253h1v1h-1zM418 253h1v1h-1zM419 253h1v1h-1zM420 253h1v1h-1zM421 253h1v1h-1zM417 254h1v1h-1zM418 254h1v1h-1zM417 255h1v1h-1zM418 255h1v1h-1zM417 256h1v1h-1zM418 256h1v1h-1zM417 257h1v1h-1zM418 257h1v1h-1zM425 249h1v1h-1zM426 249h1v1h-1zM427 249h1v1h-1zM428 249h1v1h-1zM424 250h1v1h-1zM425 250h1v1h-1zM428 250h1v1h-1zM429 250h1v1h-1zM424 251h1v1h-1zM425 251h1v1h-1zM428 251h1v1h-1zM429 251h1v1h-1zM424 252h1v1h-1zM425 252h1v1h-1zM428 252h1v1h-1zM429 252h1v1h-1zM424 253h1v1h-1zM425 253h1v1h-1zM428 253h1v1h-1zM429 253h1v1h-1zM424 254h1v1h-1zM425 254h1v1h-1zM428 254h1v1h-1zM429 254h1v1h-1zM424 255h1v1h-1zM425 255h1v1h-1zM428 255h1v1h-1zM429 255h1v1h-1zM424 256h1v1h-1zM425 256h1v1h-1zM428 256h1v1h-1zM429 256h1v1h-1zM425 257h1v1h-1zM426 257h1v1h-1zM427 257h1v1h-1zM428 257h1v1h-1zM431 249h1v1h-1zM432 249h1v1h-1zM435 249h1v1h-1zM436 249h1v1h-1zM431 250h1v1h-1zM432 250h1v1h-1zM435 250h1v1h-1zM436 250h1v1h-1zM431 251h1v1h-1zM432 251h1v1h-1zM433 251h1v1h-1zM435 251h1v1h-1zM436 251h1v1h-1zM431 252h1v1h-1zM432 252h1v1h-1zM433 252h1v1h-1zM435 252h1v1h-1zM436 252h1v1h-1zM431 253h1v1h-1zM432 253h1v1h-1zM433 253h1v1h-1zM434 253h1v1h-1zM435 253h1v1h-1zM436 253h1v1h-1zM431 254h1v1h-1zM432 254h1v1h-1zM434 254h1v1h-1zM435 254h1v1h-1zM436 254h1v1h-1zM431 255h1v1h-1zM432 255h1v1h-1zM434 255h1v1h-1zM435 255h1v1h-1zM436 255h1v1h-1zM431 256h1v1h-1zM432 256h1v1h-1zM435 256h1v1h-1zM436 256h1v1h-1zM431 257h1v1h-1zM432 257h1v1h-1zM435 257h1v1h-1zM436 257h1v1h-1zM439 249h1v1h-1zM440 249h1v1h-1zM441 249h1v1h-1zM442 249h1v1h-1zM438 250h1v1h-1zM439 250h1v1h-1zM442 250h1v1h-1zM443 250h1v1h-1zM438 251h1v1h-1zM439 251h1v1h-1zM442 251h1v1h-1zM443 251h1v1h-1zM439 252h1v1h-1zM440 252h1v1h-1zM440 253h1v1h-1zM441 253h1v1h-1zM441 254h1v1h-1zM442 254h1v1h-1zM438 255h1v1h-1zM439 255h1v1h-1zM442 255h1v1h-1zM443 255h1v1h-1zM438 256h1v1h-1zM439 256h1v1h-1zM442 256h1v1h-1zM443 256h1v1h-1zM439 257h1v1h-1zM440 257h1v1h-1zM441 257h1v1h-1zM442 257h1v1h-1zM445 249h1v1h-1zM446 249h1v1h-1zM447 249h1v1h-1zM448 249h1v1h-1zM449 249h1v1h-1zM450 249h1v1h-1zM445 250h1v1h-1zM446 250h1v1h-1zM445 251h1v1h-1zM446 251h1v1h-1zM445 252h1v1h-1zM446 252h1v1h-1zM445 253h1v1h-1zM446 253h1v1h-1zM447 253h1v1h-1zM448 253h1v1h-1zM449 253h1v1h-1zM445 254h1v1h-1zM446 254h1v1h-1zM445 255h1v1h-1zM446 255h1v1h-1zM445 256h1v1h-1zM446 256h1v1h-1zM445 257h1v1h-1zM446 257h1v1h-1zM447 257h1v1h-1zM448 257h1v1h-1zM449 257h1v1h-1zM450 257h1v1h-1z"/>
</g>
<rect x="389" y="267" width="91" height="1" fill="#ffffff"/>
<rect x="389" y="267" width="1" height="38" fill="#808080"/>
<rect x="479" y="267" width="1" height="38" fill="#ffffff"/>
<rect x="389" y="304" width="91" height="1" fill="#808080"/>
<rect x="390" y="268" width="89" height="36" fill="#e6e6e6"/>
<g data-font="x7x11b">
<path fill="#000000" d="M399 282h1v1h-1zM398 283h1v1h-1zM399 283h1v1h-1zM397 284h1v1h-1zM398 284h1v1h-1zM396 285h1v1h-1zM397 285h1v1h-1zM398 285h1v1h-1zM399 285h1v1h-1zM400 285h1v1h-1zM401 285h1v1h-1zM402 285h1v1h-1zM396 286h1v1h-1zM397 286h1v1h-1zM398 286h1v1h-1zM399 286h1v1h-1zM400 286h1v1h-1zM401 286h1v1h-1zM402 286h1v1h-1zM397 287h1v1h-1zM398 287h1v1h-1zM398 288h1v1h-1zM399 288h1v1h-1zM399 289h1v1h-1zM408 281h1v1h-1zM409 281h1v1h-1zM410 281h1v1h-1zM411 281h1v1h-1zM412 281h1v1h-1zM408 282h1v1h-1zM409 282h1v1h-1zM412 282h1v1h-1zM413 282h1v1h-1zM408 283h1v1h-1zM409 283h1v1h-1zM412 283h1v1h-1zM413 283h1v1h-1zM408 284h1v1h-1zM409 284h1v1h-1zM412 284h1v1h-1zM413 284h1v1h-1zM408 285h1v1h-1zM409 285h1v1h-1zM410 285h1v1h-1zM411 285h1v1h-1zM412 285h1v1h-1zM408 286h1v1h-1zM409 286h1v1h-1zM412 286h1v1h-1zM413 286h1v1h-1zM408 287h1v1h-1zM409 287h1v1h-1zM412 287h1v1h-1zM413 287h1v1h-1zM408 288h1v1h-1zM409 288h1v1h-1zM412 288h1v1h-1zM413 288h1v1h-1zM408 289h1v1h-1zM409 289h1v1h-1zM410 289h1v1h-1zM411 289h1v1h-1zM412 289h1v1h-1zM416 281h1v1h-1zM417 281h1v1h-1zM418 281h1v1h-1zM419 281h1v1h-1zM415 282h1v1h-1zM416 282h1v1h-1zM419 282h1v1h-1zM420 282h1v1h-1zM415 283h1v1h-1zM416 283h1v1h-1zM419 283h1v1h-1zM420 283h1v1h-1zM415 284h1v1h-1zM416 284h1v1h-1zM419 284h1v1h-1zM420 284h1v1h-1zM415 285h1v1h-1zM416 285h1v1h-1zM417 285h1v1h-1zM418 285h1v1h-1zM419 285h1v1h-1zM420 285h1v1h-1zM415 286h1v1h-1zM416 286h1v1h-1zM419 286h1v1h-1zM420 286h1v1h-1zM415 287h1v1h-1zM416 287h1v1h-1zM419 287h1v1h-1zM420 287h1v1h-1zM415 288h1v1h-1zM416 288h1v1h-1zM419 288h1v1h-1zM420 288h1v1h-1zM415 289h1v1h-1zM416 289h1v1h-1zM419 289h1v1h-1zM420 289h1v1h-1zM423 281h1v1h-1zM424 281h1v1h-1zM425 281h1v1h-1zM426 281h1v1h-1zM422 282h1v1h-1zM423 282h1v1h-1zM426 282h1v1h-1zM427 282h1v1h-1zM422 283h1v1h-1zM423 283h1v1h-1zM426 283h1v1h-1zM427 283h1v1h-1zM422 284h1v1h-1zM423 284h1v1h-1zM422 285h1v1h-1zM423 285h1v1h-1zM422 286h1v1h-1zM423 286h1v1h-1zM422 287h1v1h-1zM423 287h1v1h-1zM426 287h1v1h-1zM427 287h1v1h-1zM422 288h1v1h-1zM423 288h1v1h-1zM426 288h1v1h-1zM427 288h1v1h-1zM423 289h1v1h-1zM424 289h1v1h-1zM425 289h1v1h-1zM426 289h1v1h-1zM429 281h1v1h-1zM430 281h1v1h-1zM433 281h1v1h-1zM434 281h1v1h-1zM429 282h1v1h-1zM430 282h1v1h-1zM433 282h1v1h-1zM434 282h1v1h-1zM429 283h1v1h-1zM430 283h1v1h-1zM433 283h1v1h-1zM434 283h1v1h-1zM429 284h1v1h-1zM430 284h1v1h-1zM432 284h1v1h-1zM433 284h1v1h-1zM429 285h1v1h-1zM430 285h1v1h-1zM431 285h1v1h-1zM432 285h1v1h-1zM429 286h1v1h-1zM430 286h1v1h-1zM432 286h1v1h-1zM433 286h1v1h-1zM429 287h1v1h-1zM430 287h1v1h-1zM433 287h1v1h-1zM434 287h1v1h-1zM429 288h1v1h-1zM430 288h1v1h-1zM433 288h1v1h-1zM434 288h1v1h-1zM429 289h1v1h-1zM430 289h1v1h-1zM433 289h1v1h-1zM434 289h1v1h-1z"/>
</g>
</svg>